{
.appVersion = "3149";
DisplayStrings = (
"./quotedblright",
"«»"
);
copyright = "Copyright 2010 The Artifika Project Authors (https://github.com/cyrealtype/Artifika)";
customParameters = (
{
name = fsType;
value = (
);
},
{
name = "Use Typo Metrics";
value = 1;
},
{
name = "Disable Last Change";
value = 1;
},
{
name = "Use Line Breaks";
value = 1;
},
{
name = licenseURL;
value = "http://scripts.sil.org/OFL";
},
{
name = trademark;
value = "Artifika is a trademark of Cyreal.org";
},
{
name = license;
value = "This Font Software is licensed under the SIL Open Font License, Version 1.1. This license is available with a FAQ at: http://scripts.sil.org/OFL";
}
);
date = "2022-01-21 09:48:58 +0000";
designer = "Yulya Zhdanova, Ivan Petrov | Cyreal.org";
designerURL = "http://cyreal.org";
disablesAutomaticAlignment = 1;
familyName = Artifika;
featurePrefixes = (
{
code = "@_KERN_A_1ST=[A  Aacute Acircumflex Adieresis Agrave Aring Atilde];
@_KERN_A_2ND=[A  Aacute Acircumflex Adieresis Agrave Aring Atilde];
@_KERN_B_1ST=[B ];
@_KERN_C_1ST=[C  Ccedilla];
@_KERN_D_1ST=[D  Eth];
@_KERN_E_1ST=[E  AE Eacute Ecircumflex Edieresis Egrave OE];
@_KERN_I_1ST=[I  H Iacute Icircumflex Idieresis Igrave];
@_KERN_I_2ND=[I  B D E Eacute Ecircumflex Edieresis Egrave Eth F H Iacute Icircumflex Idieresis Igrave K L P R Thorn];
@_KERN_J_1ST=[J ];
@_KERN_K_1ST=[K ];
@_KERN_L_1ST=[L ];
@_KERN_M_1ST=[M ];
@_KERN_N_1ST=[N  Ntilde];
@_KERN_N_2ND=[N  Ntilde];
@_KERN_O_1ST=[O  Oacute Ocircumflex Odieresis Ograve Oslash Otilde Q];
@_KERN_O_2ND=[O  C Ccedilla OE Oacute Ocircumflex Odieresis Ograve Oslash Otilde Q];
@_KERN_P_1ST=[P ];
@_KERN_R_1ST=[R ];
@_KERN_U_1ST=[U  Uacute Ucircumflex Udieresis Ugrave];
@_KERN_U_2ND=[U  Uacute Ucircumflex Udieresis Ugrave];
@_KERN_V_1ST=[V ];
@_KERN_W_1ST=[W ];
@_KERN_X_1ST=[X ];
@_KERN_Y_1ST=[Y  Yacute];
@_KERN_Y_2ND=[Y  Yacute];
@_KERN_a_1ST=[a  aacute acircumflex adieresis agrave aring atilde];

glyphs = (
{
glyphname = A;
layers = (
{
layerId = UUID0;
paths = (
{
closed = 1;
nodes = (
"1123 33 LINE",
"1141 -10 OFFCURVE",
"1172 -25 OFFCURVE",
"1209 -25 CURVE SMOOTH",
"1324 -25 OFFCURVE",
"1471 96 OFFCURVE",
"1537 158 CURVE",
"1504 229 LINE",
"1328 160 LINE",
"867 1331 LINE SMOOTH",
"840 1397 OFFCURVE",
"814 1413 OFFCURVE",
"748 1413 CURVE SMOOTH",
"646 1413 LINE",
"646 1415 OFFCURVE",
"136 457 OFFCURVE",
"89 55 CURVE SMOOTH",
"89 49 OFFCURVE",
"87 45 OFFCURVE",
"87 39 CURVE SMOOTH",
"87 0 OFFCURVE",
"109 -20 OFFCURVE",
"148 -20 CURVE SMOOTH",
"162 -20 OFFCURVE",
"177 -18 OFFCURVE",
"193 -14 CURVE SMOOTH",
"349 29 LINE",
"337 72 OFFCURVE",
"332 119 OFFCURVE",
"332 168 CURVE SMOOTH",
"332 238 OFFCURVE",
"343 311 OFFCURVE",
"363 381 CURVE",
"973 381 LINE"
);
},
{
closed = 1;
nodes = (
"681 1184 LINE",
"922 518 LINE",
"396 518 LINE",
"441 690 OFFCURVE",
"554 913 OFFCURVE",
"670 1184 CURVE"
);
}
);
width = 1517;
}
);
leftKerningGroup = A;
rightKerningGroup = A;
unicode = 0041;
},
{
glyphname = AE;
layers = (
{
layerId = UUID0;
paths = (
{
closed = 1;
nodes = (
"1050 -6 OFFCURVE",
"1232 -12 OFFCURVE",
"1406 -12 CURVE SMOOTH",
"1734 -12 OFFCURVE",
"1838 -14 OFFCURVE",
"1838 106 CURVE SMOOTH",
"1838 160 OFFCURVE",
"1820 219 OFFCURVE",
"1818 219 CURVE SMOOTH",
"1646 164 OFFCURVE",
"1461 141 OFFCURVE",
"1283 141 CURVE SMOOTH",
"1144 141 LINE",
"1144 659 LINE",
"1537 659 LINE SMOOTH",
"1603 659 OFFCURVE",
"1631 682 OFFCURVE",
"1631 752 CURVE SMOOTH",
"1631 801 LINE",
"1144 801 LINE",
"1144 1270 LINE",
"1324 1268 LINE SMOOTH",
"1609 1264 OFFCURVE",
"1750 1153 OFFCURVE",
"1750 1151 CURVE SMOOTH",
"1764 1167 OFFCURVE",
"1842 1298 OFFCURVE",
"1842 1325 CURVE SMOOTH",
"1842 1415 OFFCURVE",
"1535 1423 OFFCURVE",
"1355 1423 CURVE SMOOTH",
"1193 1423 OFFCURVE",
"1031 1411 OFFCURVE",
"908 1397 CURVE",
"908 1395 LINE",
"908 1397 OFFCURVE",
"144 457 OFFCURVE",
"1 55 CURVE",
"-1 45 OFFCURVE",
"-3 35 OFFCURVE",
"-3 29 CURVE SMOOTH",
"-3 -4 OFFCURVE",
"19 -16 OFFCURVE",
"62 -16 CURVE SMOOTH",
"73 -16 OFFCURVE",
"83 -16 OFFCURVE",
"93 -14 CURVE SMOOTH",
"292 4 LINE",
"290 16 OFFCURVE",
"290 31 OFFCURVE",
"290 45 CURVE SMOOTH",
"290 139 OFFCURVE",
"325 254 OFFCURVE",
"388 381 CURVE",
"908 381 LINE",
"908 86 LINE SMOOTH",
"908 29 OFFCURVE",
"925 6 OFFCURVE",
"986 0 CURVE SMOOTH"
);
},
{
closed = 1;
nodes = (
"904 1182 OFFCURVE",
"906 1180 OFFCURVE",
"908 1180 CURVE",
"908 518 LINE",
"462 518 LINE",
"579 721 OFFCURVE",
"742 950 OFFCURVE",
"904 1182 CURVE"
);
}
);
width = 1945;
}
);
rightKerningGroup = E;
unicode = 00C6;
},
{
glyphname = B;
layers = (
{
layerId = UUID0;
paths = (
{
closed = 1;
nodes = (
"479 1430 OFFCURVE",
"188 1397 OFFCURVE",
"65 1346 CURVE",
"65 1257 LINE",
"258 1272 LINE",
"258 88 LINE SMOOTH",
"258 31 OFFCURVE",
"276 8 OFFCURVE",
"336 2 CURVE SMOOTH",
"459 -12 OFFCURVE",
"573 -18 OFFCURVE",
"708 -18 CURVE SMOOTH",
"1048 -18 OFFCURVE",
"1313 63 OFFCURVE",
"1313 381 CURVE SMOOTH",
"1313 559 OFFCURVE",
"1231 692 OFFCURVE",
"1005 715 CURVE",
"1214 743 OFFCURVE",
"1276 930 OFFCURVE",
"1276 1030 CURVE SMOOTH",
"1276 1331 OFFCURVE",
"1063 1432 OFFCURVE",
"747 1432 CURVE"
);
},
{
closed = 1;
nodes = (
"999 627 OFFCURVE",
"1075 522 OFFCURVE",
"1075 365 CURVE SMOOTH",
"1075 250 OFFCURVE",
"1022 111 OFFCURVE",
"739 111 CURVE SMOOTH",
"588 111 OFFCURVE",
"500 143 OFFCURVE",
"500 143 CURVE",
"500 637 LINE",
"500 637 OFFCURVE",
"571 641 OFFCURVE",
"663 641 CURVE SMOOTH",
"700 641 OFFCURVE",
"739 641 OFFCURVE",
"780 639 CURVE SMOOTH"
);
},
{
closed = 1;
nodes = (
"960 1292 OFFCURVE",
"1046 1194 OFFCURVE",
"1046 1034 CURVE SMOOTH",
"1046 887 OFFCURVE",
"944 764 OFFCURVE",
"657 764 CURVE SMOOTH",
"614 764 OFFCURVE",
"563 768 OFFCURVE",
"500 780 CURVE",
"500 1282 LINE",
"500 1284 OFFCURVE",
"606 1294 OFFCURVE",
"745 1294 CURVE SMOOTH"
);
}
);
width = 1448;
}
);
leftKerningGroup = B;
unicode = 0042;
},
{
glyphname = C;
layers = (
{
layerId = UUID0;
paths = (
{
closed = 1;
nodes = (
"128 248 OFFCURVE",
"407 -39 OFFCURVE",
"845 -39 CURVE SMOOTH",
"1035 -39 OFFCURVE",
"1224 4 OFFCURVE",
"1373 121 CURVE",
"1332 199 LINE",
"1332 199 OFFCURVE",
"1117 115 OFFCURVE",
"919 115 CURVE SMOOTH",
"562 115 OFFCURVE",
"388 403 OFFCURVE",
"388 725 CURVE SMOOTH",
"388 987 OFFCURVE",
"476 1317 OFFCURVE",
"792 1317 CURVE SMOOTH",
"972 1317 OFFCURVE",
"1128 1188 OFFCURVE",
"1216 1139 CURVE",
"1300 1280 LINE SMOOTH",
"1308 1294 OFFCURVE",
"1312 1307 OFFCURVE",
"1312 1319 CURVE SMOOTH",
"1312 1419 OFFCURVE",
"1019 1450 OFFCURVE",
"869 1450 CURVE SMOOTH",
"382 1450 OFFCURVE",
"128 1161 OFFCURVE",
"128 702 CURVE SMOOTH"
);
}
);
width = 1439;
}
);
leftKerningGroup = C;
rightKerningGroup = C;
unicode = 0043;
},
{
glyphname = D;
layers = (
{
layerId = UUID0;
paths = (
{
closed = 1;
nodes = (
"63 1270 LINE",
"65 1270 OFFCURVE",
"258 1274 OFFCURVE",
"258 1274 CURVE",
"256 82 LINE SMOOTH",
"256 25 OFFCURVE",
"274 0 OFFCURVE",
"334 0 CURVE SMOOTH",
"807 0 LINE SMOOTH",
"1204 0 OFFCURVE",
"1495 221 OFFCURVE",
"1495 705 CURVE SMOOTH",
"1495 1225 OFFCURVE",
"1257 1432 OFFCURVE",
"790 1432 CURVE SMOOTH",
"526 1432 OFFCURVE",
"217 1401 OFFCURVE",
"63 1350 CURVE"
);
},
{
closed = 1;
nodes = (
"489 1286 LINE",
"489 1284 OFFCURVE",
"629 1303 OFFCURVE",
"770 1303 CURVE SMOOTH",
"1132 1303 OFFCURVE",
"1237 1090 OFFCURVE",
"1237 705 CURVE SMOOTH",
"1237 291 OFFCURVE",
"1055 127 OFFCURVE",
"723 127 CURVE SMOOTH",
"612 127 OFFCURVE",
"491 141 OFFCURVE",
"491 141 CURVE"
);
}
);
width = 1632;
}
);
leftKerningGroup = B;
rightKerningGroup = D;
unicode = 0044;
},
{
glyphname = Eth;
layers = (
{
layerId = UUID0;
paths = (
{
closed = 1;
nodes = (
"75 1264 LINE",
"77 1264 OFFCURVE",
"269 1274 OFFCURVE",
"269 1274 CURVE",
"267 778 LINE",
"142 778 LINE SMOOTH",
"95 778 OFFCURVE",
"77 764 OFFCURVE",
"77 717 CURVE SMOOTH",
"77 668 LINE",
"267 668 LINE",
"267 82 LINE SMOOTH",
"267 25 OFFCURVE",
"286 0 OFFCURVE",
"345 0 CURVE SMOOTH",
"818 0 LINE SMOOTH",
"1215 0 OFFCURVE",
"1506 219 OFFCURVE",
"1506 702 CURVE SMOOTH",
"1506 1223 OFFCURVE",
"1269 1432 OFFCURVE",
"802 1432 CURVE SMOOTH",
"537 1432 OFFCURVE",
"228 1401 OFFCURVE",
"75 1350 CURVE"
);
},
{
closed = 1;
nodes = (
"750 668 LINE",
"798 668 OFFCURVE",
"816 684 OFFCURVE",
"816 729 CURVE SMOOTH",
"816 778 LINE",
"501 778 LINE",
"501 1292 LINE",
"501 1290 OFFCURVE",
"640 1303 OFFCURVE",
"781 1303 CURVE SMOOTH",
"1144 1303 OFFCURVE",
"1248 1087 OFFCURVE",
"1248 702 CURVE SMOOTH",
"1248 289 OFFCURVE",
"1066 127 OFFCURVE",
"734 127 CURVE SMOOTH",
"624 127 OFFCURVE",
"503 141 OFFCURVE",
"503 141 CURVE",
"501 668 LINE"
);
}
);
width = 1643;
}
);
leftKerningGroup = B;
rightKerningGroup = D;
unicode = 00D0;
},
{
glyphname = E;
layers = (
{
layerId = UUID0;
paths = (
{
closed = 1;
nodes = (
"401 -6 OFFCURVE",
"594 -12 OFFCURVE",
"776 -12 CURVE SMOOTH",
"1108 -12 OFFCURVE",
"1227 -18 OFFCURVE",
"1227 106 CURVE SMOOTH",
"1227 160 OFFCURVE",
"1204 219 OFFCURVE",
"1206 219 CURVE SMOOTH",
"1034 164 OFFCURVE",
"850 141 OFFCURVE",
"672 141 CURVE SMOOTH",
"491 141 LINE",
"491 664 LINE",
"926 664 LINE SMOOTH",
"991 664 OFFCURVE",
"1020 686 OFFCURVE",
"1020 756 CURVE SMOOTH",
"1020 805 LINE",
"491 805 LINE",
"491 1278 LINE",
"713 1276 LINE SMOOTH",
"997 1274 OFFCURVE",
"1139 1161 OFFCURVE",
"1139 1159 CURVE SMOOTH",
"1153 1176 OFFCURVE",
"1231 1307 OFFCURVE",
"1231 1333 CURVE SMOOTH",
"1231 1425 OFFCURVE",
"911 1432 OFFCURVE",
"721 1432 CURVE SMOOTH",
"430 1432 OFFCURVE",
"145 1399 OFFCURVE",
"65 1372 CURVE",
"65 1292 LINE",
"256 1292 LINE",
"256 86 LINE SMOOTH",
"256 29 OFFCURVE",
"272 6 OFFCURVE",
"334 0 CURVE SMOOTH"
);
}
);
width = 1333;
}
);
leftKerningGroup = B;
rightKerningGroup = E;
unicode = 0045;
},
{
glyphname = F;
layers = (
{
layerId = UUID0;
paths = (
{
closed = 1;
nodes = (
"257 82 LINE",
"257 6 OFFCURVE",
"308 -18 OFFCURVE",
"378 -18 CURVE SMOOTH",
"425 -18 OFFCURVE",
"490 -6 OFFCURVE",
"529 16 CURVE",
"521 55 OFFCURVE",
"492 147 OFFCURVE",
"492 317 CURVE SMOOTH",
"492 664 LINE",
"927 664 LINE SMOOTH",
"992 664 OFFCURVE",
"1021 686 OFFCURVE",
"1021 756 CURVE SMOOTH",
"1021 805 LINE",
"492 805 LINE",
"492 1276 LINE",
"714 1276 LINE SMOOTH",
"998 1274 OFFCURVE",
"1140 1161 OFFCURVE",
"1140 1159 CURVE SMOOTH",
"1154 1176 OFFCURVE",
"1232 1307 OFFCURVE",
"1232 1333 CURVE SMOOTH",
"1232 1425 OFFCURVE",
"912 1432 OFFCURVE",
"722 1432 CURVE SMOOTH",
"431 1432 OFFCURVE",
"146 1399 OFFCURVE",
"66 1372 CURVE",
"66 1292 LINE",
"257 1292 LINE"
);
}
);
width = 1262;
}
);
leftKerningGroup = B;
unicode = 0046;
},
{
glyphname = G;
layers = (
{
layerId = UUID0;
paths = (
{
closed = 1;
nodes = (
"383 1012 OFFCURVE",
"488 1319 OFFCURVE",
"774 1319 CURVE SMOOTH",
"944 1319 OFFCURVE",
"1123 1192 OFFCURVE",
"1211 1143 CURVE",
"1295 1284 LINE SMOOTH",
"1303 1298 OFFCURVE",
"1307 1311 OFFCURVE",
"1307 1323 CURVE SMOOTH",
"1307 1415 OFFCURVE",
"1047 1450 OFFCURVE",
"910 1450 CURVE SMOOTH",
"430 1450 OFFCURVE",
"123 1163 OFFCURVE",
"123 698 CURVE SMOOTH",
"123 240 OFFCURVE",
"426 -39 OFFCURVE",
"844 -39 CURVE SMOOTH",
"1039 -39 OFFCURVE",
"1280 25 OFFCURVE",
"1391 139 CURVE",
"1391 621 LINE SMOOTH",
"1391 672 OFFCURVE",
"1362 672 OFFCURVE",
"1254 672 CURVE SMOOTH",
"1151 672 OFFCURVE",
"998 647 OFFCURVE",
"957 627 CURVE",
"957 547 LINE",
"1164 547 LINE",
"1164 164 LINE",
"1080 117 OFFCURVE",
"975 100 OFFCURVE",
"862 100 CURVE SMOOTH",
"617 100 OFFCURVE",
"383 311 OFFCURVE",
"383 702 CURVE SMOOTH"
);
}
);
width = 1525;
}
);
unicode = 0047;
},
{
glyphname = H;
layers = (
{
layerId = UUID0;
paths = (
{
closed = 1;
nodes = (
"1418 1333 LINE",
"1418 1409 OFFCURVE",
"1367 1432 OFFCURVE",
"1297 1432 CURVE SMOOTH",
"1252 1432 OFFCURVE",
"1191 1421 OFFCURVE",
"1152 1399 CURVE",
"1160 1360 OFFCURVE",
"1183 1278 OFFCURVE",
"1183 1108 CURVE SMOOTH",
"1183 811 LINE",
"492 811 LINE",
"492 1380 LINE SMOOTH",
"492 1438 OFFCURVE",
"458 1432 OFFCURVE",
"406 1432 CURVE SMOOTH",
"361 1432 LINE SMOOTH",
"230 1432 OFFCURVE",
"105 1407 OFFCURVE",
"64 1386 CURVE",
"64 1307 LINE",
"257 1307 LINE",
"257 82 LINE SMOOTH",
"257 6 OFFCURVE",
"308 -18 OFFCURVE",
"378 -18 CURVE SMOOTH",
"423 -18 OFFCURVE",
"484 -6 OFFCURVE",
"523 16 CURVE",
"515 55 OFFCURVE",
"492 145 OFFCURVE",
"492 315 CURVE SMOOTH",
"492 670 LINE",
"1183 670 LINE",
"1183 78 LINE SMOOTH",
"1183 -4 OFFCURVE",
"1244 -18 OFFCURVE",
"1326 -18 CURVE SMOOTH",
"1432 -18 OFFCURVE",
"1559 4 OFFCURVE",
"1607 29 CURVE",
"1607 115 LINE",
"1418 115 LINE"
);
}
);
width = 1675;
}
);
leftKerningGroup = B;
rightKerningGroup = H;
unicode = 0048;
},
{
glyphname = I;
layers = (
{
layerId = UUID0;
paths = (
{
closed = 1;
nodes = (
"257 78 LINE",
"257 -4 OFFCURVE",
"318 -18 OFFCURVE",
"400 -18 CURVE SMOOTH",
"507 -18 OFFCURVE",
"634 4 OFFCURVE",
"681 29 CURVE",
"681 115 LINE",
"492 115 LINE",
"492 1380 LINE SMOOTH",
"492 1427 OFFCURVE",
"468 1432 OFFCURVE",
"361 1432 CURVE SMOOTH",
"230 1432 OFFCURVE",
"105 1407 OFFCURVE",
"64 1386 CURVE",
"64 1307 LINE",
"257 1307 LINE"
);
}
);
width = 751;
}
);
leftKerningGroup = B;
rightKerningGroup = H;
unicode = 0049;
},
{
glyphname = J;
layers = (
{
layerId = UUID0;
paths = (
{
closed = 1;
nodes = (
"494 1380 LINE",
"494 1432 OFFCURVE",
"465 1432 OFFCURVE",
"363 1432 CURVE SMOOTH",
"232 1432 OFFCURVE",
"107 1407 OFFCURVE",
"66 1386 CURVE",
"66 1307 LINE",
"258 1307 LINE",
"258 35 LINE",
"258 -39 LINE SMOOTH",
"258 -156 OFFCURVE",
"246 -332 OFFCURVE",
"140 -332 CURVE SMOOTH",
"78 -332 OFFCURVE",
"-14 -291 OFFCURVE",
"-131 -244 CURVE",
"-196 -418 LINE SMOOTH",
"-198 -424 OFFCURVE",
"-200 -430 OFFCURVE",
"-200 -436 CURVE SMOOTH",
"-200 -494 OFFCURVE",
"-71 -494 OFFCURVE",
"-28 -494 CURVE SMOOTH",
"260 -494 OFFCURVE",
"492 -317 OFFCURVE",
"492 23 CURVE SMOOTH"
);
}
);
width = 699;
}
);
unicode = 004A;
},
{
glyphname = K;
layers = (
{
layerId = UUID0;
paths = (
{
closed = 1;
nodes = (
"992 35 LINE",
"1023 -8 OFFCURVE",
"1047 -18 OFFCURVE",
"1084 -18 CURVE SMOOTH",
"1222 -18 OFFCURVE",
"1346 125 OFFCURVE",
"1400 193 CURVE",
"1353 258 LINE",
"1205 160 LINE",
"767 762 LINE",
"775 791 OFFCURVE",
"1275 1149 OFFCURVE",
"1275 1354 CURVE SMOOTH",
"1275 1401 OFFCURVE",
"1246 1432 OFFCURVE",
"1205 1432 CURVE SMOOTH",
"1189 1432 OFFCURVE",
"1172 1427 OFFCURVE",
"1154 1419 CURVE SMOOTH",
"957 1325 LINE",
"968 1298 OFFCURVE",
"970 1274 OFFCURVE",
"970 1251 CURVE SMOOTH",
"970 1087 OFFCURVE",
"683 858 OFFCURVE",
"572 764 CURVE SMOOTH",
"550 745 OFFCURVE",
"542 729 OFFCURVE",
"542 709 CURVE SMOOTH",
"542 676 OFFCURVE",
"566 647 OFFCURVE",
"566 647 CURVE"
);
},
{
closed = 1;
nodes = (
"492 1380 LINE",
"492 1432 OFFCURVE",
"464 1432 OFFCURVE",
"361 1432 CURVE SMOOTH",
"230 1432 OFFCURVE",
"105 1407 OFFCURVE",
"64 1386 CURVE",
"64 1307 LINE",
"257 1307 LINE",
"257 82 LINE SMOOTH",
"257 6 OFFCURVE",
"308 -18 OFFCURVE",
"378 -18 CURVE SMOOTH",
"423 -18 OFFCURVE",
"484 -6 OFFCURVE",
"523 16 CURVE",
"515 55 OFFCURVE",
"492 145 OFFCURVE",
"492 315 CURVE SMOOTH"
);
}
);
width = 1441;
}
);
leftKerningGroup = B;
unicode = 004B;
},
{
glyphname = L;
layers = (
{
layerId = UUID0;
paths = (
{
closed = 1;
nodes = (
"492 1380 LINE",
"492 1432 OFFCURVE",
"464 1432 OFFCURVE",
"361 1432 CURVE SMOOTH",
"230 1432 OFFCURVE",
"105 1407 OFFCURVE",
"64 1386 CURVE",
"64 1307 LINE",
"257 1307 LINE",
"257 86 LINE SMOOTH",
"257 29 OFFCURVE",
"273 6 OFFCURVE",
"335 0 CURVE SMOOTH",
"402 -6 OFFCURVE",
"595 -12 OFFCURVE",
"777 -12 CURVE SMOOTH",
"1119 -12 OFFCURVE",
"1228 -12 OFFCURVE",
"1228 106 CURVE SMOOTH",
"1228 160 OFFCURVE",
"1205 219 OFFCURVE",
"1207 219 CURVE SMOOTH",
"1035 164 OFFCURVE",
"851 141 OFFCURVE",
"673 141 CURVE SMOOTH",
"492 141 LINE"
);
}
);
width = 1252;
}
);
leftKerningGroup = B;
unicode = 004C;
},
{
glyphname = M;
layers = (
{
layerId = UUID0;
paths = (
{
closed = 1;
nodes = (
"357 43 OFFCURVE",
"271 -23 OFFCURVE",
"175 -23 CURVE SMOOTH",
"140 -23 OFFCURVE",
"115 -8 OFFCURVE",
"101 35 CURVE SMOOTH",
"60 158 LINE",
"89 172 OFFCURVE",
"183 190 OFFCURVE",
"234 268 CURVE SMOOTH",
"306 379 OFFCURVE",
"380 1032 OFFCURVE",
"384 1307 CURVE",
"189 1307 LINE",
"189 1386 LINE",
"224 1405 OFFCURVE",
"361 1432 OFFCURVE",
"443 1432 CURVE SMOOTH",
"552 1432 OFFCURVE",
"597 1427 OFFCURVE",
"630 1378 CURVE",
"830 922 OFFCURVE",
"1045 231 OFFCURVE",
"1045 231 CURVE",
"1240 834 OFFCURVE",
"1404 1296 OFFCURVE",
"1465 1399 CURVE",
"1463 1403 OFFCURVE",
"1563 1432 OFFCURVE",
"1623 1432 CURVE SMOOTH",
"1686 1432 OFFCURVE",
"1699 1407 OFFCURVE",
"1709 1356 CURVE",
"1871 135 LINE",
"2061 164 LINE",
"2079 90 LINE",
"2022 35 OFFCURVE",
"1858 -27 OFFCURVE",
"1746 -27 CURVE SMOOTH",
"1701 -27 OFFCURVE",
"1649 -12 OFFCURVE",
"1641 49 CURVE SMOOTH",
"1516 1075 LINE",
"1148 14 OFFCURVE",
"1103 -2 OFFCURVE",
"1103 0 CURVE",
"994 0 LINE SMOOTH",
"931 0 OFFCURVE",
"900 16 OFFCURVE",
"875 82 CURVE SMOOTH",
"613 780 OFFCURVE",
"531 1071 OFFCURVE",
"531 1071 CURVE",
"511 733 OFFCURVE",
"486 301 OFFCURVE",
"398 123 CURVE SMOOTH"
);
}
);
width = 2110;
}
);
unicode = 004D;
},
{
glyphname = N;
layers = (
{
layerId = UUID0;
paths = (
{
closed = 1;
nodes = (
"1228 328 LINE",
"1221 893 OFFCURVE",
"1195 1257 OFFCURVE",
"1164 1393 CURVE",
"1166 1393 OFFCURVE",
"1185 1401 OFFCURVE",
"1301 1427 CURVE SMOOTH",
"1307 1430 OFFCURVE",
"1320 1432 OFFCURVE",
"1334 1432 CURVE SMOOTH",
"1385 1432 OFFCURVE",
"1387 1380 OFFCURVE",
"1387 1233 CURVE SMOOTH",
"1387 920 OFFCURVE",
"1357 305 OFFCURVE",
"1332 -18 CURVE",
"1240 -18 LINE SMOOTH",
"1199 -18 OFFCURVE",
"1185 -6 OFFCURVE",
"1168 16 CURVE SMOOTH",
"417 1053 LINE",
"441 756 OFFCURVE",
"449 510 OFFCURVE",
"449 352 CURVE SMOOTH",
"449 49 OFFCURVE",
"419 -27 OFFCURVE",
"419 -27 CURVE",
"296 -4 LINE SMOOTH",
"244 6 OFFCURVE",
"216 33 OFFCURVE",
"216 86 CURVE SMOOTH",
"216 100 OFFCURVE",
"218 119 OFFCURVE",
"222 137 CURVE SMOOTH",
"249 262 OFFCURVE",
"267 430 OFFCURVE",
"267 868 CURVE SMOOTH",
"267 1040 OFFCURVE",
"263 1174 OFFCURVE",
"263 1307 CURVE",
"70 1307 LINE",
"70 1386 LINE",
"107 1405 OFFCURVE",
"230 1432 OFFCURVE",
"357 1432 CURVE SMOOTH",
"398 1432 OFFCURVE",
"425 1425 OFFCURVE",
"443 1401 CURVE SMOOTH"
);
}
);
width = 1577;
}
);
leftKerningGroup = N;
rightKerningGroup = N;
unicode = 004E;
},
{
glyphname = O;
layers = (
{
layerId = UUID0;
paths = (
{
closed = 1;
nodes = (
"391 1034 OFFCURVE",
"502 1323 OFFCURVE",
"807 1323 CURVE SMOOTH",
"1112 1323 OFFCURVE",
"1221 1044 OFFCURVE",
"1221 705 CURVE SMOOTH",
"1221 346 OFFCURVE",
"1108 88 OFFCURVE",
"807 88 CURVE SMOOTH",
"502 88 OFFCURVE",
"391 344 OFFCURVE",
"391 705 CURVE SMOOTH"
);
},
{
closed = 1;
nodes = (
"1481 1145 OFFCURVE",
"1229 1450 OFFCURVE",
"807 1450 CURVE SMOOTH",
"385 1450 OFFCURVE",
"131 1145 OFFCURVE",
"131 705 CURVE SMOOTH",
"131 264 OFFCURVE",
"385 -39 OFFCURVE",
"807 -39 CURVE SMOOTH",
"1229 -39 OFFCURVE",
"1481 264 OFFCURVE",
"1481 705 CURVE SMOOTH"
);
}
);
width = 1612;
}
);
leftKerningGroup = C;
rightKerningGroup = O;
unicode = 004F;
},
{
glyphname = Oslash;
layers = (
{
layerId = UUID0;
paths = (
{
closed = 1;
nodes = (
"1221 1459 LINE",
"1226 1473 OFFCURVE",
"1228 1485 OFFCURVE",
"1228 1492 CURVE SMOOTH",
"1228 1527 OFFCURVE",
"1193 1536 OFFCURVE",
"1145 1536 CURVE SMOOTH",
"1082 1536 LINE",
"1031 1417 LINE",
"962 1438 OFFCURVE",
"887 1450 OFFCURVE",
"806 1450 CURVE SMOOTH",
"384 1450 OFFCURVE",
"130 1145 OFFCURVE",
"130 705 CURVE SMOOTH",
"130 410 OFFCURVE",
"243 178 OFFCURVE",
"444 55 CURVE",
"394 -60 LINE",
"388 -71 OFFCURVE",
"386 -81 OFFCURVE",
"386 -89 CURVE SMOOTH",
"386 -121 OFFCURVE",
"419 -137 OFFCURVE",
"467 -137 CURVE SMOOTH",
"533 -137 LINE",
"588 -8 LINE",
"655 -28 OFFCURVE",
"727 -39 OFFCURVE",
"806 -39 CURVE SMOOTH",
"1228 -39 OFFCURVE",
"1480 264 OFFCURVE",
"1480 705 CURVE SMOOTH",
"1480 995 OFFCURVE",
"1370 1226 OFFCURVE",
"1174 1350 CURVE"
);
},
{
closed = 1;
nodes = (
"390 1034 OFFCURVE",
"501 1323 OFFCURVE",
"806 1323 CURVE SMOOTH",
"871 1323 OFFCURVE",
"927 1310 OFFCURVE",
"975 1287 CURVE",
"514 217 LINE",
"426 327 OFFCURVE",
"390 499 OFFCURVE",
"390 705 CURVE SMOOTH"
);
},
{
closed = 1;
nodes = (
"1220 346 OFFCURVE",
"1107 88 OFFCURVE",
"806 88 CURVE SMOOTH",
"744 88 OFFCURVE",
"689 98 OFFCURVE",
"643 118 CURVE",
"1101 1181 LINE",
"1185 1067 OFFCURVE",
"1220 895 OFFCURVE",
"1220 705 CURVE SMOOTH"
);
}
);
width = 1610;
}
);
leftKerningGroup = C;
rightKerningGroup = O;
unicode = 00D8;
},
{
glyphname = OE;
layers = (
{
layerId = UUID0;
paths = (
{
closed = 1;
nodes = (
"1345 -6 OFFCURVE",
"1527 -12 OFFCURVE",
"1701 -12 CURVE SMOOTH",
"2051 -12 OFFCURVE",
"2131 -14 OFFCURVE",
"2131 131 CURVE SMOOTH",
"2131 176 OFFCURVE",
"2113 219 OFFCURVE",
"2113 219 CURVE",
"1947 164 OFFCURVE",
"1771 141 OFFCURVE",
"1598 141 CURVE SMOOTH",
"1439 141 LINE",
"1439 659 LINE",
"1832 659 LINE SMOOTH",
"1897 659 OFFCURVE",
"1926 682 OFFCURVE",
"1926 752 CURVE SMOOTH",
"1926 801 LINE",
"1439 801 LINE",
"1439 1270 LINE",
"1639 1270 LINE SMOOTH",
"1910 1270 OFFCURVE",
"2045 1151 OFFCURVE",
"2045 1151 CURVE",
"2059 1167 OFFCURVE",
"2137 1298 OFFCURVE",
"2137 1325 CURVE SMOOTH",
"2137 1415 OFFCURVE",
"1830 1423 OFFCURVE",
"1648 1423 CURVE SMOOTH",
"1486 1423 OFFCURVE",
"1324 1413 OFFCURVE",
"1203 1399 CURVE",
"1203 1307 LINE",
"1097 1397 OFFCURVE",
"955 1450 OFFCURVE",
"787 1450 CURVE SMOOTH",
"378 1450 OFFCURVE",
"132 1145 OFFCURVE",
"132 705 CURVE SMOOTH",
"132 264 OFFCURVE",
"378 -39 OFFCURVE",
"787 -39 CURVE SMOOTH",
"955 -39 OFFCURVE",
"1097 12 OFFCURVE",
"1203 104 CURVE",
"1203 86 LINE SMOOTH",
"1203 29 OFFCURVE",
"1220 6 OFFCURVE",
"1281 0 CURVE SMOOTH"
);
},
{
closed = 1;
nodes = (
"392 1034 OFFCURVE",
"497 1323 OFFCURVE",
"787 1323 CURVE SMOOTH",
"1078 1323 OFFCURVE",
"1201 1044 OFFCURVE",
"1201 705 CURVE SMOOTH",
"1201 346 OFFCURVE",
"1074 88 OFFCURVE",
"787 88 CURVE SMOOTH",
"497 88 OFFCURVE",
"392 344 OFFCURVE",
"392 705 CURVE SMOOTH"
);
}
);
width = 2239;
}
);
leftKerningGroup = C;
rightKerningGroup = E;
unicode = 0152;
},
{
glyphname = P;
layers = (
{
layerId = UUID0;
paths = (
{
closed = 1;
nodes = (
"494 1290 LINE",
"550 1298 OFFCURVE",
"609 1300 OFFCURVE",
"658 1300 CURVE SMOOTH",
"976 1300 OFFCURVE",
"1013 1151 OFFCURVE",
"1013 981 CURVE SMOOTH",
"1013 827 OFFCURVE",
"951 680 OFFCURVE",
"677 680 CURVE SMOOTH",
"558 680 OFFCURVE",
"494 702 OFFCURVE",
"494 702 CURVE"
);
},
{
closed = 1;
nodes = (
"494 561 LINE",
"611 551 OFFCURVE",
"724 551 OFFCURVE",
"757 551 CURVE SMOOTH",
"1064 551 OFFCURVE",
"1252 711 OFFCURVE",
"1252 981 CURVE SMOOTH",
"1252 1343 OFFCURVE",
"1000 1432 OFFCURVE",
"697 1432 CURVE SMOOTH",
"308 1432 OFFCURVE",
"118 1374 OFFCURVE",
"66 1356 CURVE",
"66 1268 LINE",
"259 1280 LINE",
"259 82 LINE SMOOTH",
"259 6 OFFCURVE",
"310 -18 OFFCURVE",
"380 -18 CURVE SMOOTH",
"427 -18 OFFCURVE",
"492 -6 OFFCURVE",
"531 16 CURVE",
"523 55 OFFCURVE",
"494 145 OFFCURVE",
"494 315 CURVE SMOOTH"
);
}
);
width = 1333;
}
);
leftKerningGroup = B;
unicode = 0050;
},
{
glyphname = Thorn;
layers = (
{
layerId = UUID0;
paths = (
{
closed = 1;
nodes = (
"257 362 LINE",
"257 82 LINE SMOOTH",
"259 6 OFFCURVE",
"310 -18 OFFCURVE",
"380 -18 CURVE SMOOTH",
"427 -18 OFFCURVE",
"492 -6 OFFCURVE",
"531 16 CURVE",
"523 55 OFFCURVE",
"494 100 OFFCURVE",
"494 309 CURVE",
"607 299 OFFCURVE",
"720 299 OFFCURVE",
"752 299 CURVE SMOOTH",
"1064 299 OFFCURVE",
"1248 459 OFFCURVE",
"1248 729 CURVE SMOOTH",
"1248 1092 OFFCURVE",
"998 1180 OFFCURVE",
"693 1180 CURVE SMOOTH",
"615 1180 OFFCURVE",
"550 1176 OFFCURVE",
"492 1174 CURVE",
"492 1380 LINE SMOOTH",
"492 1432 OFFCURVE",
"464 1432 OFFCURVE",
"361 1432 CURVE SMOOTH",
"230 1432 OFFCURVE",
"105 1407 OFFCURVE",
"64 1386 CURVE",
"64 1307 LINE",
"257 1307 LINE"
);
},
{
closed = 1;
nodes = (
"1008 573 OFFCURVE",
"947 428 OFFCURVE",
"668 428 CURVE SMOOTH",
"568 428 OFFCURVE",
"509 444 OFFCURVE",
"494 449 CURVE",
"492 449 LINE",
"492 1038 LINE",
"547 1047 OFFCURVE",
"607 1049 OFFCURVE",
"654 1049 CURVE SMOOTH",
"896 1049 OFFCURVE",
"1008 967 OFFCURVE",
"1008 729 CURVE SMOOTH"
);
}
);
width = 1335;
}
);
leftKerningGroup = B;
unicode = 00DE;
},
{
glyphname = Q;
layers = (
{
layerId = UUID0;
paths = (
{
closed = 1;
nodes = (
"1479 1190 OFFCURVE",
"1184 1450 OFFCURVE",
"807 1450 CURVE SMOOTH",
"430 1450 OFFCURVE",
"133 1190 OFFCURVE",
"133 705 CURVE SMOOTH",
"133 242 OFFCURVE",
"391 2 OFFCURVE",
"731 -35 CURVE",
"870 -252 OFFCURVE",
"1004 -356 OFFCURVE",
"1221 -356 CURVE SMOOTH",
"1376 -356 OFFCURVE",
"1556 -207 OFFCURVE",
"1554 -205 CURVE SMOOTH",
"1505 -125 LINE",
"1489 -133 OFFCURVE",
"1348 -217 OFFCURVE",
"1257 -217 CURVE SMOOTH",
"1153 -217 OFFCURVE",
"1053 -109 OFFCURVE",
"985 -16 CURVE",
"1272 47 OFFCURVE",
"1479 291 OFFCURVE",
"1479 705 CURVE SMOOTH"
);
},
{
closed = 1;
nodes = (
"393 1063 OFFCURVE",
"524 1325 OFFCURVE",
"807 1325 CURVE SMOOTH",
"1090 1325 OFFCURVE",
"1219 1071 OFFCURVE",
"1219 705 CURVE SMOOTH",
"1219 313 OFFCURVE",
"1087 84 OFFCURVE",
"807 84 CURVE SMOOTH",
"524 84 OFFCURVE",
"393 313 OFFCURVE",
"393 705 CURVE SMOOTH"
);
}
);
width = 1612;
}
);
leftKerningGroup = C;
rightKerningGroup = O;
unicode = 0051;
},
{
glyphname = R;
layers = (
{
layerId = UUID0;
paths = (
{
closed = 1;
nodes = (
"494 1290 LINE",
"550 1298 OFFCURVE",
"609 1300 OFFCURVE",
"658 1300 CURVE SMOOTH",
"976 1300 OFFCURVE",
"1013 1151 OFFCURVE",
"1013 981 CURVE SMOOTH",
"1013 827 OFFCURVE",
"951 680 OFFCURVE",
"677 680 CURVE SMOOTH",
"558 680 OFFCURVE",
"494 702 OFFCURVE",
"494 702 CURVE"
);
},
{
closed = 1;
nodes = (
"986 588 LINE",
"1158 649 OFFCURVE",
"1252 786 OFFCURVE",
"1252 981 CURVE SMOOTH",
"1252 1343 OFFCURVE",
"1000 1432 OFFCURVE",
"697 1432 CURVE SMOOTH",
"226 1432 OFFCURVE",
"118 1374 OFFCURVE",
"66 1356 CURVE",
"66 1268 LINE",
"259 1280 LINE",
"259 82 LINE SMOOTH",
"259 6 OFFCURVE",
"310 -18 OFFCURVE",
"380 -18 CURVE SMOOTH",
"427 -18 OFFCURVE",
"492 -6 OFFCURVE",
"531 16 CURVE",
"523 55 OFFCURVE",
"494 145 OFFCURVE",
"494 315 CURVE SMOOTH",
"494 561 LINE",
"611 551 OFFCURVE",
"724 551 OFFCURVE",
"757 551 CURVE",
"1068 51 LINE SMOOTH",
"1101 -2 OFFCURVE",
"1142 -18 OFFCURVE",
"1181 -18 CURVE SMOOTH",
"1295 -18 OFFCURVE",
"1426 113 OFFCURVE",
"1486 197 CURVE",
"1437 264 LINE",
"1275 158 LINE"
);
}
);
width = 1499;
}
);
leftKerningGroup = B;
unicode = 0052;
},
{
glyphname = S;
layers = (
{
layerId = UUID0;
paths = (
{
closed = 1;
nodes = (
"507 911 OFFCURVE",
"384 985 OFFCURVE",
"384 1106 CURVE SMOOTH",
"384 1247 OFFCURVE",
"484 1317 OFFCURVE",
"597 1317 CURVE SMOOTH",
"756 1317 OFFCURVE",
"888 1229 OFFCURVE",
"1006 1161 CURVE",
"1086 1298 LINE SMOOTH",
"1094 1313 OFFCURVE",
"1098 1325 OFFCURVE",
"1098 1337 CURVE SMOOTH",
"1098 1425 OFFCURVE",
"842 1450 OFFCURVE",
"730 1450 CURVE SMOOTH",
"474 1450 OFFCURVE",
"154 1362 OFFCURVE",
"154 1067 CURVE SMOOTH",
"154 936 OFFCURVE",
"214 795 OFFCURVE",
"537 659 CURVE SMOOTH",
"732 578 OFFCURVE",
"924 471 OFFCURVE",
"924 303 CURVE SMOOTH",
"924 172 OFFCURVE",
"806 90 OFFCURVE",
"685 90 CURVE SMOOTH",
"541 90 OFFCURVE",
"349 246 OFFCURVE",
"222 348 CURVE",
"120 227 LINE SMOOTH",
"109 215 OFFCURVE",
"105 203 OFFCURVE",
"105 190 CURVE SMOOTH",
"105 156 OFFCURVE",
"140 123 OFFCURVE",
"169 104 CURVE SMOOTH",
"322 2 OFFCURVE",
"502 -39 OFFCURVE",
"675 -39 CURVE SMOOTH",
"935 -39 OFFCURVE",
"1158 113 OFFCURVE",
"1158 373 CURVE SMOOTH",
"1158 637 OFFCURVE",
"881 752 OFFCURVE",
"640 854 CURVE SMOOTH"
);
}
);
width = 1267;
}
);
unicode = 0053;
},
{
glyphname = T;
layers = (
{
layerId = UUID0;
paths = (
{
closed = 1;
nodes = (
"567 82 LINE",
"567 6 OFFCURVE",
"618 -18 OFFCURVE",
"688 -18 CURVE SMOOTH",
"733 -18 OFFCURVE",
"794 -6 OFFCURVE",
"833 16 CURVE",
"825 55 OFFCURVE",
"803 145 OFFCURVE",
"803 315 CURVE SMOOTH",
"803 1272 LINE",
"878 1270 OFFCURVE",
"981 1266 OFFCURVE",
"1132 1266 CURVE SMOOTH",
"1241 1266 OFFCURVE",
"1341 1268 OFFCURVE",
"1341 1335 CURVE SMOOTH",
"1341 1391 OFFCURVE",
"1323 1444 OFFCURVE",
"1323 1446 CURVE SMOOTH",
"1323 1446 OFFCURVE",
"1323 1446 OFFCURVE",
"1325 1446 CURVE",
"1056 1411 OFFCURVE",
"813 1413 OFFCURVE",
"690 1413 CURVE SMOOTH",
"594 1413 OFFCURVE",
"491 1413 OFFCURVE",
"397 1413 CURVE SMOOTH",
"190 1413 OFFCURVE",
"22 1430 OFFCURVE",
"22 1341 CURVE SMOOTH",
"22 1298 OFFCURVE",
"43 1217 OFFCURVE",
"41 1219 CURVE",
"114 1229 OFFCURVE",
"317 1272 OFFCURVE",
"567 1272 CURVE"
);
}
);
width = 1353;
}
);
unicode = 0054;
},
{
glyphname = U;
layers = (
{
layerId = UUID0;
paths = (
{
closed = 1;
nodes = (
"1426 1333 LINE",
"1426 1411 OFFCURVE",
"1377 1432 OFFCURVE",
"1324 1432 CURVE SMOOTH",
"1289 1432 OFFCURVE",
"1236 1423 OFFCURVE",
"1209 1403 CURVE",
"1215 1366 OFFCURVE",
"1238 1280 OFFCURVE",
"1238 1114 CURVE SMOOTH",
"1238 547 LINE SMOOTH",
"1238 336 OFFCURVE",
"1154 86 OFFCURVE",
"857 86 CURVE SMOOTH",
"570 86 OFFCURVE",
"478 336 OFFCURVE",
"478 543 CURVE SMOOTH",
"478 1380 LINE SMOOTH",
"478 1432 OFFCURVE",
"456 1432 OFFCURVE",
"347 1432 CURVE SMOOTH",
"216 1432 OFFCURVE",
"91 1403 OFFCURVE",
"50 1386 CURVE",
"50 1307 LINE",
"245 1307 LINE",
"245 547 LINE SMOOTH",
"245 164 OFFCURVE",
"470 -39 OFFCURVE",
"857 -39 CURVE SMOOTH",
"1164 -39 OFFCURVE",
"1426 162 OFFCURVE",
"1426 545 CURVE SMOOTH"
);
}
);
width = 1613;
}
);
leftKerningGroup = U;
rightKerningGroup = U;
unicode = 0055;
},
{
glyphname = V;
layers = (
{
layerId = UUID0;
paths = (
{
closed = 1;
nodes = (
"875 213 LINE",
"888 213 LINE",
"1039 545 OFFCURVE",
"1170 778 OFFCURVE",
"1170 1057 CURVE SMOOTH",
"1170 1149 OFFCURVE",
"1156 1245 OFFCURVE",
"1123 1352 CURVE",
"1285 1421 LINE SMOOTH",
"1303 1430 OFFCURVE",
"1318 1432 OFFCURVE",
"1332 1432 CURVE SMOOTH",
"1381 1432 OFFCURVE",
"1412 1382 OFFCURVE",
"1412 1307 CURVE SMOOTH",
"1412 1085 OFFCURVE",
"1203 504 OFFCURVE",
"910 -18 CURVE",
"808 -18 LINE SMOOTH",
"744 -18 OFFCURVE",
"716 0 OFFCURVE",
"689 63 CURVE SMOOTH",
"177 1255 LINE",
"3 1176 LINE",
"-30 1247 LINE",
"36 1309 OFFCURVE",
"214 1432 OFFCURVE",
"304 1432 CURVE SMOOTH",
"339 1432 OFFCURVE",
"367 1415 OFFCURVE",
"388 1368 CURVE SMOOTH"
);
}
);
width = 1536;
}
);
unicode = 0056;
},
{
glyphname = W;
layers = (
{
layerId = UUID0;
paths = (
{
closed = 1;
nodes = (
"1253 1339 LINE",
"1226 1417 OFFCURVE",
"1189 1432 OFFCURVE",
"1118 1432 CURVE SMOOTH",
"1073 1432 OFFCURVE",
"1005 1419 OFFCURVE",
"960 1380 CURVE",
"979 1352 OFFCURVE",
"1022 1284 OFFCURVE",
"1075 1124 CURVE SMOOTH",
"1083 1098 LINE",
"1044 913 OFFCURVE",
"956 528 OFFCURVE",
"829 231 CURVE",
"817 231 LINE",
"399 1362 LINE SMOOTH",
"381 1413 OFFCURVE",
"335 1432 OFFCURVE",
"294 1432 CURVE SMOOTH",
"202 1432 OFFCURVE",
"45 1303 OFFCURVE",
"-21 1241 CURVE",
"12 1169 LINE",
"188 1247 LINE",
"618 82 LINE SMOOTH",
"643 16 OFFCURVE",
"673 0 OFFCURVE",
"737 0 CURVE SMOOTH",
"864 0 LINE",
"987 240 OFFCURVE",
"1134 627 OFFCURVE",
"1181 838 CURVE",
"1452 82 LINE SMOOTH",
"1474 16 OFFCURVE",
"1507 0 OFFCURVE",
"1570 0 CURVE SMOOTH",
"1691 0 LINE",
"1935 514 OFFCURVE",
"2127 1085 OFFCURVE",
"2127 1305 CURVE SMOOTH",
"2127 1382 OFFCURVE",
"2099 1432 OFFCURVE",
"2050 1432 CURVE SMOOTH",
"2035 1432 OFFCURVE",
"2021 1430 OFFCURVE",
"2003 1421 CURVE SMOOTH",
"1841 1352 LINE",
"1859 1292 OFFCURVE",
"1892 1192 OFFCURVE",
"1892 1073 CURVE SMOOTH",
"1892 1008 OFFCURVE",
"1886 915 OFFCURVE",
"1661 231 CURVE",
"1648 231 LINE"
);
}
);
width = 2263;
}
);
unicode = 0057;
},
{
glyphname = X;
layers = (
{
layerId = UUID0;
paths = (
{
closed = 1;
nodes = (
"1054 51 LINE",
"1089 0 OFFCURVE",
"1130 -18 OFFCURVE",
"1166 -18 CURVE SMOOTH",
"1267 -18 OFFCURVE",
"1408 111 OFFCURVE",
"1474 207 CURVE",
"1422 272 LINE",
"1271 164 LINE",
"855 758 LINE",
"910 817 OFFCURVE",
"1070 991 OFFCURVE",
"1191 1141 CURVE SMOOTH",
"1242 1204 OFFCURVE",
"1275 1270 OFFCURVE",
"1275 1327 CURVE SMOOTH",
"1275 1378 OFFCURVE",
"1252 1432 OFFCURVE",
"1203 1432 CURVE SMOOTH",
"1189 1432 OFFCURVE",
"1171 1427 OFFCURVE",
"1152 1419 CURVE SMOOTH",
"992 1350 LINE",
"1005 1315 OFFCURVE",
"1009 1284 OFFCURVE",
"1009 1257 CURVE SMOOTH",
"1009 1184 OFFCURVE",
"980 1141 OFFCURVE",
"788 862 CURVE",
"458 1360 LINE SMOOTH",
"417 1419 OFFCURVE",
"380 1438 OFFCURVE",
"345 1438 CURVE SMOOTH",
"269 1438 OFFCURVE",
"114 1292 OFFCURVE",
"42 1212 CURVE",
"93 1149 LINE",
"241 1253 LINE",
"616 688 LINE",
"466 535 OFFCURVE",
"165 242 OFFCURVE",
"165 59 CURVE SMOOTH",
"165 12 OFFCURVE",
"196 -16 OFFCURVE",
"233 -18 CURVE SMOOTH",
"249 -18 OFFCURVE",
"265 -14 OFFCURVE",
"286 -6 CURVE SMOOTH",
"446 66 LINE",
"439 86 OFFCURVE",
"437 104 OFFCURVE",
"437 123 CURVE SMOOTH",
"437 287 OFFCURVE",
"603 461 OFFCURVE",
"685 582 CURVE"
);
}
);
width = 1519;
}
);
unicode = 0058;
},
{
glyphname = Y;
layers = (
{
layerId = UUID0;
paths = (
{
closed = 1;
nodes = (
"862 145 OFFCURVE",
"870 90 OFFCURVE",
"893 16 CURVE",
"854 -6 OFFCURVE",
"792 -18 OFFCURVE",
"747 -18 CURVE SMOOTH",
"678 -18 OFFCURVE",
"627 6 OFFCURVE",
"627 82 CURVE SMOOTH",
"627 500 LINE",
"172 1253 LINE",
"-4 1176 LINE",
"-37 1247 LINE",
"26 1307 OFFCURVE",
"196 1432 OFFCURVE",
"287 1432 CURVE SMOOTH",
"317 1432 OFFCURVE",
"348 1415 OFFCURVE",
"377 1370 CURVE SMOOTH",
"801 672 LINE",
"805 672 LINE",
"901 840 OFFCURVE",
"1007 1008 OFFCURVE",
"1007 1182 CURVE SMOOTH",
"1007 1239 OFFCURVE",
"991 1296 OFFCURVE",
"967 1354 CURVE",
"1124 1421 LINE SMOOTH",
"1143 1430 OFFCURVE",
"1157 1432 OFFCURVE",
"1171 1432 CURVE SMOOTH",
"1223 1432 OFFCURVE",
"1247 1386 OFFCURVE",
"1247 1317 CURVE SMOOTH",
"1247 1126 OFFCURVE",
"1069 842 OFFCURVE",
"862 532 CURVE"
);
}
);
width = 1352;
}
);
leftKerningGroup = Y;
rightKerningGroup = Y;
unicode = 0059;
},
{
glyphname = Z;
layers = (
{
layerId = UUID0;
paths = (
{
closed = 1;
nodes = (
"938 1425 OFFCURVE",
"794 1432 OFFCURVE",
"657 1432 CURVE SMOOTH",
"417 1432 OFFCURVE",
"124 1421 OFFCURVE",
"124 1331 CURVE SMOOTH",
"124 1305 OFFCURVE",
"204 1174 OFFCURVE",
"219 1157 CURVE",
"219 1159 OFFCURVE",
"360 1272 OFFCURVE",
"645 1274 CURVE SMOOTH",
"882 1274 LINE",
"92 121 LINE",
"92 86 LINE SMOOTH",
"92 29 OFFCURVE",
"108 10 OFFCURVE",
"170 0 CURVE SMOOTH",
"231 -10 OFFCURVE",
"426 -14 OFFCURVE",
"622 -14 CURVE SMOOTH",
"981 -14 OFFCURVE",
"1173 -33 OFFCURVE",
"1173 106 CURVE SMOOTH",
"1173 160 OFFCURVE",
"1150 219 OFFCURVE",
"1153 219 CURVE SMOOTH",
"981 164 OFFCURVE",
"686 141 OFFCURVE",
"507 141 CURVE SMOOTH",
"360 141 LINE",
"1173 1307 LINE",
"1173 1348 LINE SMOOTH",
"1173 1405 OFFCURVE",
"1114 1415 OFFCURVE",
"1069 1417 CURVE SMOOTH"
);
}
);
width = 1287;
}
);
unicode = 005A;
},
{
glyphname = a;
layers = (
{
layerId = UUID0;
paths = (
{
closed = 1;
nodes = (
"776 78 LINE",
"780 -6 OFFCURVE",
"854 -18 OFFCURVE",
"919 -18 CURVE SMOOTH",
"1016 -18 OFFCURVE",
"1137 0 OFFCURVE",
"1182 25 CURVE",
"1182 100 LINE",
"1008 100 LINE",
"1008 657 LINE SMOOTH",
"1008 944 OFFCURVE",
"803 1055 OFFCURVE",
"557 1055 CURVE SMOOTH",
"393 1055 OFFCURVE",
"143 995 OFFCURVE",
"143 907 CURVE SMOOTH",
"143 895 OFFCURVE",
"147 883 OFFCURVE",
"158 870 CURVE SMOOTH",
"240 760 LINE",
"340 840 OFFCURVE",
"483 950 OFFCURVE",
"618 950 CURVE SMOOTH",
"760 950 OFFCURVE",
"776 813 OFFCURVE",
"776 657 CURVE SMOOTH",
"776 582 LINE",
"635 582 LINE SMOOTH",
"332 582 OFFCURVE",
"117 498 OFFCURVE",
"117 268 CURVE SMOOTH",
"117 61 OFFCURVE",
"268 -31 OFFCURVE",
"442 -31 CURVE SMOOTH",
"606 -31 OFFCURVE",
"776 90 OFFCURVE",
"776 88 CURVE"
);
},
{
closed = 1;
nodes = (
"405 117 OFFCURVE",
"346 184 OFFCURVE",
"346 279 CURVE SMOOTH",
"346 430 OFFCURVE",
"508 459 OFFCURVE",
"608 459 CURVE SMOOTH",
"776 459 LINE",
"776 178 LINE",
"776 178 OFFCURVE",
"606 117 OFFCURVE",
"512 117 CURVE SMOOTH"
);
}
);
width = 1216;
}
);
leftKerningGroup = a;
rightKerningGroup = a;
unicode = 0061;
},
{
glyphname = ae;
layers = (
{
layerId = UUID0;
paths = (
{
closed = 1;
nodes = (
"737 1040 OFFCURVE",
"659 1055 OFFCURVE",
"565 1055 CURVE SMOOTH",
"430 1055 OFFCURVE",
"143 1014 OFFCURVE",
"143 911 CURVE SMOOTH",
"143 899 OFFCURVE",
"147 887 OFFCURVE",
"158 874 CURVE SMOOTH",
"240 764 LINE",
"240 770 OFFCURVE",
"491 954 OFFCURVE",
"618 954 CURVE SMOOTH",
"760 954 OFFCURVE",
"776 813 OFFCURVE",
"776 657 CURVE SMOOTH",
"776 582 LINE",
"635 582 LINE SMOOTH",
"332 582 OFFCURVE",
"117 498 OFFCURVE",
"117 268 CURVE SMOOTH",
"117 57 OFFCURVE",
"272 -31 OFFCURVE",
"448 -31 CURVE SMOOTH",
"620 -31 OFFCURVE",
"784 68 OFFCURVE",
"881 137 CURVE",
"991 23 OFFCURVE",
"1149 -31 OFFCURVE",
"1315 -31 CURVE SMOOTH",
"1448 -31 OFFCURVE",
"1595 0 OFFCURVE",
"1704 74 CURVE",
"1671 141 LINE",
"1581 113 OFFCURVE",
"1495 98 OFFCURVE",
"1417 98 CURVE SMOOTH",
"1231 98 OFFCURVE",
"1085 174 OFFCURVE",
"1016 322 CURVE",
"1016 459 LINE",
"1573 457 LINE SMOOTH",
"1706 457 OFFCURVE",
"1730 569 OFFCURVE",
"1730 664 CURVE SMOOTH",
"1730 870 OFFCURVE",
"1571 1055 OFFCURVE",
"1304 1055 CURVE SMOOTH",
"1155 1055 OFFCURVE",
"1024 1006 OFFCURVE",
"924 924 CURVE",
"887 967 OFFCURVE",
"840 997 OFFCURVE",
"790 1018 CURVE SMOOTH"
);
},
{
closed = 1;
nodes = (
"1012 580 LINE",
"1012 799 LINE",
"1053 885 OFFCURVE",
"1130 944 OFFCURVE",
"1251 944 CURVE SMOOTH",
"1413 944 OFFCURVE",
"1501 795 OFFCURVE",
"1501 662 CURVE SMOOTH",
"1501 633 OFFCURVE",
"1499 606 OFFCURVE",
"1491 580 CURVE"
);
},
{
closed = 1;
nodes = (
"407 117 OFFCURVE",
"346 182 OFFCURVE",
"346 285 CURVE SMOOTH",
"346 428 OFFCURVE",
"506 459 OFFCURVE",
"608 459 CURVE SMOOTH",
"776 459 LINE",
"776 178 LINE",
"776 178 OFFCURVE",
"598 119 OFFCURVE",
"522 117 CURVE"
);
}
);
width = 1845;
}
);
leftKerningGroup = a;
rightKerningGroup = e;
unicode = 00E6;
},
{
glyphname = b;
layers = (
{
layerId = UUID0;
paths = (
{
closed = 1;
nodes = (
"925 934 OFFCURVE",
"983 784 OFFCURVE",
"983 555 CURVE SMOOTH",
"983 260 OFFCURVE",
"878 80 OFFCURVE",
"663 80 CURVE SMOOTH",
"557 80 OFFCURVE",
"440 111 OFFCURVE",
"440 113 CURVE",
"440 836 LINE",
"538 889 OFFCURVE",
"651 934 OFFCURVE",
"762 934 CURVE SMOOTH"
);
},
{
closed = 1;
nodes = (
"440 1483 LINE",
"440 1536 OFFCURVE",
"409 1536 OFFCURVE",
"354 1536 CURVE",
"250 1536 OFFCURVE",
"88 1520 OFFCURVE",
"32 1495 CURVE",
"32 1419 LINE",
"209 1419 LINE",
"209 74 LINE",
"313 29 OFFCURVE",
"485 -31 OFFCURVE",
"671 -31 CURVE SMOOTH",
"1003 -31 OFFCURVE",
"1231 211 OFFCURVE",
"1231 539 CURVE SMOOTH",
"1231 825 OFFCURVE",
"1101 1055 OFFCURVE",
"796 1055 CURVE SMOOTH",
"673 1055 OFFCURVE",
"538 997 OFFCURVE",
"440 932 CURVE"
);
}
);
width = 1351;
}
);
rightKerningGroup = b;
unicode = 0062;
},
{
glyphname = c;
layers = (
{
layerId = UUID0;
paths = (
{
closed = 1;
nodes = (
"1001 944 LINE",
"1006 950 OFFCURVE",
"1006 958 OFFCURVE",
"1006 965 CURVE SMOOTH",
"1006 1040 OFFCURVE",
"764 1055 OFFCURVE",
"723 1055 CURVE SMOOTH",
"375 1055 OFFCURVE",
"113 844 OFFCURVE",
"113 494 CURVE SMOOTH",
"113 156 OFFCURVE",
"391 -31 OFFCURVE",
"682 -31 CURVE SMOOTH",
"815 -31 OFFCURVE",
"965 0 OFFCURVE",
"1075 74 CURVE",
"1042 141 LINE",
"950 113 OFFCURVE",
"862 98 OFFCURVE",
"780 98 CURVE SMOOTH",
"481 98 OFFCURVE",
"344 307 OFFCURVE",
"344 569 CURVE SMOOTH",
"344 737 OFFCURVE",
"416 936 OFFCURVE",
"596 936 CURVE SMOOTH",
"713 936 OFFCURVE",
"842 862 OFFCURVE",
"930 811 CURVE"
);
}
);
width = 1138;
}
);
leftKerningGroup = c;
rightKerningGroup = c;
unicode = 0063;
},
{
glyphname = d;
layers = (
{
layerId = UUID0;
paths = (
{
closed = 1;
nodes = (
"912 211 LINE",
"840 139 OFFCURVE",
"736 92 OFFCURVE",
"636 92 CURVE SMOOTH",
"466 92 OFFCURVE",
"369 242 OFFCURVE",
"369 500 CURVE SMOOTH",
"369 754 OFFCURVE",
"441 932 OFFCURVE",
"623 932 CURVE SMOOTH",
"752 932 OFFCURVE",
"832 887 OFFCURVE",
"912 844 CURVE"
);
},
{
closed = 1;
nodes = (
"912 950 LINE",
"810 1024 OFFCURVE",
"691 1055 OFFCURVE",
"574 1055 CURVE SMOOTH",
"269 1055 OFFCURVE",
"122 834 OFFCURVE",
"122 508 CURVE SMOOTH",
"122 213 OFFCURVE",
"302 -31 OFFCURVE",
"582 -31 CURVE SMOOTH",
"759 -31 OFFCURVE",
"886 76 OFFCURVE",
"912 94 CURVE",
"912 78 LINE SMOOTH",
"912 -4 OFFCURVE",
"974 -18 OFFCURVE",
"1056 -18 CURVE SMOOTH",
"1152 -18 OFFCURVE",
"1273 0 OFFCURVE",
"1318 25 CURVE",
"1318 100 LINE",
"1144 100 LINE",
"1144 1483 LINE SMOOTH",
"1144 1536 OFFCURVE",
"1113 1536 OFFCURVE",
"1058 1536 CURVE",
"953 1536 OFFCURVE",
"791 1520 OFFCURVE",
"736 1495 CURVE",
"736 1419 LINE",
"912 1419 LINE"
);
}
);
width = 1385;
}
);
unicode = 0064;
},
{
glyphname = eth;
layers = (
{
layerId = UUID0;
paths = (
{
closed = 1;
nodes = (
"1079 1421 LINE",
"1111 1440 OFFCURVE",
"1120 1456 OFFCURVE",
"1099 1497 CURVE SMOOTH",
"1081 1536 LINE",
"804 1380 LINE",
"681 1456 OFFCURVE",
"526 1505 OFFCURVE",
"335 1518 CURVE",
"321 1423 LINE",
"440 1405 OFFCURVE",
"556 1362 OFFCURVE",
"655 1296 CURVE",
"456 1184 LINE SMOOTH",
"421 1163 OFFCURVE",
"411 1143 OFFCURVE",
"433 1104 CURVE SMOOTH",
"456 1065 LINE",
"741 1227 LINE",
"833 1149 OFFCURVE",
"890 1024 OFFCURVE",
"921 887 CURVE",
"853 936 OFFCURVE",
"765 973 OFFCURVE",
"632 973 CURVE SMOOTH",
"349 973 OFFCURVE",
"122 780 OFFCURVE",
"122 489 CURVE SMOOTH",
"122 178 OFFCURVE",
"337 -31 OFFCURVE",
"632 -31 CURVE SMOOTH",
"1052 -31 OFFCURVE",
"1167 356 OFFCURVE",
"1167 618 CURVE SMOOTH",
"1167 866 OFFCURVE",
"1091 1133 OFFCURVE",
"894 1315 CURVE"
);
},
{
closed = 1;
nodes = (
"452 76 OFFCURVE",
"370 272 OFFCURVE",
"370 492 CURVE SMOOTH",
"370 668 OFFCURVE",
"438 866 OFFCURVE",
"632 866 CURVE SMOOTH",
"798 866 OFFCURVE",
"886 764 OFFCURVE",
"933 666 CURVE",
"956 354 OFFCURVE",
"870 76 OFFCURVE",
"646 76 CURVE SMOOTH"
);
}
);
width = 1314;
}
);
unicode = 00F0;
},
{
glyphname = e;
layers = (
{
layerId = UUID0;
paths = (
{
closed = 1;
nodes = (
"349 584 LINE",
"359 774 OFFCURVE",
"423 944 OFFCURVE",
"628 944 CURVE SMOOTH",
"789 944 OFFCURVE",
"877 797 OFFCURVE",
"877 666 CURVE SMOOTH",
"877 637 OFFCURVE",
"875 610 OFFCURVE",
"867 584 CURVE"
);
},
{
closed = 1;
nodes = (
"116 145 OFFCURVE",
"398 -39 OFFCURVE",
"691 -39 CURVE SMOOTH",
"824 -39 OFFCURVE",
"972 -8 OFFCURVE",
"1080 66 CURVE",
"1047 133 LINE",
"957 104 OFFCURVE",
"871 90 OFFCURVE",
"791 90 CURVE SMOOTH",
"556 90 OFFCURVE",
"378 221 OFFCURVE",
"351 461 CURVE",
"949 461 LINE SMOOTH",
"1082 461 OFFCURVE",
"1107 569 OFFCURVE",
"1107 664 CURVE SMOOTH",
"1107 870 OFFCURVE",
"947 1055 OFFCURVE",
"681 1055 CURVE SMOOTH",
"327 1055 OFFCURVE",
"116 829 OFFCURVE",
"116 512 CURVE SMOOTH"
);
}
);
width = 1221;
}
);
leftKerningGroup = c;
rightKerningGroup = e;
unicode = 0065;
},
{
glyphname = f;
layers = (
{
layerId = UUID0;
paths = (
{
closed = 1;
nodes = (
"725 901 LINE",
"782 901 OFFCURVE",
"807 922 OFFCURVE",
"807 981 CURVE SMOOTH",
"807 1024 LINE",
"520 1024 LINE",
"520 1159 LINE SMOOTH",
"520 1317 OFFCURVE",
"528 1409 OFFCURVE",
"618 1409 CURVE SMOOTH",
"686 1409 OFFCURVE",
"774 1352 OFFCURVE",
"874 1298 CURVE",
"948 1432 LINE SMOOTH",
"954 1442 OFFCURVE",
"958 1450 OFFCURVE",
"958 1460 CURVE SMOOTH",
"958 1530 OFFCURVE",
"792 1536 OFFCURVE",
"741 1536 CURVE SMOOTH",
"506 1536 OFFCURVE",
"289 1409 OFFCURVE",
"289 1090 CURVE SMOOTH",
"289 1024 LINE",
"133 1024 LINE SMOOTH",
"76 1024 OFFCURVE",
"51 1006 OFFCURVE",
"51 946 CURVE SMOOTH",
"51 901 LINE",
"289 901 LINE",
"291 -18 LINE SMOOTH",
"291 -166 OFFCURVE",
"293 -352 OFFCURVE",
"180 -352 CURVE SMOOTH",
"115 -352 OFFCURVE",
"10 -305 OFFCURVE",
"-90 -262 CURVE",
"-156 -414 LINE SMOOTH",
"-158 -420 OFFCURVE",
"-160 -426 OFFCURVE",
"-160 -432 CURVE SMOOTH",
"-160 -485 OFFCURVE",
"-19 -492 OFFCURVE",
"35 -492 CURVE SMOOTH",
"278 -492 OFFCURVE",
"520 -342 OFFCURVE",
"520 -16 CURVE SMOOTH",
"520 901 LINE"
);
}
);
width = 846;
}
);
leftKerningGroup = f;
unicode = 0066;
},
{
glyphname = g;
layers = (
{
layerId = UUID0;
paths = (
{
closed = 1;
nodes = (
"377 850 OFFCURVE",
"453 954 OFFCURVE",
"614 954 CURVE SMOOTH",
"776 954 OFFCURVE",
"852 850 OFFCURVE",
"852 672 CURVE SMOOTH",
"852 494 OFFCURVE",
"776 387 OFFCURVE",
"614 387 CURVE SMOOTH",
"453 387 OFFCURVE",
"377 494 OFFCURVE",
"377 672 CURVE SMOOTH"
);
},
{
closed = 1;
nodes = (
"102 -184 OFFCURVE",
"49 -213 OFFCURVE",
"49 -252 CURVE SMOOTH",
"49 -379 OFFCURVE",
"360 -492 OFFCURVE",
"639 -492 CURVE SMOOTH",
"905 -492 OFFCURVE",
"1167 -389 OFFCURVE",
"1167 -176 CURVE SMOOTH",
"1167 233 OFFCURVE",
"336 14 OFFCURVE",
"336 227 CURVE SMOOTH",
"336 258 OFFCURVE",
"367 289 OFFCURVE",
"418 315 CURVE",
"477 297 OFFCURVE",
"543 287 OFFCURVE",
"614 287 CURVE SMOOTH",
"883 287 OFFCURVE",
"1087 434 OFFCURVE",
"1087 670 CURVE SMOOTH",
"1087 727 OFFCURVE",
"1075 772 OFFCURVE",
"1055 817 CURVE",
"1128 895 OFFCURVE",
"1188 895 OFFCURVE",
"1372 895 CURVE",
"1372 1030 LINE SMOOTH",
"1372 1077 OFFCURVE",
"1313 1096 OFFCURVE",
"1278 1096 CURVE SMOOTH",
"1204 1096 OFFCURVE",
"1157 1075 OFFCURVE",
"1069 967 CURVE SMOOTH",
"1010 893 LINE",
"926 995 OFFCURVE",
"782 1055 OFFCURVE",
"614 1055 CURVE SMOOTH",
"346 1055 OFFCURVE",
"141 909 OFFCURVE",
"141 672 CURVE SMOOTH",
"141 530 OFFCURVE",
"213 420 OFFCURVE",
"330 354 CURVE",
"266 319 OFFCURVE",
"176 287 OFFCURVE",
"176 180 CURVE SMOOTH",
"176 -166 OFFCURVE",
"954 -6 OFFCURVE",
"954 -213 CURVE SMOOTH",
"954 -344 OFFCURVE",
"772 -369 OFFCURVE",
"668 -369 CURVE SMOOTH",
"467 -369 OFFCURVE",
"334 -283 OFFCURVE",
"236 -135 CURVE"
);
}
);
width = 1370;
}
);
unicode = 0067;
},
{
glyphname = h;
layers = (
{
layerId = UUID0;
paths = (
{
closed = 1;
nodes = (
"32 1419 LINE",
"208 1419 LINE",
"208 78 LINE SMOOTH",
"208 4 OFFCURVE",
"257 -18 OFFCURVE",
"325 -18 CURVE SMOOTH",
"368 -18 OFFCURVE",
"431 -6 OFFCURVE",
"468 14 CURVE",
"460 51 OFFCURVE",
"439 137 OFFCURVE",
"439 301 CURVE SMOOTH",
"439 850 LINE",
"458 854 OFFCURVE",
"655 909 OFFCURVE",
"767 909 CURVE SMOOTH",
"882 909 OFFCURVE",
"906 854 OFFCURVE",
"906 719 CURVE SMOOTH",
"906 78 LINE SMOOTH",
"906 -4 OFFCURVE",
"968 -18 OFFCURVE",
"1050 -18 CURVE SMOOTH",
"1146 -18 OFFCURVE",
"1267 0 OFFCURVE",
"1312 25 CURVE",
"1312 100 LINE",
"1138 100 LINE",
"1138 739 LINE SMOOTH",
"1138 924 OFFCURVE",
"1091 1057 OFFCURVE",
"851 1057 CURVE SMOOTH",
"667 1057 OFFCURVE",
"464 946 OFFCURVE",
"439 940 CURVE",
"439 1483 LINE SMOOTH",
"439 1536 OFFCURVE",
"409 1536 OFFCURVE",
"353 1536 CURVE SMOOTH",
"249 1536 OFFCURVE",
"87 1520 OFFCURVE",
"32 1495 CURVE"
);
}
);
width = 1374;
}
);
rightKerningGroup = h;
unicode = 0068;
},
{
glyphname = i;
layers = (
{
layerId = UUID0;
paths = (
{
closed = 1;
nodes = (
"474 989 LINE",
"474 1042 OFFCURVE",
"443 1042 OFFCURVE",
"388 1042 CURVE SMOOTH",
"283 1042 OFFCURVE",
"121 1026 OFFCURVE",
"66 1001 CURVE",
"66 926 LINE",
"242 926 LINE",
"242 78 LINE SMOOTH",
"242 -4 OFFCURVE",
"304 -18 OFFCURVE",
"386 -18 CURVE SMOOTH",
"482 -18 OFFCURVE",
"603 0 OFFCURVE",
"648 25 CURVE",
"648 100 LINE",
"474 100 LINE"
);
},
{
closed = 1;
nodes = (
"218 1298 OFFCURVE",
"281 1239 OFFCURVE",
"359 1239 CURVE SMOOTH",
"437 1239 OFFCURVE",
"500 1298 OFFCURVE",
"500 1372 CURVE SMOOTH",
"500 1448 OFFCURVE",
"437 1507 OFFCURVE",
"359 1507 CURVE SMOOTH",
"281 1507 OFFCURVE",
"218 1448 OFFCURVE",
"218 1372 CURVE SMOOTH"
);
}
);
width = 716;
}
);
leftKerningGroup = i;
rightKerningGroup = i;
unicode = 0069;
},
{
glyphname = idotless;
layers = (
{
layerId = UUID0;
paths = (
{
closed = 1;
nodes = (
"473 985 LINE",
"473 1042 OFFCURVE",
"439 1038 OFFCURVE",
"387 1038 CURVE SMOOTH",
"283 1038 OFFCURVE",
"121 1022 OFFCURVE",
"66 997 CURVE",
"66 922 LINE",
"242 922 LINE",
"242 78 LINE SMOOTH",
"242 -4 OFFCURVE",
"303 -18 OFFCURVE",
"385 -18 CURVE SMOOTH",
"482 -18 OFFCURVE",
"602 0 OFFCURVE",
"647 25 CURVE",
"647 100 LINE",
"473 100 LINE"
);
}
);
width = 715;
}
);
leftKerningGroup = i;
rightKerningGroup = i;
unicode = 0131;
},
{
glyphname = j;
layers = (
{
layerId = UUID0;
paths = (
{
closed = 1;
nodes = (
"473 989 LINE",
"473 1042 OFFCURVE",
"442 1042 OFFCURVE",
"387 1042 CURVE SMOOTH",
"282 1042 OFFCURVE",
"120 1026 OFFCURVE",
"65 1001 CURVE",
"65 926 LINE",
"241 926 LINE",
"241 25 LINE",
"239 45 OFFCURVE",
"249 -274 OFFCURVE",
"194 -328 CURVE SMOOTH",
"176 -346 OFFCURVE",
"153 -352 OFFCURVE",
"129 -352 CURVE SMOOTH",
"63 -352 OFFCURVE",
"-27 -303 OFFCURVE",
"-142 -262 CURVE",
"-207 -414 LINE SMOOTH",
"-209 -420 OFFCURVE",
"-211 -426 OFFCURVE",
"-211 -432 CURVE SMOOTH",
"-211 -485 OFFCURVE",
"-70 -492 OFFCURVE",
"-17 -492 CURVE SMOOTH",
"229 -492 OFFCURVE",
"473 -342 OFFCURVE",
"473 -16 CURVE SMOOTH"
);
},
{
closed = 1;
nodes = (
"217 1298 OFFCURVE",
"280 1239 OFFCURVE",
"358 1239 CURVE SMOOTH",
"436 1239 OFFCURVE",
"499 1298 OFFCURVE",
"499 1372 CURVE SMOOTH",
"499 1448 OFFCURVE",
"436 1507 OFFCURVE",
"358 1507 CURVE SMOOTH",
"280 1507 OFFCURVE",
"217 1448 OFFCURVE",
"217 1372 CURVE SMOOTH"
);
}
);
width = 659;
}
);
unicode = 006A;
},
{
glyphname = k;
layers = (
{
layerId = UUID0;
paths = (
{
closed = 1;
nodes = (
"209 1417 LINE",
"209 78 LINE SMOOTH",
"209 4 OFFCURVE",
"258 -18 OFFCURVE",
"325 -18 CURVE SMOOTH",
"368 -18 OFFCURVE",
"432 -6 OFFCURVE",
"469 14 CURVE",
"460 51 OFFCURVE",
"440 137 OFFCURVE",
"440 301 CURVE SMOOTH",
"440 1481 LINE SMOOTH",
"440 1534 OFFCURVE",
"409 1534 OFFCURVE",
"354 1534 CURVE SMOOTH",
"250 1534 OFFCURVE",
"88 1518 OFFCURVE",
"32 1493 CURVE",
"32 1417 LINE"
);
},
{
closed = 1;
nodes = (
"1077 1022 OFFCURVE",
"1054 1055 OFFCURVE",
"1009 1055 CURVE SMOOTH",
"960 1055 OFFCURVE",
"950 1038 OFFCURVE",
"813 971 CURVE",
"819 956 OFFCURVE",
"821 942 OFFCURVE",
"821 924 CURVE SMOOTH",
"821 788 OFFCURVE",
"577 608 OFFCURVE",
"491 532 CURVE SMOOTH",
"475 518 OFFCURVE",
"469 502 OFFCURVE",
"469 487 CURVE SMOOTH",
"469 465 OFFCURVE",
"483 449 OFFCURVE",
"483 449 CURVE SMOOTH",
"811 29 LINE SMOOTH",
"835 -4 OFFCURVE",
"866 -18 OFFCURVE",
"897 -18 CURVE SMOOTH",
"993 -18 OFFCURVE",
"1138 102 OFFCURVE",
"1185 193 CURVE",
"1145 254 LINE",
"997 158 LINE",
"680 563 LINE",
"821 670 OFFCURVE",
"1077 852 OFFCURVE",
"1077 981 CURVE SMOOTH"
);
}
);
width = 1235;
}
);
unicode = 006B;
},
{
glyphname = l;
layers = (
{
layerId = UUID0;
paths = (
{
closed = 1;
nodes = (
"440 1483 LINE",
"440 1536 OFFCURVE",
"409 1536 OFFCURVE",
"354 1536 CURVE SMOOTH",
"250 1536 OFFCURVE",
"88 1520 OFFCURVE",
"32 1495 CURVE",
"32 1419 LINE",
"209 1419 LINE",
"209 78 LINE SMOOTH",
"209 -4 OFFCURVE",
"270 -18 OFFCURVE",
"352 -18 CURVE SMOOTH",
"448 -18 OFFCURVE",
"569 0 OFFCURVE",
"614 25 CURVE",
"614 100 LINE",
"440 100 LINE"
);
}
);
width = 681;
}
);
unicode = 006C;
},
{
glyphname = m;
layers = (
{
layerId = UUID0;
paths = (
{
closed = 1;
nodes = (
"1135 745 LINE",
"1135 782 OFFCURVE",
"1133 819 OFFCURVE",
"1129 852 CURVE",
"1184 866 OFFCURVE",
"1381 905 OFFCURVE",
"1449 905 CURVE SMOOTH",
"1557 905 OFFCURVE",
"1565 840 OFFCURVE",
"1565 731 CURVE SMOOTH",
"1565 78 LINE SMOOTH",
"1565 -4 OFFCURVE",
"1627 -18 OFFCURVE",
"1709 -18 CURVE SMOOTH",
"1805 -18 OFFCURVE",
"1926 0 OFFCURVE",
"1971 25 CURVE",
"1971 100 LINE",
"1797 100 LINE",
"1797 745 LINE SMOOTH",
"1797 928 OFFCURVE",
"1760 1055 OFFCURVE",
"1524 1055 CURVE SMOOTH",
"1338 1055 OFFCURVE",
"1107 934 OFFCURVE",
"1107 938 CURVE",
"1072 1030 OFFCURVE",
"978 1055 OFFCURVE",
"885 1055 CURVE SMOOTH",
"701 1055 OFFCURVE",
"474 934 OFFCURVE",
"474 938 CURVE SMOOTH",
"474 987 LINE SMOOTH",
"474 1040 OFFCURVE",
"443 1040 OFFCURVE",
"388 1040 CURVE SMOOTH",
"283 1040 OFFCURVE",
"121 1024 OFFCURVE",
"66 999 CURVE",
"66 924 LINE",
"242 924 LINE",
"242 78 LINE SMOOTH",
"242 4 OFFCURVE",
"291 -18 OFFCURVE",
"359 -18 CURVE SMOOTH",
"402 -18 OFFCURVE",
"466 -6 OFFCURVE",
"502 14 CURVE",
"494 51 OFFCURVE",
"474 137 OFFCURVE",
"474 301 CURVE SMOOTH",
"474 848 LINE",
"472 848 OFFCURVE",
"679 905 OFFCURVE",
"787 905 CURVE SMOOTH",
"896 905 OFFCURVE",
"904 840 OFFCURVE",
"904 731 CURVE SMOOTH",
"904 78 LINE SMOOTH",
"904 4 OFFCURVE",
"953 -18 OFFCURVE",
"1021 -18 CURVE SMOOTH",
"1064 -18 OFFCURVE",
"1127 -6 OFFCURVE",
"1164 14 CURVE",
"1156 51 OFFCURVE",
"1135 137 OFFCURVE",
"1135 301 CURVE SMOOTH"
);
}
);
width = 2036;
}
);
leftKerningGroup = m;
rightKerningGroup = h;
unicode = 006D;
},
{
glyphname = n;
layers = (
{
layerId = UUID0;
paths = (
{
closed = 1;
nodes = (
"242 78 LINE",
"242 4 OFFCURVE",
"291 -18 OFFCURVE",
"359 -18 CURVE SMOOTH",
"402 -18 OFFCURVE",
"466 -6 OFFCURVE",
"502 14 CURVE",
"494 51 OFFCURVE",
"474 137 OFFCURVE",
"474 301 CURVE SMOOTH",
"474 848 LINE",
"488 852 OFFCURVE",
"691 907 OFFCURVE",
"801 907 CURVE SMOOTH",
"916 907 OFFCURVE",
"941 852 OFFCURVE",
"941 717 CURVE SMOOTH",
"941 78 LINE SMOOTH",
"941 -4 OFFCURVE",
"1002 -18 OFFCURVE",
"1084 -18 CURVE SMOOTH",
"1180 -18 OFFCURVE",
"1301 0 OFFCURVE",
"1346 25 CURVE",
"1346 100 LINE",
"1172 100 LINE",
"1172 737 LINE SMOOTH",
"1172 920 OFFCURVE",
"1127 1055 OFFCURVE",
"896 1055 CURVE SMOOTH",
"705 1055 OFFCURVE",
"513 952 OFFCURVE",
"474 938 CURVE",
"474 987 LINE SMOOTH",
"474 1040 OFFCURVE",
"443 1040 OFFCURVE",
"388 1040 CURVE SMOOTH",
"283 1040 OFFCURVE",
"121 1024 OFFCURVE",
"66 999 CURVE",
"66 924 LINE",
"242 924 LINE"
);
}
);
width = 1410;
}
);
leftKerningGroup = m;
rightKerningGroup = h;
unicode = 006E;
},
{
glyphname = o;
layers = (
{
layerId = UUID0;
paths = (
{
closed = 1;
nodes = (
"1216 838 OFFCURVE",
"975 1055 OFFCURVE",
"668 1055 CURVE SMOOTH",
"360 1055 OFFCURVE",
"117 838 OFFCURVE",
"117 510 CURVE SMOOTH",
"117 186 OFFCURVE",
"360 -31 OFFCURVE",
"668 -31 CURVE SMOOTH",
"973 -31 OFFCURVE",
"1216 184 OFFCURVE",
"1216 510 CURVE SMOOTH"
);
},
{
closed = 1;
nodes = (
"364 739 OFFCURVE",
"424 948 OFFCURVE",
"668 948 CURVE SMOOTH",
"911 948 OFFCURVE",
"969 739 OFFCURVE",
"969 512 CURVE SMOOTH",
"969 285 OFFCURVE",
"911 76 OFFCURVE",
"668 76 CURVE SMOOTH",
"424 76 OFFCURVE",
"364 285 OFFCURVE",
"364 512 CURVE SMOOTH"
);
}
);
width = 1333;
}
);
leftKerningGroup = c;
rightKerningGroup = o;
unicode = 006F;
},
{
glyphname = oslash;
layers = (
{
layerId = UUID0;
paths = (
{
closed = 1;
nodes = (
"1049 1178 LINE SMOOTH",
"1054 1190 OFFCURVE",
"1056 1200 OFFCURVE",
"1056 1207 CURVE SMOOTH",
"1056 1238 OFFCURVE",
"1025 1246 OFFCURVE",
"983 1246 CURVE SMOOTH",
"926 1246 LINE",
"834 1032 LINE",
"782 1047 OFFCURVE",
"726 1055 OFFCURVE",
"668 1055 CURVE SMOOTH",
"360 1055 OFFCURVE",
"117 838 OFFCURVE",
"117 510 CURVE SMOOTH",
"117 288 OFFCURVE",
"231 116 OFFCURVE",
"402 30 CURVE",
"319 -163 LINE SMOOTH",
"314 -173 OFFCURVE",
"312 -181 OFFCURVE",
"312 -189 CURVE SMOOTH",
"312 -217 OFFCURVE",
"341 -231 OFFCURVE",
"384 -231 CURVE SMOOTH",
"442 -231 LINE",
"534 -16 LINE",
"577 -26 OFFCURVE",
"622 -31 OFFCURVE",
"668 -31 CURVE SMOOTH",
"973 -31 OFFCURVE",
"1216 184 OFFCURVE",
"1216 510 CURVE SMOOTH",
"1216 721 OFFCURVE",
"1116 886 OFFCURVE",
"962 977 CURVE"
);
},
{
closed = 1;
nodes = (
"364 739 OFFCURVE",
"424 948 OFFCURVE",
"668 948 CURVE SMOOTH",
"714 948 OFFCURVE",
"754 940 OFFCURVE",
"788 926 CURVE",
"458 161 LINE",
"386 243 OFFCURVE",
"364 374 OFFCURVE",
"364 512 CURVE SMOOTH"
);
},
{
closed = 1;
nodes = (
"969 285 OFFCURVE",
"911 76 OFFCURVE",
"668 76 CURVE SMOOTH",
"635 76 OFFCURVE",
"605 80 OFFCURVE",
"579 87 CURVE",
"899 831 LINE",
"952 749 OFFCURVE",
"969 633 OFFCURVE",
"969 512 CURVE SMOOTH"
);
}
);
width = 1333;
}
);
leftKerningGroup = c;
rightKerningGroup = o;
unicode = 00F8;
},
{
glyphname = oe;
layers = (
{
layerId = UUID0;
paths = (
{
closed = 1;
nodes = (
"1549 -39 OFFCURVE",
"1699 -10 OFFCURVE",
"1813 66 CURVE",
"1781 133 LINE",
"1697 104 OFFCURVE",
"1615 90 OFFCURVE",
"1541 90 CURVE SMOOTH",
"1318 90 OFFCURVE",
"1150 223 OFFCURVE",
"1125 463 CURVE",
"1641 461 LINE SMOOTH",
"1777 461 OFFCURVE",
"1799 569 OFFCURVE",
"1799 664 CURVE SMOOTH",
"1799 870 OFFCURVE",
"1656 1055 OFFCURVE",
"1414 1055 CURVE SMOOTH",
"1248 1055 OFFCURVE",
"1107 985 OFFCURVE",
"1013 872 CURVE",
"933 987 OFFCURVE",
"806 1055 OFFCURVE",
"628 1055 CURVE SMOOTH",
"345 1055 OFFCURVE",
"118 838 OFFCURVE",
"118 510 CURVE SMOOTH",
"118 186 OFFCURVE",
"345 -39 OFFCURVE",
"628 -39 CURVE SMOOTH",
"806 -39 OFFCURVE",
"931 29 OFFCURVE",
"1011 139 CURVE",
"1109 20 OFFCURVE",
"1258 -39 OFFCURVE",
"1412 -39 CURVE SMOOTH"
);
},
{
closed = 1;
nodes = (
"365 739 OFFCURVE",
"417 948 OFFCURVE",
"628 948 CURVE SMOOTH",
"851 948 OFFCURVE",
"888 713 OFFCURVE",
"888 512 CURVE SMOOTH",
"888 285 OFFCURVE",
"845 68 OFFCURVE",
"628 68 CURVE SMOOTH",
"417 68 OFFCURVE",
"365 285 OFFCURVE",
"365 512 CURVE SMOOTH"
);
},
{
closed = 1;
nodes = (
"1123 584 LINE",
"1133 774 OFFCURVE",
"1185 944 OFFCURVE",
"1361 944 CURVE SMOOTH",
"1494 944 OFFCURVE",
"1568 797 OFFCURVE",
"1568 666 CURVE SMOOTH",
"1568 637 OFFCURVE",
"1566 610 OFFCURVE",
"1559 584 CURVE"
);
}
);
width = 1928;
}
);
leftKerningGroup = c;
rightKerningGroup = e;
unicode = 0153;
},
{
glyphname = p;
layers = (
{
layerId = UUID0;
paths = (
{
closed = 1;
nodes = (
"474 840 LINE",
"474 840 OFFCURVE",
"656 936 OFFCURVE",
"797 936 CURVE SMOOTH",
"967 936 OFFCURVE",
"1014 776 OFFCURVE",
"1014 518 CURVE SMOOTH",
"1014 285 OFFCURVE",
"930 90 OFFCURVE",
"744 90 CURVE SMOOTH",
"642 90 OFFCURVE",
"550 145 OFFCURVE",
"474 188 CURVE"
);
},
{
closed = 1;
nodes = (
"494 -424 OFFCURVE",
"474 -338 OFFCURVE",
"474 -174 CURVE SMOOTH",
"474 68 LINE",
"474 66 OFFCURVE",
"611 -31 OFFCURVE",
"801 -31 CURVE SMOOTH",
"1113 -31 OFFCURVE",
"1264 246 OFFCURVE",
"1264 516 CURVE SMOOTH",
"1264 780 OFFCURVE",
"1158 1055 OFFCURVE",
"830 1055 CURVE SMOOTH",
"687 1055 OFFCURVE",
"552 997 OFFCURVE",
"474 940 CURVE",
"474 987 LINE SMOOTH",
"474 1040 OFFCURVE",
"443 1040 OFFCURVE",
"388 1040 CURVE SMOOTH",
"283 1040 OFFCURVE",
"119 1024 OFFCURVE",
"64 999 CURVE",
"64 924 LINE",
"242 924 LINE",
"242 -393 LINE SMOOTH",
"242 -467 OFFCURVE",
"291 -494 OFFCURVE",
"359 -494 CURVE SMOOTH",
"402 -494 OFFCURVE",
"466 -481 OFFCURVE",
"502 -461 CURVE"
);
}
);
width = 1386;
}
);
unicode = 0070;
},
{
glyphname = thorn;
layers = (
{
layerId = UUID0;
paths = (
{
closed = 1;
nodes = (
"186 -393 LINE",
"186 -467 OFFCURVE",
"235 -494 OFFCURVE",
"303 -494 CURVE SMOOTH",
"346 -494 OFFCURVE",
"410 -481 OFFCURVE",
"446 -461 CURVE",
"446 -457 LINE",
"446 -455 OFFCURVE",
"444 -451 OFFCURVE",
"444 -449 CURVE SMOOTH",
"444 -446 OFFCURVE",
"442 -444 OFFCURVE",
"442 -442 CURVE SMOOTH",
"434 -399 OFFCURVE",
"418 -317 OFFCURVE",
"418 -174 CURVE SMOOTH",
"418 -2 LINE",
"487 -18 OFFCURVE",
"567 -31 OFFCURVE",
"649 -31 CURVE SMOOTH",
"981 -31 OFFCURVE",
"1208 205 OFFCURVE",
"1208 532 CURVE SMOOTH",
"1208 819 OFFCURVE",
"1079 1055 OFFCURVE",
"774 1055 CURVE SMOOTH",
"651 1055 OFFCURVE",
"516 997 OFFCURVE",
"418 932 CURVE",
"418 1483 LINE SMOOTH",
"418 1536 OFFCURVE",
"387 1536 OFFCURVE",
"332 1536 CURVE SMOOTH",
"227 1536 OFFCURVE",
"65 1520 OFFCURVE",
"10 1495 CURVE",
"10 1419 LINE",
"186 1419 LINE"
);
},
{
closed = 1;
nodes = (
"903 934 OFFCURVE",
"960 778 OFFCURVE",
"960 549 CURVE SMOOTH",
"960 254 OFFCURVE",
"856 80 OFFCURVE",
"641 80 CURVE SMOOTH",
"534 80 OFFCURVE",
"418 111 OFFCURVE",
"418 113 CURVE",
"418 836 LINE",
"516 889 OFFCURVE",
"629 934 OFFCURVE",
"739 934 CURVE SMOOTH"
);
}
);
width = 1328;
}
);
rightKerningGroup = b;
unicode = 00FE;
},
{
glyphname = q;
layers = (
{
layerId = UUID0;
paths = (
{
closed = 1;
nodes = (
"468 90 OFFCURVE",
"367 260 OFFCURVE",
"367 504 CURVE SMOOTH",
"367 788 OFFCURVE",
"482 944 OFFCURVE",
"687 944 CURVE SMOOTH",
"793 944 OFFCURVE",
"910 913 OFFCURVE",
"910 911 CURVE",
"910 193 LINE",
"814 133 OFFCURVE",
"740 90 OFFCURVE",
"632 90 CURVE SMOOTH"
);
},
{
closed = 1;
nodes = (
"1142 -373 LINE",
"1142 950 LINE",
"1037 995 OFFCURVE",
"865 1055 OFFCURVE",
"679 1055 CURVE SMOOTH",
"349 1055 OFFCURVE",
"120 836 OFFCURVE",
"120 483 CURVE SMOOTH",
"120 221 OFFCURVE",
"247 -31 OFFCURVE",
"568 -31 CURVE SMOOTH",
"701 -31 OFFCURVE",
"832 27 OFFCURVE",
"910 76 CURVE",
"910 -395 LINE SMOOTH",
"910 -477 OFFCURVE",
"972 -492 OFFCURVE",
"1054 -492 CURVE SMOOTH",
"1150 -492 OFFCURVE",
"1271 -473 OFFCURVE",
"1316 -449 CURVE",
"1316 -373 LINE"
);
}
);
width = 1322;
}
);
unicode = 0071;
},
{
glyphname = r;
layers = (
{
layerId = UUID0;
paths = (
{
closed = 1;
nodes = (
"66 922 LINE",
"242 922 LINE",
"242 78 LINE SMOOTH",
"242 4 OFFCURVE",
"291 -18 OFFCURVE",
"359 -18 CURVE SMOOTH",
"402 -18 OFFCURVE",
"466 -6 OFFCURVE",
"502 14 CURVE",
"494 51 OFFCURVE",
"474 137 OFFCURVE",
"474 301 CURVE SMOOTH",
"474 612 LINE",
"527 674 OFFCURVE",
"646 864 OFFCURVE",
"791 864 CURVE SMOOTH",
"826 864 OFFCURVE",
"865 858 OFFCURVE",
"916 842 CURVE",
"959 983 LINE SMOOTH",
"961 989 OFFCURVE",
"961 993 OFFCURVE",
"961 999 CURVE SMOOTH",
"961 1049 OFFCURVE",
"875 1055 OFFCURVE",
"840 1055 CURVE SMOOTH",
"742 1055 OFFCURVE",
"663 1015 OFFCURVE",
"601 926 CURVE SMOOTH",
"474 745 LINE",
"474 985 LINE SMOOTH",
"474 1038 OFFCURVE",
"443 1038 OFFCURVE",
"388 1038 CURVE SMOOTH",
"283 1038 OFFCURVE",
"121 1022 OFFCURVE",
"66 997 CURVE"
);
}
);
width = 992;
}
);
leftKerningGroup = m;
unicode = 0072;
},
{
glyphname = s;
layers = (
{
layerId = UUID0;
paths = (
{
closed = 1;
nodes = (
"113 131 LINE SMOOTH",
"109 123 OFFCURVE",
"107 115 OFFCURVE",
"107 106 CURVE SMOOTH",
"107 51 OFFCURVE",
"338 -31 OFFCURVE",
"504 -31 CURVE SMOOTH",
"697 -31 OFFCURVE",
"922 51 OFFCURVE",
"922 285 CURVE SMOOTH",
"922 616 OFFCURVE",
"316 569 OFFCURVE",
"316 815 CURVE SMOOTH",
"316 893 OFFCURVE",
"381 938 OFFCURVE",
"473 938 CURVE SMOOTH",
"600 938 OFFCURVE",
"729 858 OFFCURVE",
"780 825 CURVE",
"848 956 LINE SMOOTH",
"852 965 OFFCURVE",
"854 971 OFFCURVE",
"854 977 CURVE SMOOTH",
"854 1034 OFFCURVE",
"684 1055 OFFCURVE",
"561 1055 CURVE SMOOTH",
"363 1055 OFFCURVE",
"135 975 OFFCURVE",
"135 770 CURVE SMOOTH",
"135 565 OFFCURVE",
"307 498 OFFCURVE",
"463 428 CURVE SMOOTH",
"555 387 OFFCURVE",
"715 334 OFFCURVE",
"715 225 CURVE SMOOTH",
"715 131 OFFCURVE",
"633 78 OFFCURVE",
"545 78 CURVE SMOOTH",
"404 78 OFFCURVE",
"264 190 OFFCURVE",
"193 242 CURVE"
);
}
);
width = 1022;
}
);
unicode = 0073;
},
{
glyphname = germandbls;
layers = (
{
layerId = UUID0;
paths = (
{
closed = 1;
nodes = (
"250 922 LINE",
"252 924 LINE",
"252 78 LINE SMOOTH",
"252 12 OFFCURVE",
"291 -12 OFFCURVE",
"349 -16 CURVE SMOOTH",
"392 -20 OFFCURVE",
"470 -10 OFFCURVE",
"513 14 CURVE",
"504 51 OFFCURVE",
"484 137 OFFCURVE",
"484 301 CURVE SMOOTH",
"484 1055 LINE SMOOTH",
"484 1352 OFFCURVE",
"619 1444 OFFCURVE",
"760 1444 CURVE SMOOTH",
"918 1444 OFFCURVE",
"1029 1352 OFFCURVE",
"1029 1067 CURVE",
"820 1053 OFFCURVE",
"646 991 OFFCURVE",
"646 782 CURVE SMOOTH",
"646 580 OFFCURVE",
"797 516 OFFCURVE",
"932 449 CURVE",
"1006 408 OFFCURVE",
"1145 346 OFFCURVE",
"1143 238 CURVE SMOOTH",
"1143 143 OFFCURVE",
"1082 90 OFFCURVE",
"1014 90 CURVE SMOOTH",
"889 90 OFFCURVE",
"767 203 OFFCURVE",
"703 254 CURVE",
"623 143 LINE",
"599 96 OFFCURVE",
"648 78 OFFCURVE",
"689 57 CURVE SMOOTH",
"760 18 OFFCURVE",
"873 -18 OFFCURVE",
"973 -18 CURVE SMOOTH",
"1145 -18 OFFCURVE",
"1350 63 OFFCURVE",
"1350 297 CURVE SMOOTH",
"1350 487 OFFCURVE",
"1172 551 OFFCURVE",
"1020 625 CURVE SMOOTH",
"932 670 OFFCURVE",
"826 737 OFFCURVE",
"826 827 CURVE SMOOTH",
"826 1018 OFFCURVE",
"1160 958 OFFCURVE",
"1217 950 CURVE",
"1219 1069 LINE SMOOTH",
"1223 1356 OFFCURVE",
"1066 1536 OFFCURVE",
"746 1536 CURVE SMOOTH",
"494 1536 OFFCURVE",
"250 1356 OFFCURVE",
"250 1055 CURVE SMOOTH",
"250 1024 LINE",
"117 1024 LINE SMOOTH",
"76 1024 OFFCURVE",
"58 1010 OFFCURVE",
"58 969 CURVE SMOOTH",
"58 922 LINE"
);
}
);
width = 1440;
}
);
leftKerningGroup = f;
unicode = 00DF;
},
{
glyphname = t;
layers = (
{
layerId = UUID0;
paths = (
{
closed = 1;
nodes = (
"482 1024 LINE",
"482 1204 OFFCURVE",
"502 1288 OFFCURVE",
"510 1325 CURVE",
"474 1346 OFFCURVE",
"410 1356 OFFCURVE",
"367 1356 CURVE SMOOTH",
"299 1356 OFFCURVE",
"250 1335 OFFCURVE",
"250 1262 CURVE SMOOTH",
"250 1024 LINE",
"125 1024 LINE SMOOTH",
"68 1024 OFFCURVE",
"43 1006 OFFCURVE",
"43 946 CURVE SMOOTH",
"43 901 LINE",
"250 901 LINE",
"250 297 LINE SMOOTH",
"250 92 OFFCURVE",
"371 -31 OFFCURVE",
"566 -31 CURVE SMOOTH",
"715 -31 OFFCURVE",
"801 12 OFFCURVE",
"895 70 CURVE",
"863 139 LINE",
"865 145 OFFCURVE",
"748 88 OFFCURVE",
"648 88 CURVE SMOOTH",
"537 88 OFFCURVE",
"482 166 OFFCURVE",
"482 315 CURVE SMOOTH",
"482 901 LINE",
"748 901 LINE SMOOTH",
"805 901 OFFCURVE",
"830 922 OFFCURVE",
"830 981 CURVE SMOOTH",
"830 1024 LINE",
"482 1024 LINE"
);
}
);
width = 934;
}
);
unicode = 0074;
},
{
glyphname = u;
layers = (
{
layerId = UUID0;
paths = (
{
closed = 1;
nodes = (
"935 928 LINE",
"935 176 LINE",
"937 176 OFFCURVE",
"710 117 OFFCURVE",
"608 117 CURVE SMOOTH",
"493 117 OFFCURVE",
"468 172 OFFCURVE",
"468 307 CURVE SMOOTH",
"468 991 LINE SMOOTH",
"468 1044 OFFCURVE",
"438 1044 OFFCURVE",
"382 1044 CURVE SMOOTH",
"278 1044 OFFCURVE",
"116 1028 OFFCURVE",
"61 1004 CURVE",
"61 928 LINE",
"237 928 LINE",
"237 287 LINE SMOOTH",
"237 102 OFFCURVE",
"282 -31 OFFCURVE",
"522 -31 CURVE SMOOTH",
"708 -31 OFFCURVE",
"935 90 OFFCURVE",
"935 86 CURVE SMOOTH",
"935 78 LINE SMOOTH",
"935 -4 OFFCURVE",
"997 -18 OFFCURVE",
"1079 -18 CURVE SMOOTH",
"1175 -18 OFFCURVE",
"1296 0 OFFCURVE",
"1341 25 CURVE",
"1341 100 LINE",
"1167 100 LINE",
"1167 991 LINE SMOOTH",
"1167 1044 OFFCURVE",
"1136 1044 OFFCURVE",
"1081 1044 CURVE SMOOTH",
"976 1044 OFFCURVE",
"814 1028 OFFCURVE",
"759 1004 CURVE",
"759 928 LINE"
);
}
);
width = 1409;
}
);
leftKerningGroup = u;
rightKerningGroup = u;
unicode = 0075;
},
{
glyphname = v;
layers = (
{
layerId = UUID0;
paths = (
{
closed = 1;
nodes = (
"411 1030 OFFCURVE",
"389 1042 OFFCURVE",
"364 1042 CURVE SMOOTH",
"290 1042 OFFCURVE",
"98 913 OFFCURVE",
"34 858 CURVE",
"65 788 LINE",
"223 858 LINE",
"555 78 LINE SMOOTH",
"577 23 OFFCURVE",
"624 0 OFFCURVE",
"669 0 CURVE SMOOTH",
"774 0 LINE",
"909 252 OFFCURVE",
"1159 735 OFFCURVE",
"1159 944 CURVE SMOOTH",
"1159 987 OFFCURVE",
"1144 1042 OFFCURVE",
"1095 1042 CURVE SMOOTH",
"1079 1042 OFFCURVE",
"1060 1036 OFFCURVE",
"1038 1026 CURVE SMOOTH",
"907 961 LINE",
"925 915 OFFCURVE",
"958 852 OFFCURVE",
"958 758 CURVE SMOOTH",
"958 582 OFFCURVE",
"839 311 OFFCURVE",
"751 172 CURVE",
"727 190 OFFCURVE",
"428 983 OFFCURVE",
"424 995 CURVE SMOOTH"
);
}
);
width = 1244;
}
);
unicode = 0076;
},
{
glyphname = w;
layers = (
{
layerId = UUID0;
paths = (
{
closed = 1;
nodes = (
"71 797 LINE",
"219 862 LINE",
"534 74 LINE SMOOTH",
"557 23 OFFCURVE",
"602 -2 OFFCURVE",
"647 -2 CURVE SMOOTH",
"751 -2 LINE",
"829 129 OFFCURVE",
"938 406 OFFCURVE",
"991 567 CURVE",
"1177 74 LINE SMOOTH",
"1198 23 OFFCURVE",
"1243 -2 OFFCURVE",
"1288 -2 CURVE SMOOTH",
"1392 -2 LINE",
"1532 236 OFFCURVE",
"1747 733 OFFCURVE",
"1747 940 CURVE SMOOTH",
"1747 981 OFFCURVE",
"1738 1042 OFFCURVE",
"1687 1042 CURVE SMOOTH",
"1663 1042 OFFCURVE",
"1618 1022 OFFCURVE",
"1593 1010 CURVE SMOOTH",
"1495 961 LINE",
"1515 922 OFFCURVE",
"1540 866 OFFCURVE",
"1540 778 CURVE SMOOTH",
"1540 602 OFFCURVE",
"1441 315 OFFCURVE",
"1370 166 CURVE",
"1345 184 OFFCURVE",
"1075 987 OFFCURVE",
"1075 987 CURVE SMOOTH",
"1058 1028 OFFCURVE",
"1030 1042 OFFCURVE",
"999 1042 CURVE SMOOTH",
"938 1042 OFFCURVE",
"860 989 OFFCURVE",
"831 963 CURVE",
"913 760 LINE",
"872 565 OFFCURVE",
"739 184 OFFCURVE",
"729 166 CURVE",
"704 184 OFFCURVE",
"426 971 OFFCURVE",
"422 983 CURVE SMOOTH",
"405 1030 OFFCURVE",
"376 1042 OFFCURVE",
"348 1042 CURVE SMOOTH",
"227 1042 OFFCURVE",
"100 920 OFFCURVE",
"34 862 CURVE"
);
}
);
width = 1847;
}
);
unicode = 0077;
},
{
glyphname = x;
layers = (
{
layerId = UUID0;
paths = (
{
closed = 1;
nodes = (
"981 152 LINE",
"719 563 LINE",
"860 702 OFFCURVE",
"1024 866 OFFCURVE",
"1024 977 CURVE SMOOTH",
"1024 1020 OFFCURVE",
"1006 1044 OFFCURVE",
"967 1044 CURVE SMOOTH",
"946 1044 OFFCURVE",
"914 1042 OFFCURVE",
"772 969 CURVE",
"778 952 OFFCURVE",
"791 928 OFFCURVE",
"791 895 CURVE SMOOTH",
"791 868 OFFCURVE",
"789 817 OFFCURVE",
"662 651 CURVE",
"588 762 OFFCURVE",
"510 881 OFFCURVE",
"416 1016 CURVE SMOOTH",
"402 1036 OFFCURVE",
"383 1044 OFFCURVE",
"363 1044 CURVE SMOOTH",
"256 1044 OFFCURVE",
"84 872 OFFCURVE",
"62 823 CURVE",
"101 760 LINE",
"248 854 LINE",
"481 500 LINE",
"322 330 OFFCURVE",
"150 150 OFFCURVE",
"150 43 CURVE SMOOTH",
"150 2 OFFCURVE",
"172 -20 OFFCURVE",
"211 -20 CURVE SMOOTH",
"273 -20 OFFCURVE",
"332 20 OFFCURVE",
"402 59 CURVE",
"393 78 OFFCURVE",
"389 98 OFFCURVE",
"389 119 CURVE SMOOTH",
"389 225 OFFCURVE",
"492 344 OFFCURVE",
"539 414 CURVE",
"797 27 LINE SMOOTH",
"819 -8 OFFCURVE",
"846 -20 OFFCURVE",
"879 -20 CURVE SMOOTH",
"989 -20 OFFCURVE",
"1125 96 OFFCURVE",
"1166 188 CURVE",
"1127 250 LINE"
);
}
);
width = 1213;
}
);
unicode = 0078;
},
{
glyphname = y;
layers = (
{
layerId = UUID0;
paths = (
{
closed = 1;
nodes = (
"1088 1042 OFFCURVE",
"1069 1036 OFFCURVE",
"1047 1026 CURVE SMOOTH",
"915 961 LINE",
"950 903 OFFCURVE",
"967 834 OFFCURVE",
"967 764 CURVE SMOOTH",
"967 604 OFFCURVE",
"848 348 OFFCURVE",
"756 180 CURVE",
"725 248 OFFCURVE",
"422 987 OFFCURVE",
"420 995 CURVE SMOOTH",
"410 1030 OFFCURVE",
"377 1042 OFFCURVE",
"344 1042 CURVE SMOOTH",
"229 1042 OFFCURVE",
"96 918 OFFCURVE",
"31 858 CURVE",
"68 791 LINE",
"219 858 LINE",
"623 -68 LINE",
"571 -170 OFFCURVE",
"449 -328 OFFCURVE",
"336 -328 CURVE SMOOTH",
"272 -328 OFFCURVE",
"201 -301 OFFCURVE",
"102 -272 CURVE",
"47 -420 LINE SMOOTH",
"45 -426 OFFCURVE",
"43 -430 OFFCURVE",
"43 -436 CURVE SMOOTH",
"43 -487 OFFCURVE",
"160 -494 OFFCURVE",
"201 -494 CURVE SMOOTH",
"514 -494 OFFCURVE",
"682 -223 OFFCURVE",
"809 0 CURVE SMOOTH",
"950 250 OFFCURVE",
"1167 702 OFFCURVE",
"1167 936 CURVE SMOOTH",
"1167 981 OFFCURVE",
"1155 1042 OFFCURVE",
"1104 1042 CURVE SMOOTH"
);
}
);
width = 1265;
}
);
leftKerningGroup = y;
rightKerningGroup = y;
unicode = 0079;
},
{
glyphname = z;
layers = (
{
layerId = UUID0;
paths = (
{
closed = 1;
nodes = (
"541 121 LINE",
"766 121 OFFCURVE",
"993 174 OFFCURVE",
"993 174 CURVE",
"1010 66 LINE SMOOTH",
"1010 61 OFFCURVE",
"1010 57 OFFCURVE",
"1010 55 CURVE SMOOTH",
"1010 4 OFFCURVE",
"952 -8 OFFCURVE",
"912 -8 CURVE SMOOTH",
"189 0 LINE SMOOTH",
"137 0 OFFCURVE",
"109 25 OFFCURVE",
"109 82 CURVE SMOOTH",
"109 135 LINE",
"737 913 LINE",
"232 901 OFFCURVE",
"215 840 OFFCURVE",
"156 840 CURVE",
"129 958 LINE SMOOTH",
"127 965 OFFCURVE",
"127 969 OFFCURVE",
"127 973 CURVE SMOOTH",
"127 1014 OFFCURVE",
"158 1032 OFFCURVE",
"217 1032 CURVE SMOOTH",
"420 1032 OFFCURVE",
"887 1024 OFFCURVE",
"887 1024 CURVE SMOOTH",
"942 1022 OFFCURVE",
"973 999 OFFCURVE",
"973 942 CURVE SMOOTH",
"973 891 LINE",
"340 121 LINE"
);
}
);
width = 1112;
}
);
unicode = 007A;
},
{
glyphname = ordfeminine;
layers = (
{
hints = (
{
place = "{72, 148}";
type = Stem;
},
{
place = "{494, 150}";
type = Stem;
},
{
horizontal = 1;
place = "{780, 80}";
type = Stem;
},
{
horizontal = 1;
place = "{1094, 80}";
type = Stem;
}
);
layerId = UUID0;
paths = (
{
closed = 1;
nodes = (
"494 848 LINE",
"498 795 OFFCURVE",
"545 786 OFFCURVE",
"586 786 CURVE SMOOTH",
"648 786 OFFCURVE",
"725 799 OFFCURVE",
"754 815 CURVE",
"754 862 LINE",
"644 862 LINE",
"644 1221 LINE SMOOTH",
"644 1403 OFFCURVE",
"512 1475 OFFCURVE",
"355 1475 CURVE SMOOTH",
"250 1475 OFFCURVE",
"91 1438 OFFCURVE",
"91 1380 CURVE SMOOTH",
"91 1372 OFFCURVE",
"93 1364 OFFCURVE",
"99 1356 CURVE SMOOTH",
"152 1286 LINE",
"216 1337 OFFCURVE",
"308 1407 OFFCURVE",
"394 1407 CURVE SMOOTH",
"484 1407 OFFCURVE",
"494 1319 OFFCURVE",
"494 1221 CURVE SMOOTH",
"494 1171 LINE",
"404 1171 LINE SMOOTH",
"209 1171 OFFCURVE",
"72 1118 OFFCURVE",
"72 971 CURVE SMOOTH",
"72 838 OFFCURVE",
"170 778 OFFCURVE",
"281 778 CURVE SMOOTH",
"386 778 OFFCURVE",
"494 856 OFFCURVE",
"494 856 CURVE"
);
},
{
closed = 1;
nodes = (
"259 874 OFFCURVE",
"220 918 OFFCURVE",
"220 977 CURVE SMOOTH",
"220 1075 OFFCURVE",
"324 1094 OFFCURVE",
"388 1094 CURVE SMOOTH",
"494 1094 LINE",
"494 913 LINE",
"494 913 OFFCURVE",
"386 874 OFFCURVE",
"326 874 CURVE SMOOTH"
);
}
);
width = 826;
}
);
unicode = 00AA;
},
{
glyphname = ordmasculine;
layers = (
{
hints = (
{
place = "{82, 137}";
type = Stem;
},
{
place = "{553, 139}";
type = Stem;
},
{
horizontal = 1;
place = "{702, 62}";
type = Stem;
},
{
horizontal = 1;
place = "{1262, 59}";
type = Stem;
}
);
layerId = UUID0;
paths = (
{
closed = 1;
nodes = (
"779 1335 OFFCURVE",
"625 1475 OFFCURVE",
"431 1475 CURVE SMOOTH",
"236 1475 OFFCURVE",
"82 1335 OFFCURVE",
"82 1125 CURVE SMOOTH",
"82 915 OFFCURVE",
"236 778 OFFCURVE",
"431 778 CURVE SMOOTH",
"623 778 OFFCURVE",
"779 915 OFFCURVE",
"779 1125 CURVE SMOOTH"
);
},
{
closed = 1;
nodes = (
"328 853 OFFCURVE",
"264 939 OFFCURVE",
"264 1127 CURVE SMOOTH",
"264 1328 OFFCURVE",
"334 1404 OFFCURVE",
"432 1404 CURVE SMOOTH",
"530 1404 OFFCURVE",
"598 1328 OFFCURVE",
"598 1127 CURVE SMOOTH",
"598 939 OFFCURVE",
"537 853 OFFCURVE",
"432 853 CURVE SMOOTH"
);
}
);
width = 861;
}
);
unicode = 00BA;
},
{
glyphname = zero;
layers = (
{
layerId = UUID0;
paths = (
{
closed = 1;
nodes = (
"452 92 OFFCURVE",
"363 356 OFFCURVE",
"363 696 CURVE SMOOTH",
"363 1057 OFFCURVE",
"452 1319 OFFCURVE",
"697 1319 CURVE SMOOTH",
"943 1319 OFFCURVE",
"1031 1057 OFFCURVE",
"1031 696 CURVE SMOOTH",
"1031 356 OFFCURVE",
"943 92 OFFCURVE",
"697 92 CURVE SMOOTH"
);
},
{
closed = 1;
nodes = (
"1043 -39 OFFCURVE",
"1258 258 OFFCURVE",
"1258 696 CURVE SMOOTH",
"1258 1135 OFFCURVE",
"1064 1450 OFFCURVE",
"697 1450 CURVE SMOOTH",
"331 1450 OFFCURVE",
"136 1135 OFFCURVE",
"136 696 CURVE SMOOTH",
"136 258 OFFCURVE",
"351 -39 OFFCURVE",
"697 -39 CURVE SMOOTH"
);
}
);
width = 1394;
}
);
unicode = 0030;
},
{
glyphname = one;
layers = (
{
layerId = UUID0;
paths = (
{
closed = 1;
nodes = (
"533 1360 LINE",
"533 1409 OFFCURVE",
"524 1432 OFFCURVE",
"463 1432 CURVE SMOOTH",
"328 1432 OFFCURVE",
"129 1339 OFFCURVE",
"37 1278 CURVE",
"70 1194 LINE",
"326 1286 LINE",
"326 82 LINE SMOOTH",
"326 6 OFFCURVE",
"375 -18 OFFCURVE",
"445 -18 CURVE SMOOTH",
"483 -18 OFFCURVE",
"524 -6 OFFCURVE",
"563 16 CURVE",
"555 55 OFFCURVE",
"533 145 OFFCURVE",
"533 315 CURVE SMOOTH"
);
}
);
width = 740;
}
);
unicode = 0031;
},
{
glyphname = two;
layers = (
{
layerId = UUID0;
paths = (
{
closed = 1;
nodes = (
"1033 1255 OFFCURVE",
"894 1450 OFFCURVE",
"562 1450 CURVE SMOOTH",
"400 1450 OFFCURVE",
"128 1368 OFFCURVE",
"128 1276 CURVE SMOOTH",
"128 1264 OFFCURVE",
"132 1253 OFFCURVE",
"140 1241 CURVE SMOOTH",
"218 1135 LINE",
"325 1214 OFFCURVE",
"466 1321 OFFCURVE",
"603 1321 CURVE SMOOTH",
"740 1321 OFFCURVE",
"818 1212 OFFCURVE",
"818 1071 CURVE SMOOTH",
"818 969 OFFCURVE",
"777 856 OFFCURVE",
"693 748 CURVE SMOOTH",
"613 641 OFFCURVE",
"81 80 OFFCURVE",
"81 86 CURVE SMOOTH",
"81 29 OFFCURVE",
"97 6 OFFCURVE",
"159 0 CURVE SMOOTH",
"226 -6 OFFCURVE",
"435 -12 OFFCURVE",
"632 -12 CURVE SMOOTH",
"992 -12 OFFCURVE",
"1107 -18 OFFCURVE",
"1107 106 CURVE SMOOTH",
"1107 156 OFFCURVE",
"1082 225 OFFCURVE",
"1082 225 CURVE",
"910 170 OFFCURVE",
"681 119 OFFCURVE",
"503 119 CURVE SMOOTH",
"314 119 LINE",
"554 334 OFFCURVE",
"1033 672 OFFCURVE",
"1033 1047 CURVE SMOOTH"
);
}
);
width = 1207;
}
);
unicode = 0032;
},
{
glyphname = three;
layers = (
{
layerId = UUID0;
paths = (
{
closed = 1;
nodes = (
"597 1300 LINE",
"312 1300 OFFCURVE",
"192 1180 OFFCURVE",
"192 1180 CURVE",
"187 1188 OFFCURVE",
"116 1296 OFFCURVE",
"116 1329 CURVE SMOOTH",
"116 1415 OFFCURVE",
"386 1430 OFFCURVE",
"570 1430 CURVE SMOOTH",
"687 1430 OFFCURVE",
"792 1423 OFFCURVE",
"923 1415 CURVE SMOOTH",
"1027 1409 OFFCURVE",
"1025 1366 OFFCURVE",
"1027 1305 CURVE",
"951 1042 OFFCURVE",
"632 813 OFFCURVE",
"615 803 CURVE",
"884 766 OFFCURVE",
"1076 641 OFFCURVE",
"1076 379 CURVE SMOOTH",
"1076 119 OFFCURVE",
"859 -37 OFFCURVE",
"574 -37 CURVE SMOOTH",
"392 -37 OFFCURVE",
"103 35 OFFCURVE",
"103 137 CURVE SMOOTH",
"103 150 OFFCURVE",
"108 164 OFFCURVE",
"118 182 CURVE SMOOTH",
"181 291 LINE",
"306 205 OFFCURVE",
"454 94 OFFCURVE",
"597 94 CURVE SMOOTH",
"771 94 OFFCURVE",
"878 236 OFFCURVE",
"878 397 CURVE SMOOTH",
"878 616 OFFCURVE",
"644 696 OFFCURVE",
"390 690 CURVE",
"390 748 LINE SMOOTH",
"390 791 OFFCURVE",
"411 795 OFFCURVE",
"417 801 CURVE",
"593 903 OFFCURVE",
"796 1137 OFFCURVE",
"826 1300 CURVE"
);
}
);
width = 1204;
}
);
unicode = 0033;
},
{
glyphname = four;
layers = (
{
layerId = UUID0;
paths = (
{
closed = 1;
nodes = (
"795 -16 OFFCURVE",
"802 -18 OFFCURVE",
"808 -18 CURVE SMOOTH",
"847 -18 OFFCURVE",
"888 -6 OFFCURVE",
"927 16 CURVE",
"918 55 OFFCURVE",
"896 135 OFFCURVE",
"896 305 CURVE SMOOTH",
"896 365 LINE",
"1076 365 LINE SMOOTH",
"1133 365 OFFCURVE",
"1158 385 OFFCURVE",
"1158 444 CURVE SMOOTH",
"1158 487 LINE",
"896 487 LINE",
"896 1360 LINE SMOOTH",
"896 1405 OFFCURVE",
"871 1432 OFFCURVE",
"816 1432 CURVE SMOOTH",
"802 1432 OFFCURVE",
"763 1432 OFFCURVE",
"740 1427 CURVE",
"683 1397 OFFCURVE",
"52 455 OFFCURVE",
"52 455 CURVE SMOOTH",
"46 446 OFFCURVE",
"40 430 OFFCURVE",
"40 414 CURVE SMOOTH",
"40 387 OFFCURVE",
"54 365 OFFCURVE",
"111 365 CURVE SMOOTH",
"689 365 LINE",
"689 82 LINE SMOOTH",
"689 14 OFFCURVE",
"730 -12 OFFCURVE",
"789 -16 CURVE SMOOTH"
);
},
{
closed = 1;
nodes = (
"247 487 LINE",
"240 492 LINE",
"685 1141 LINE",
"689 1124 LINE",
"689 487 LINE"
);
}
);
width = 1217;
}
);
unicode = 0034;
},
{
glyphname = five;
layers = (
{
layerId = UUID0;
paths = (
{
closed = 1;
nodes = (
"419 1298 LINE",
"419 1298 OFFCURVE",
"673 1251 OFFCURVE",
"843 1251 CURVE SMOOTH",
"979 1251 OFFCURVE",
"1046 1268 OFFCURVE",
"1046 1325 CURVE SMOOTH",
"1046 1360 OFFCURVE",
"1036 1403 OFFCURVE",
"1032 1442 CURVE SMOOTH",
"753 1401 OFFCURVE",
"516 1413 OFFCURVE",
"337 1413 CURVE SMOOTH",
"241 1413 OFFCURVE",
"241 1364 OFFCURVE",
"239 1343 CURVE",
"239 723 LINE",
"241 719 OFFCURVE",
"268 690 OFFCURVE",
"268 690 CURVE",
"340 702 OFFCURVE",
"405 709 OFFCURVE",
"464 709 CURVE SMOOTH",
"735 709 OFFCURVE",
"872 580 OFFCURVE",
"872 412 CURVE SMOOTH",
"872 324 OFFCURVE",
"825 92 OFFCURVE",
"596 92 CURVE SMOOTH",
"460 92 OFFCURVE",
"247 260 OFFCURVE",
"165 307 CURVE",
"92 182 LINE SMOOTH",
"84 166 OFFCURVE",
"79 154 OFFCURVE",
"79 141 CURVE SMOOTH",
"79 43 OFFCURVE",
"419 -37 OFFCURVE",
"569 -37 CURVE SMOOTH",
"852 -37 OFFCURVE",
"1071 139 OFFCURVE",
"1071 418 CURVE SMOOTH",
"1071 653 OFFCURVE",
"872 838 OFFCURVE",
"583 838 CURVE SMOOTH",
"530 838 OFFCURVE",
"477 831 OFFCURVE",
"419 819 CURVE"
);
}
);
width = 1196;
}
);
unicode = 0035;
},
{
glyphname = six;
layers = (
{
layerId = UUID0;
paths = (
{
closed = 1;
nodes = (
"363 514 OFFCURVE",
"576 731 OFFCURVE",
"726 731 CURVE SMOOTH",
"841 731 OFFCURVE",
"922 633 OFFCURVE",
"922 442 CURVE SMOOTH",
"922 223 OFFCURVE",
"814 92 OFFCURVE",
"654 92 CURVE SMOOTH",
"404 92 OFFCURVE",
"357 373 OFFCURVE",
"357 504 CURVE"
);
},
{
closed = 1;
nodes = (
"165 1026 OFFCURVE",
"140 813 OFFCURVE",
"140 639 CURVE SMOOTH",
"140 246 OFFCURVE",
"281 -39 OFFCURVE",
"644 -39 CURVE SMOOTH",
"978 -39 OFFCURVE",
"1133 213 OFFCURVE",
"1133 436 CURVE SMOOTH",
"1133 651 OFFCURVE",
"994 864 OFFCURVE",
"746 864 CURVE SMOOTH",
"648 864 OFFCURVE",
"521 834 OFFCURVE",
"349 635 CURVE",
"347 657 OFFCURVE",
"347 682 OFFCURVE",
"347 709 CURVE SMOOTH",
"347 967 OFFCURVE",
"449 1311 OFFCURVE",
"681 1311 CURVE SMOOTH",
"752 1311 OFFCURVE",
"832 1278 OFFCURVE",
"922 1204 CURVE",
"1000 1346 LINE SMOOTH",
"1004 1352 OFFCURVE",
"1006 1360 OFFCURVE",
"1006 1366 CURVE SMOOTH",
"1006 1436 OFFCURVE",
"820 1450 OFFCURVE",
"748 1450 CURVE SMOOTH",
"535 1450 OFFCURVE",
"343 1350 OFFCURVE",
"240 1163 CURVE SMOOTH"
);
}
);
width = 1234;
}
);
unicode = 0036;
},
{
glyphname = seven;
layers = (
{
layerId = UUID0;
paths = (
{
closed = 1;
nodes = (
"532 168 LINE",
"508 121 OFFCURVE",
"475 35 OFFCURVE",
"473 0 CURVE",
"448 -14 OFFCURVE",
"393 -18 OFFCURVE",
"358 -18 CURVE SMOOTH",
"317 -18 OFFCURVE",
"270 -8 OFFCURVE",
"270 41 CURVE SMOOTH",
"270 51 OFFCURVE",
"274 63 OFFCURVE",
"280 76 CURVE SMOOTH",
"804 1298 LINE",
"575 1296 LINE SMOOTH",
"290 1294 OFFCURVE",
"112 1178 OFFCURVE",
"112 1176 CURVE SMOOTH",
"108 1184 OFFCURVE",
"36 1292 OFFCURVE",
"36 1325 CURVE SMOOTH",
"36 1413 OFFCURVE",
"323 1425 OFFCURVE",
"532 1425 CURVE SMOOTH",
"657 1425 OFFCURVE",
"790 1419 OFFCURVE",
"921 1411 CURVE SMOOTH",
"1026 1405 OFFCURVE",
"1024 1362 OFFCURVE",
"1026 1341 CURVE",
"1026 1300 LINE"
);
}
);
width = 1067;
}
);
unicode = 0037;
},
{
glyphname = eight;
layers = (
{
layerId = UUID0;
paths = (
{
closed = 1;
nodes = (
"1053 1325 OFFCURVE",
"844 1450 OFFCURVE",
"609 1450 CURVE SMOOTH",
"361 1450 OFFCURVE",
"154 1325 OFFCURVE",
"154 1096 CURVE SMOOTH",
"154 973 OFFCURVE",
"207 846 OFFCURVE",
"424 725 CURVE",
"269 633 OFFCURVE",
"148 502 OFFCURVE",
"148 291 CURVE SMOOTH",
"148 66 OFFCURVE",
"385 -39 OFFCURVE",
"609 -39 CURVE SMOOTH",
"850 -39 OFFCURVE",
"1108 68 OFFCURVE",
"1108 356 CURVE SMOOTH",
"1108 551 OFFCURVE",
"967 641 OFFCURVE",
"799 733 CURVE",
"942 821 OFFCURVE",
"1053 950 OFFCURVE",
"1053 1096 CURVE SMOOTH"
);
},
{
closed = 1;
nodes = (
"465 92 OFFCURVE",
"334 172 OFFCURVE",
"334 332 CURVE SMOOTH",
"334 463 OFFCURVE",
"424 573 OFFCURVE",
"549 657 CURVE",
"678 588 OFFCURVE",
"897 475 OFFCURVE",
"897 328 CURVE SMOOTH",
"897 168 OFFCURVE",
"762 92 OFFCURVE",
"609 92 CURVE SMOOTH"
);
},
{
closed = 1;
nodes = (
"863 975 OFFCURVE",
"787 866 OFFCURVE",
"676 797 CURVE",
"533 872 OFFCURVE",
"355 979 OFFCURVE",
"355 1098 CURVE SMOOTH",
"355 1243 OFFCURVE",
"467 1319 OFFCURVE",
"609 1319 CURVE SMOOTH",
"748 1319 OFFCURVE",
"863 1245 OFFCURVE",
"863 1096 CURVE SMOOTH"
);
}
);
width = 1238;
}
);
unicode = 0038;
},
{
glyphname = nine;
layers = (
{
layerId = UUID0;
paths = (
{
closed = 1;
nodes = (
"880 858 OFFCURVE",
"661 678 OFFCURVE",
"516 678 CURVE SMOOTH",
"401 678 OFFCURVE",
"319 776 OFFCURVE",
"319 969 CURVE SMOOTH",
"319 1188 OFFCURVE",
"428 1319 OFFCURVE",
"588 1319 CURVE SMOOTH",
"815 1319 OFFCURVE",
"889 1124 OFFCURVE",
"889 938 CURVE SMOOTH",
"889 911 OFFCURVE",
"887 887 OFFCURVE",
"885 864 CURVE"
);
},
{
closed = 1;
nodes = (
"1069 401 OFFCURVE",
"1100 616 OFFCURVE",
"1100 801 CURVE SMOOTH",
"1100 1178 OFFCURVE",
"946 1450 OFFCURVE",
"598 1450 CURVE SMOOTH",
"264 1450 OFFCURVE",
"108 1196 OFFCURVE",
"108 975 CURVE SMOOTH",
"108 760 OFFCURVE",
"248 545 OFFCURVE",
"495 545 CURVE SMOOTH",
"573 545 OFFCURVE",
"725 545 OFFCURVE",
"891 733 CURVE",
"887 471 OFFCURVE",
"803 100 OFFCURVE",
"547 100 CURVE SMOOTH",
"469 100 OFFCURVE",
"366 133 OFFCURVE",
"276 207 CURVE",
"199 66 LINE SMOOTH",
"194 57 OFFCURVE",
"192 51 OFFCURVE",
"192 45 CURVE SMOOTH",
"192 -25 OFFCURVE",
"377 -39 OFFCURVE",
"455 -39 CURVE SMOOTH",
"674 -39 OFFCURVE",
"887 72 OFFCURVE",
"989 258 CURVE SMOOTH"
);
}
);
width = 1238;
}
);
unicode = 0039;
},
{
glyphname = onesuperior;
layers = (
{
layerId = UUID0;
paths = (
{
closed = 1;
nodes = (
"396 1405 LINE",
"396 1438 OFFCURVE",
"388 1450 OFFCURVE",
"343 1450 CURVE SMOOTH",
"261 1450 OFFCURVE",
"134 1393 OFFCURVE",
"77 1354 CURVE",
"97 1280 LINE",
"257 1337 LINE",
"257 618 LINE SMOOTH",
"257 571 OFFCURVE",
"286 557 OFFCURVE",
"329 557 CURVE SMOOTH",
"358 557 OFFCURVE",
"390 563 OFFCURVE",
"415 578 CURVE",
"411 602 OFFCURVE",
"396 657 OFFCURVE",
"396 762 CURVE SMOOTH"
);
}
);
width = 586;
}
);
unicode = 00B9;
},
{
glyphname = twosuperior;
layers = (
{
layerId = UUID0;
paths = (
{
closed = 1;
nodes = (
"725 1087 OFFCURVE",
"743 1147 OFFCURVE",
"743 1202 CURVE SMOOTH",
"743 1327 OFFCURVE",
"651 1450 OFFCURVE",
"434 1450 CURVE SMOOTH",
"332 1450 OFFCURVE",
"162 1401 OFFCURVE",
"162 1346 CURVE SMOOTH",
"162 1337 OFFCURVE",
"164 1331 OFFCURVE",
"170 1323 CURVE SMOOTH",
"233 1233 LINE",
"235 1251 OFFCURVE",
"368 1356 OFFCURVE",
"432 1356 CURVE SMOOTH",
"526 1356 OFFCURVE",
"571 1294 OFFCURVE",
"571 1214 CURVE SMOOTH",
"571 1038 OFFCURVE",
"237 731 OFFCURVE",
"133 623 CURVE",
"133 547 OFFCURVE",
"252 561 OFFCURVE",
"471 561 CURVE SMOOTH",
"690 561 OFFCURVE",
"764 553 OFFCURVE",
"764 647 CURVE SMOOTH",
"764 684 OFFCURVE",
"745 750 OFFCURVE",
"747 750 CURVE SMOOTH",
"657 707 OFFCURVE",
"518 666 OFFCURVE",
"407 664 CURVE SMOOTH",
"319 662 LINE",
"319 662 OFFCURVE",
"596 901 OFFCURVE",
"690 1038 CURVE SMOOTH"
);
}
);
width = 917;
}
);
unicode = 00B2;
},
{
glyphname = threesuperior;
layers = (
{
layerId = UUID0;
paths = (
{
closed = 1;
nodes = (
"534 1352 LINE",
"516 1249 OFFCURVE",
"438 1149 OFFCURVE",
"332 1071 CURVE SMOOTH",
"327 1067 OFFCURVE",
"315 1065 OFFCURVE",
"315 1038 CURVE SMOOTH",
"315 973 LINE",
"385 973 LINE SMOOTH",
"391 973 OFFCURVE",
"399 973 OFFCURVE",
"405 973 CURVE SMOOTH",
"532 973 OFFCURVE",
"602 920 OFFCURVE",
"602 809 CURVE SMOOTH",
"602 707 OFFCURVE",
"538 641 OFFCURVE",
"432 641 CURVE SMOOTH",
"342 641 OFFCURVE",
"270 711 OFFCURVE",
"192 764 CURVE",
"145 674 LINE SMOOTH",
"139 664 OFFCURVE",
"137 653 OFFCURVE",
"137 647 CURVE SMOOTH",
"137 584 OFFCURVE",
"315 539 OFFCURVE",
"430 539 CURVE SMOOTH",
"606 539 OFFCURVE",
"764 635 OFFCURVE",
"764 797 CURVE SMOOTH",
"764 961 OFFCURVE",
"647 1049 OFFCURVE",
"461 1061 CURVE",
"471 1067 OFFCURVE",
"663 1208 OFFCURVE",
"710 1372 CURVE",
"710 1397 LINE SMOOTH",
"710 1456 OFFCURVE",
"510 1450 OFFCURVE",
"426 1450 CURVE SMOOTH",
"313 1450 OFFCURVE",
"143 1440 OFFCURVE",
"143 1386 CURVE SMOOTH",
"143 1376 OFFCURVE",
"196 1276 OFFCURVE",
"207 1262 CURVE",
"207 1262 OFFCURVE",
"254 1352 OFFCURVE",
"432 1352 CURVE SMOOTH"
);
}
);
width = 891;
}
);
unicode = 00B3;
},
{
glyphname = foursuperior;
layers = (
{
layerId = UUID0;
paths = (
{
closed = 1;
nodes = (
"585 582 OFFCURVE",
"618 588 OFFCURVE",
"642 604 CURVE",
"638 629 OFFCURVE",
"624 678 OFFCURVE",
"624 784 CURVE SMOOTH",
"624 821 LINE",
"736 821 LINE SMOOTH",
"771 821 OFFCURVE",
"788 836 OFFCURVE",
"788 870 CURVE SMOOTH",
"788 918 LINE",
"624 918 LINE",
"624 1446 LINE SMOOTH",
"624 1473 OFFCURVE",
"609 1489 OFFCURVE",
"573 1489 CURVE SMOOTH",
"564 1489 OFFCURVE",
"528 1489 OFFCURVE",
"515 1487 CURVE",
"478 1466 OFFCURVE",
"85 879 OFFCURVE",
"85 879 CURVE",
"81 872 OFFCURVE",
"77 862 OFFCURVE",
"77 850 CURVE SMOOTH",
"77 836 OFFCURVE",
"85 821 OFFCURVE",
"120 821 CURVE SMOOTH",
"482 821 LINE",
"482 643 LINE SMOOTH",
"482 602 OFFCURVE",
"509 582 OFFCURVE",
"546 582 CURVE SMOOTH"
);
},
{
closed = 1;
nodes = (
"231 918 LINE",
"480 1294 LINE",
"480 918 LINE"
);
}
);
width = 887;
}
);
unicode = 2074;
},
{
glyphname = fraction;
layers = (
{
layerId = UUID0;
paths = (
{
closed = 1;
nodes = (
"801 1440 LINE",
"805 1452 OFFCURVE",
"809 1462 OFFCURVE",
"809 1470 CURVE SMOOTH",
"809 1503 OFFCURVE",
"774 1511 OFFCURVE",
"729 1511 CURVE SMOOTH",
"672 1511 LINE",
"21 6 LINE SMOOTH",
"14 -6 OFFCURVE",
"12 -14 OFFCURVE",
"12 -23 CURVE SMOOTH",
"12 -53 OFFCURVE",
"43 -68 OFFCURVE",
"88 -68 CURVE SMOOTH",
"150 -68 LINE"
);
}
);
width = 820;
}
);
unicode = 2044;
},
{
glyphname = onehalf;
layers = (
{
layerId = UUID0;
paths = (
{
closed = 1;
nodes = (
"1530 518 OFFCURVE",
"1549 578 OFFCURVE",
"1549 633 CURVE SMOOTH",
"1549 758 OFFCURVE",
"1457 881 OFFCURVE",
"1240 881 CURVE SMOOTH",
"1137 881 OFFCURVE",
"967 831 OFFCURVE",
"967 776 CURVE SMOOTH",
"967 768 OFFCURVE",
"969 762 OFFCURVE",
"975 754 CURVE SMOOTH",
"1039 664 LINE",
"1068 700 OFFCURVE",
"1141 786 OFFCURVE",
"1238 786 CURVE SMOOTH",
"1332 786 OFFCURVE",
"1377 725 OFFCURVE",
"1377 645 CURVE SMOOTH",
"1377 469 OFFCURVE",
"1106 246 OFFCURVE",
"939 53 CURVE",
"939 -23 OFFCURVE",
"1057 -8 OFFCURVE",
"1276 -8 CURVE SMOOTH",
"1496 -8 OFFCURVE",
"1569 -16 OFFCURVE",
"1569 78 CURVE SMOOTH",
"1569 115 OFFCURVE",
"1551 180 OFFCURVE",
"1553 180 CURVE SMOOTH",
"1463 137 OFFCURVE",
"1324 94 OFFCURVE",
"1213 92 CURVE SMOOTH",
"1125 92 LINE",
"1125 92 OFFCURVE",
"1401 332 OFFCURVE",
"1496 469 CURVE SMOOTH"
);
},
{
closed = 1;
nodes = (
"387 1405 LINE SMOOTH",
"387 1438 OFFCURVE",
"379 1450 OFFCURVE",
"334 1450 CURVE SMOOTH",
"252 1450 OFFCURVE",
"125 1393 OFFCURVE",
"67 1354 CURVE",
"88 1280 LINE",
"248 1337 LINE",
"248 618 LINE SMOOTH",
"248 571 OFFCURVE",
"276 557 OFFCURVE",
"319 557 CURVE SMOOTH",
"348 557 OFFCURVE",
"381 563 OFFCURVE",
"405 578 CURVE",
"401 602 OFFCURVE",
"387 657 OFFCURVE",
"387 762 CURVE SMOOTH"
);
},
{
closed = 1;
nodes = (
"1089 1331 LINE SMOOTH",
"1099 1352 OFFCURVE",
"1103 1368 OFFCURVE",
"1103 1380 CURVE SMOOTH",
"1103 1405 OFFCURVE",
"1082 1413 OFFCURVE",
"1037 1413 CURVE SMOOTH",
"990 1413 LINE",
"376 82 LINE SMOOTH",
"364 57 OFFCURVE",
"357 39 OFFCURVE",
"357 27 CURVE SMOOTH",
"357 8 OFFCURVE",
"372 0 OFFCURVE",
"409 0 CURVE SMOOTH",
"474 0 LINE"
);
}
);
width = 1679;
}
);
unicode = 00BD;
},
{
glyphname = onequarter;
layers = (
{
layerId = UUID0;
paths = (
{
closed = 1;
nodes = (
"386 762 LINE",
"386 683 LINE",
"402 596 LINE",
"405 578 LINE",
"369 557 LINE",
"319 557 LINE",
"247 557 LINE",
"247 618 LINE",
"247 1337 LINE",
"87 1280 LINE",
"67 1354 LINE",
"146 1411 LINE",
"264 1440 LINE",
"302 1450 LINE",
"367 1450 LINE",
"386 1430 LINE",
"386 1405 LINE"
);
},
{
closed = 1;
nodes = (
"1088 1331 LINE",
"1102 1360 LINE",
"1102 1380 LINE",
"1102 1399 LINE",
"1071 1413 LINE",
"1037 1413 LINE",
"990 1413 LINE",
"375 82 LINE",
"357 44 LINE",
"357 27 LINE",
"357 13 LINE",
"380 0 LINE",
"408 0 LINE",
"474 0 LINE"
);
},
{
closed = 1;
nodes = (
"1492 271 LINE",
"1492 222 LINE",
"1440 222 LINE",
"1328 222 LINE",
"1328 86 LINE",
"1346 5 LINE",
"1313 -17 LINE",
"1186 -17 LINE",
"1186 44 LINE",
"1186 222 LINE",
"824 222 LINE",
"781 222 LINE",
"781 251 LINE",
"781 267 LINE",
"789 280 LINE",
"1136 783 LINE",
"1190 855 LINE",
"1212 884 LINE",
"1219 888 LINE",
"1229 890 LINE",
"1246 890 LINE",
"1277 890 LINE",
"1328 890 LINE",
"1328 847 LINE",
"1328 319 LINE",
"1492 319 LINE"
);
},
{
closed = 1;
nodes = (
"1184 319 LINE",
"1184 695 LINE",
"935 319 LINE"
);
}
);
width = 1564;
}
);
unicode = 00BC;
},
{
glyphname = threequarters;
layers = (
{
layerId = UUID0;
paths = (
{
closed = 1;
nodes = (
"1472 -18 OFFCURVE",
"1474 -18 OFFCURVE",
"1478 -18 CURVE SMOOTH",
"1506 -18 OFFCURVE",
"1539 -12 OFFCURVE",
"1564 4 CURVE",
"1560 29 OFFCURVE",
"1545 78 OFFCURVE",
"1545 184 CURVE SMOOTH",
"1545 221 LINE",
"1658 221 LINE SMOOTH",
"1693 221 OFFCURVE",
"1709 236 OFFCURVE",
"1709 270 CURVE SMOOTH",
"1709 317 LINE",
"1545 317 LINE",
"1545 846 LINE SMOOTH",
"1545 872 OFFCURVE",
"1531 889 OFFCURVE",
"1494 889 CURVE SMOOTH",
"1486 889 OFFCURVE",
"1449 889 OFFCURVE",
"1437 887 CURVE",
"1400 866 OFFCURVE",
"1007 279 OFFCURVE",
"1007 279 CURVE",
"1003 272 OFFCURVE",
"998 262 OFFCURVE",
"998 250 CURVE SMOOTH",
"998 236 OFFCURVE",
"1007 221 OFFCURVE",
"1041 221 CURVE SMOOTH",
"1404 221 LINE",
"1404 43 LINE SMOOTH",
"1404 2 OFFCURVE",
"1431 -14 OFFCURVE",
"1467 -18 CURVE SMOOTH"
);
},
{
closed = 1;
nodes = (
"501 1352 LINE",
"482 1249 OFFCURVE",
"404 1149 OFFCURVE",
"298 1071 CURVE SMOOTH",
"294 1067 OFFCURVE",
"282 1065 OFFCURVE",
"282 1038 CURVE SMOOTH",
"282 973 LINE",
"327 975 LINE",
"478 975 OFFCURVE",
"568 932 OFFCURVE",
"568 809 CURVE SMOOTH",
"568 707 OFFCURVE",
"505 641 OFFCURVE",
"398 641 CURVE SMOOTH",
"308 641 OFFCURVE",
"237 711 OFFCURVE",
"159 764 CURVE",
"112 674 LINE SMOOTH",
"105 664 OFFCURVE",
"103 653 OFFCURVE",
"103 647 CURVE SMOOTH",
"103 584 OFFCURVE",
"282 539 OFFCURVE",
"396 539 CURVE SMOOTH",
"572 539 OFFCURVE",
"730 635 OFFCURVE",
"730 797 CURVE SMOOTH",
"730 961 OFFCURVE",
"613 1049 OFFCURVE",
"427 1061 CURVE",
"437 1067 OFFCURVE",
"630 1208 OFFCURVE",
"677 1372 CURVE",
"677 1397 LINE SMOOTH",
"677 1413 OFFCURVE",
"677 1436 OFFCURVE",
"611 1440 CURVE SMOOTH",
"531 1444 OFFCURVE",
"466 1450 OFFCURVE",
"392 1450 CURVE SMOOTH",
"280 1450 OFFCURVE",
"110 1440 OFFCURVE",
"110 1386 CURVE SMOOTH",
"110 1372 OFFCURVE",
"163 1282 OFFCURVE",
"173 1262 CURVE",
"177 1270 OFFCURVE",
"228 1352 OFFCURVE",
"398 1352 CURVE SMOOTH"
);
},
{
closed = 1;
nodes = (
"1312 1331 LINE",
"1322 1352 OFFCURVE",
"1326 1368 OFFCURVE",
"1326 1380 CURVE SMOOTH",
"1326 1405 OFFCURVE",
"1306 1413 OFFCURVE",
"1261 1413 CURVE SMOOTH",
"1213 1413 LINE",
"599 82 LINE SMOOTH",
"587 57 OFFCURVE",
"581 39 OFFCURVE",
"581 27 CURVE SMOOTH",
"581 8 OFFCURVE",
"595 0 OFFCURVE",
"632 0 CURVE SMOOTH",
"697 0 LINE"
);
},
{
closed = 1;
nodes = (
"1158 317 LINE",
"1154 319 LINE",
"1402 694 LINE",
"1402 317 LINE"
);
}
);
width = 1781;
}
);
unicode = 00BE;
},
{
glyphname = period;
layers = (
{
layerId = UUID0;
paths = (
{
closed = 1;
nodes = (
"384 240 OFFCURVE",
"445 178 OFFCURVE",
"445 102 CURVE SMOOTH",
"445 23 OFFCURVE",
"384 -39 OFFCURVE",
"296 -39 CURVE SMOOTH",
"210 -39 OFFCURVE",
"150 23 OFFCURVE",
"150 102 CURVE SMOOTH",
"150 178 OFFCURVE",
"210 240 OFFCURVE",
"296 240 CURVE SMOOTH"
);
}
);
width = 594;
}
);
leftKerningGroup = comma;
rightKerningGroup = comma;
unicode = 002E;
},
{
glyphname = comma;
layers = (
{
layerId = UUID0;
paths = (
{
closed = 1;
nodes = (
"433 178 OFFCURVE",
"384 240 OFFCURVE",
"296 240 CURVE SMOOTH",
"210 240 OFFCURVE",
"150 178 OFFCURVE",
"150 102 CURVE SMOOTH",
"150 23 OFFCURVE",
"210 -39 OFFCURVE",
"296 -39 CURVE SMOOTH",
"300 -39 OFFCURVE",
"306 -39 OFFCURVE",
"308 -37 CURVE",
"289 -121 OFFCURVE",
"246 -207 OFFCURVE",
"183 -246 CURVE",
"183 -301 LINE SMOOTH",
"183 -326 OFFCURVE",
"195 -332 OFFCURVE",
"208 -332 CURVE SMOOTH",
"214 -332 OFFCURVE",
"222 -330 OFFCURVE",
"226 -328 CURVE SMOOTH",
"390 -268 OFFCURVE",
"453 -96 OFFCURVE",
"453 37 CURVE SMOOTH",
"453 59 OFFCURVE",
"451 82 OFFCURVE",
"447 102 CURVE SMOOTH"
);
}
);
width = 599;
}
);
leftKerningGroup = comma;
rightKerningGroup = comma;
unicode = 002C;
},
{
glyphname = colon;
layers = (
{
layerId = UUID0;
paths = (
{
closed = 1;
nodes = (
"402 240 OFFCURVE",
"463 178 OFFCURVE",
"463 102 CURVE SMOOTH",
"463 23 OFFCURVE",
"402 -39 OFFCURVE",
"314 -39 CURVE SMOOTH",
"228 -39 OFFCURVE",
"168 23 OFFCURVE",
"168 102 CURVE SMOOTH",
"168 178 OFFCURVE",
"228 240 OFFCURVE",
"314 240 CURVE SMOOTH"
);
},
{
closed = 1;
nodes = (
"402 1055 OFFCURVE",
"463 993 OFFCURVE",
"463 918 CURVE SMOOTH",
"463 838 OFFCURVE",
"402 776 OFFCURVE",
"314 776 CURVE SMOOTH",
"228 776 OFFCURVE",
"168 838 OFFCURVE",
"168 918 CURVE SMOOTH",
"168 993 OFFCURVE",
"228 1055 OFFCURVE",
"314 1055 CURVE SMOOTH"
);
}
);
width = 630;
}
);
unicode = 003A;
},
{
glyphname = semicolon;
layers = (
{
layerId = UUID0;
paths = (
{
closed = 1;
nodes = (
"404 1055 OFFCURVE",
"465 993 OFFCURVE",
"465 918 CURVE SMOOTH",
"465 838 OFFCURVE",
"404 776 OFFCURVE",
"316 776 CURVE SMOOTH",
"230 776 OFFCURVE",
"170 838 OFFCURVE",
"170 918 CURVE SMOOTH",
"170 993 OFFCURVE",
"230 1055 OFFCURVE",
"316 1055 CURVE SMOOTH"
);
},
{
closed = 1;
nodes = (
"453 178 OFFCURVE",
"404 240 OFFCURVE",
"316 240 CURVE SMOOTH",
"230 240 OFFCURVE",
"170 178 OFFCURVE",
"170 102 CURVE SMOOTH",
"170 23 OFFCURVE",
"230 -39 OFFCURVE",
"316 -39 CURVE SMOOTH",
"320 -39 OFFCURVE",
"326 -39 OFFCURVE",
"328 -37 CURVE",
"309 -121 OFFCURVE",
"266 -207 OFFCURVE",
"203 -246 CURVE",
"203 -301 LINE SMOOTH",
"203 -326 OFFCURVE",
"215 -332 OFFCURVE",
"228 -332 CURVE SMOOTH",
"234 -332 OFFCURVE",
"242 -330 OFFCURVE",
"246 -328 CURVE SMOOTH",
"410 -268 OFFCURVE",
"473 -96 OFFCURVE",
"473 37 CURVE SMOOTH",
"473 59 OFFCURVE",
"471 82 OFFCURVE",
"467 102 CURVE SMOOTH"
);
}
);
width = 640;
}
);
unicode = 003B;
},
{
glyphname = exclam;
layers = (
{
layerId = UUID0;
paths = (
{
closed = 1;
nodes = (
"410 260 OFFCURVE",
"472 199 OFFCURVE",
"472 123 CURVE SMOOTH",
"472 43 OFFCURVE",
"410 -18 OFFCURVE",
"322 -18 CURVE SMOOTH",
"236 -18 OFFCURVE",
"177 43 OFFCURVE",
"177 123 CURVE SMOOTH",
"177 199 OFFCURVE",
"236 260 OFFCURVE",
"322 260 CURVE SMOOTH"
);
},
{
closed = 1;
nodes = (
"242 489 LINE",
"246 426 OFFCURVE",
"277 401 OFFCURVE",
"336 401 CURVE SMOOTH",
"363 401 OFFCURVE",
"396 412 OFFCURVE",
"412 424 CURVE",
"406 453 OFFCURVE",
"402 481 OFFCURVE",
"402 532 CURVE SMOOTH",
"402 639 OFFCURVE",
"416 840 OFFCURVE",
"445 1333 CURVE",
"445 1407 OFFCURVE",
"394 1432 OFFCURVE",
"326 1432 CURVE SMOOTH",
"279 1432 OFFCURVE",
"207 1419 OFFCURVE",
"169 1397 CURVE",
"177 1358 OFFCURVE",
"193 1294 OFFCURVE",
"203 1128 CURVE SMOOTH"
);
}
);
width = 636;
}
);
unicode = 0021;
},
{
glyphname = exclamdown;
layers = (
{
layerId = UUID0;
paths = (
{
closed = 1;
nodes = (
"392 705 LINE",
"388 768 OFFCURVE",
"357 793 OFFCURVE",
"298 793 CURVE SMOOTH",
"271 793 OFFCURVE",
"238 782 OFFCURVE",
"222 770 CURVE",
"226 745 OFFCURVE",
"230 717 OFFCURVE",
"230 662 CURVE SMOOTH",
"230 625 OFFCURVE",
"230 580 OFFCURVE",
"226 516 CURVE SMOOTH",
"189 -168 LINE SMOOTH",
"185 -242 OFFCURVE",
"238 -268 OFFCURVE",
"308 -268 CURVE SMOOTH",
"355 -268 OFFCURVE",
"427 -254 OFFCURVE",
"466 -231 CURVE",
"457 -193 OFFCURVE",
"441 -100 OFFCURVE",
"431 66 CURVE SMOOTH"
);
},
{
closed = 1;
nodes = (
"398 950 OFFCURVE",
"457 1012 OFFCURVE",
"457 1087 CURVE SMOOTH",
"457 1167 OFFCURVE",
"398 1229 OFFCURVE",
"312 1229 CURVE SMOOTH",
"224 1229 OFFCURVE",
"163 1167 OFFCURVE",
"163 1087 CURVE SMOOTH",
"163 1012 OFFCURVE",
"224 950 OFFCURVE",
"312 950 CURVE SMOOTH"
);
}
);
width = 633;
}
);
unicode = 00A1;
},
{
glyphname = question;
layers = (
{
layerId = UUID0;
paths = (
{
closed = 1;
nodes = (
"536 240 OFFCURVE",
"598 178 OFFCURVE",
"598 102 CURVE SMOOTH",
"598 23 OFFCURVE",
"536 -39 OFFCURVE",
"448 -39 CURVE SMOOTH",
"362 -39 OFFCURVE",
"303 23 OFFCURVE",
"303 102 CURVE SMOOTH",
"303 178 OFFCURVE",
"362 240 OFFCURVE",
"448 240 CURVE SMOOTH"
);
},
{
closed = 1;
nodes = (
"579 385 OFFCURVE",
"600 451 OFFCURVE",
"600 494 CURVE SMOOTH",
"600 508 OFFCURVE",
"479 522 OFFCURVE",
"479 592 CURVE SMOOTH",
"479 623 OFFCURVE",
"501 657 OFFCURVE",
"538 688 CURVE SMOOTH",
"684 805 OFFCURVE",
"889 893 OFFCURVE",
"889 1090 CURVE SMOOTH",
"889 1329 OFFCURVE",
"682 1450 OFFCURVE",
"409 1450 CURVE SMOOTH",
"315 1450 OFFCURVE",
"71 1434 OFFCURVE",
"71 1341 CURVE SMOOTH",
"71 1333 OFFCURVE",
"73 1323 OFFCURVE",
"80 1311 CURVE SMOOTH",
"141 1171 LINE",
"141 1176 OFFCURVE",
"348 1296 OFFCURVE",
"477 1296 CURVE SMOOTH",
"592 1296 OFFCURVE",
"657 1212 OFFCURVE",
"657 1118 CURVE SMOOTH",
"657 868 OFFCURVE",
"295 788 OFFCURVE",
"295 594 CURVE SMOOTH",
"295 471 OFFCURVE",
"415 385 OFFCURVE",
"526 385 CURVE SMOOTH"
);
}
);
width = 974;
}
);
unicode = 003F;
},
{
glyphname = questiondown;
layers = (
{
layerId = UUID0;
paths = (
{
closed = 1;
nodes = (
"606 829 OFFCURVE",
"665 891 OFFCURVE",
"665 967 CURVE SMOOTH",
"665 1047 OFFCURVE",
"606 1108 OFFCURVE",
"520 1108 CURVE SMOOTH",
"432 1108 OFFCURVE",
"370 1047 OFFCURVE",
"370 967 CURVE SMOOTH",
"370 891 OFFCURVE",
"432 829 OFFCURVE",
"520 829 CURVE SMOOTH"
);
},
{
closed = 1;
nodes = (
"477 676 OFFCURVE",
"458 680 OFFCURVE",
"442 680 CURVE SMOOTH",
"389 680 OFFCURVE",
"368 614 OFFCURVE",
"368 571 CURVE SMOOTH",
"368 555 OFFCURVE",
"489 543 OFFCURVE",
"489 473 CURVE SMOOTH",
"489 440 OFFCURVE",
"467 406 OFFCURVE",
"430 377 CURVE SMOOTH",
"284 260 OFFCURVE",
"80 172 OFFCURVE",
"80 -25 CURVE SMOOTH",
"80 -264 OFFCURVE",
"286 -385 OFFCURVE",
"559 -385 CURVE SMOOTH",
"653 -385 OFFCURVE",
"897 -369 OFFCURVE",
"897 -279 CURVE SMOOTH",
"897 -268 OFFCURVE",
"893 -258 OFFCURVE",
"889 -246 CURVE SMOOTH",
"827 -106 LINE",
"827 -111 OFFCURVE",
"587 -231 OFFCURVE",
"491 -231 CURVE SMOOTH",
"377 -231 OFFCURVE",
"311 -150 OFFCURVE",
"311 -53 CURVE SMOOTH",
"311 195 OFFCURVE",
"673 276 OFFCURVE",
"673 471 CURVE SMOOTH",
"673 567 OFFCURVE",
"618 635 OFFCURVE",
"497 670 CURVE SMOOTH"
);
}
);
width = 964;
}
);
unicode = 00BF;
},
{
glyphname = periodcentered;
layers = (
{
layerId = UUID0;
paths = (
{
closed = 1;
nodes = (
"227 762 OFFCURVE",
"168 700 OFFCURVE",
"168 625 CURVE SMOOTH",
"168 545 OFFCURVE",
"227 483 OFFCURVE",
"313 483 CURVE SMOOTH",
"401 483 OFFCURVE",
"463 545 OFFCURVE",
"463 625 CURVE SMOOTH",
"463 700 OFFCURVE",
"401 762 OFFCURVE",
"313 762 CURVE SMOOTH"
);
}
);
width = 630;
}
);
unicode = 00B7;
},
{
glyphname = bullet;
layers = (
{
layerId = UUID0;
paths = (
{
closed = 1;
nodes = (
"151 457 OFFCURVE",
"243 365 OFFCURVE",
"358 365 CURVE SMOOTH",
"472 365 OFFCURVE",
"567 457 OFFCURVE",
"567 571 CURVE SMOOTH",
"567 686 OFFCURVE",
"472 780 OFFCURVE",
"358 780 CURVE SMOOTH",
"243 780 OFFCURVE",
"151 686 OFFCURVE",
"151 571 CURVE SMOOTH"
);
}
);
width = 717;
}
);
unicode = 2022;
},
{
glyphname = asterisk;
layers = (
{
layerId = UUID0;
paths = (
{
closed = 1;
nodes = (
"271 1278 LINE",
"257 1290 OFFCURVE",
"240 1292 OFFCURVE",
"228 1292 CURVE SMOOTH",
"212 1292 OFFCURVE",
"195 1282 OFFCURVE",
"181 1257 CURVE SMOOTH",
"130 1167 LINE",
"410 1051 LINE",
"183 948 LINE SMOOTH",
"154 936 OFFCURVE",
"144 918 OFFCURVE",
"144 901 CURVE SMOOTH",
"144 889 OFFCURVE",
"152 874 OFFCURVE",
"162 858 CURVE SMOOTH",
"218 770 LINE",
"451 971 LINE",
"451 971 OFFCURVE",
"416 745 OFFCURVE",
"416 709 CURVE",
"416 672 OFFCURVE",
"439 657 OFFCURVE",
"482 657 CURVE SMOOTH",
"584 657 LINE",
"545 969 LINE",
"713 795 LINE SMOOTH",
"728 778 OFFCURVE",
"742 772 OFFCURVE",
"758 772 CURVE SMOOTH",
"775 772 OFFCURVE",
"789 782 OFFCURVE",
"803 801 CURVE SMOOTH",
"869 885 LINE",
"595 1053 LINE",
"816 1139 LINE SMOOTH",
"842 1149 OFFCURVE",
"853 1169 OFFCURVE",
"853 1188 CURVE SMOOTH",
"853 1200 OFFCURVE",
"848 1212 OFFCURVE",
"838 1229 CURVE SMOOTH",
"785 1317 LINE",
"549 1130 LINE",
"582 1362 LINE SMOOTH",
"588 1409 OFFCURVE",
"564 1427 OFFCURVE",
"517 1427 CURVE SMOOTH",
"414 1427 LINE",
"451 1133 LINE"
);
}
);
width = 999;
}
);
unicode = 002A;
},
{
glyphname = numbersign;
layers = (
{
layerId = UUID0;
paths = (
{
closed = 1;
nodes = (
"980 442 LINE",
"1037 442 OFFCURVE",
"1062 463 OFFCURVE",
"1062 522 CURVE SMOOTH",
"1062 578 LINE",
"865 578 LINE",
"912 829 LINE",
"1035 829 LINE SMOOTH",
"1092 829 OFFCURVE",
"1117 850 OFFCURVE",
"1117 909 CURVE SMOOTH",
"1117 965 LINE",
"937 965 LINE",
"980 1204 OFFCURVE",
"980 1212 OFFCURVE",
"980 1223 CURVE SMOOTH",
"980 1268 OFFCURVE",
"953 1274 OFFCURVE",
"898 1274 CURVE SMOOTH",
"841 1274 LINE",
"783 965 LINE",
"544 965 LINE",
"589 1204 OFFCURVE",
"589 1212 OFFCURVE",
"589 1223 CURVE SMOOTH",
"589 1268 OFFCURVE",
"562 1274 OFFCURVE",
"507 1274 CURVE SMOOTH",
"445 1274 LINE",
"388 965 LINE",
"249 965 LINE SMOOTH",
"191 965 OFFCURVE",
"167 946 OFFCURVE",
"167 887 CURVE SMOOTH",
"167 829 LINE",
"363 829 LINE",
"318 578 LINE",
"193 578 LINE SMOOTH",
"136 578 OFFCURVE",
"111 559 OFFCURVE",
"111 500 CURVE SMOOTH",
"111 442 LINE",
"294 442 LINE",
"251 201 OFFCURVE",
"251 193 OFFCURVE",
"251 186 CURVE SMOOTH",
"251 141 OFFCURVE",
"275 129 OFFCURVE",
"331 129 CURVE SMOOTH",
"390 129 LINE",
"447 442 LINE",
"689 442 LINE",
"646 201 OFFCURVE",
"646 193 OFFCURVE",
"646 186 CURVE SMOOTH",
"646 141 OFFCURVE",
"671 129 OFFCURVE",
"726 129 CURVE SMOOTH",
"785 129 LINE",
"841 442 LINE"
);
},
{
closed = 1;
nodes = (
"519 829 LINE",
"759 829 LINE",
"714 578 LINE",
"472 578 LINE"
);
}
);
width = 1228;
}
);
unicode = 0023;
},
{
glyphname = slash;
layers = (
{
layerId = UUID0;
paths = (
{
closed = 1;
nodes = (
"952 1454 LINE",
"958 1468 OFFCURVE",
"960 1481 OFFCURVE",
"960 1489 CURVE SMOOTH",
"960 1526 OFFCURVE",
"923 1536 OFFCURVE",
"872 1536 CURVE SMOOTH",
"804 1536 LINE",
"71 -164 LINE SMOOTH",
"65 -176 OFFCURVE",
"63 -186 OFFCURVE",
"63 -195 CURVE SMOOTH",
"63 -229 OFFCURVE",
"98 -246 OFFCURVE",
"149 -246 CURVE SMOOTH",
"219 -246 LINE"
);
}
);
width = 1023;
}
);
unicode = 002F;
},
{
glyphname = backslash;
layers = (
{
layerId = UUID0;
paths = (
{
closed = 1;
nodes = (
"280 1493 LINE",
"255 1544 OFFCURVE",
"239 1575 OFFCURVE",
"175 1575 CURVE SMOOTH",
"52 1575 LINE",
"784 82 LINE SMOOTH",
"808 33 OFFCURVE",
"820 0 OFFCURVE",
"880 0 CURVE SMOOTH",
"1015 0 LINE"
);
}
);
width = 1072;
}
);
unicode = 005C;
},
{
glyphname = hyphen;
layers = (
{
layerId = UUID0;
paths = (
{
closed = 1;
nodes = (
"674 551 LINE",
"732 551 OFFCURVE",
"756 571 OFFCURVE",
"756 631 CURVE SMOOTH",
"756 692 LINE",
"250 692 LINE SMOOTH",
"193 692 OFFCURVE",
"168 674 OFFCURVE",
"168 614 CURVE SMOOTH",
"168 551 LINE"
);
}
);
width = 923;
}
);
leftKerningGroup = hyphen;
rightKerningGroup = hyphen;
unicode = 002D;
},
{
glyphname = softhyphen;
layers = (
{
layerId = UUID0;
paths = (
{
closed = 1;
nodes = (
"510 471 LINE",
"567 471 OFFCURVE",
"592 492 OFFCURVE",
"592 551 CURVE SMOOTH",
"592 643 LINE",
"123 643 LINE SMOOTH",
"66 643 OFFCURVE",
"41 625 OFFCURVE",
"41 565 CURVE SMOOTH",
"41 471 LINE"
);
}
);
width = 633;
}
);
leftKerningGroup = hyphen;
rightKerningGroup = hyphen;
unicode = 00AD;
},
{
glyphname = endash;
layers = (
{
layerId = UUID0;
paths = (
{
closed = 1;
nodes = (
"1014 551 LINE",
"1072 551 OFFCURVE",
"1096 571 OFFCURVE",
"1096 631 CURVE SMOOTH",
"1096 692 LINE",
"250 692 LINE SMOOTH",
"193 692 OFFCURVE",
"168 674 OFFCURVE",
"168 614 CURVE SMOOTH",
"168 551 LINE"
);
}
);
width = 1263;
}
);
leftKerningGroup = hyphen;
rightKerningGroup = hyphen;
unicode = 2013;
},
{
glyphname = emdash;
layers = (
{
layerId = UUID0;
paths = (
{
closed = 1;
nodes = (
"1522 551 LINE",
"1580 551 OFFCURVE",
"1604 571 OFFCURVE",
"1604 631 CURVE SMOOTH",
"1604 692 LINE",
"250 692 LINE SMOOTH",
"193 692 OFFCURVE",
"168 674 OFFCURVE",
"168 614 CURVE SMOOTH",
"168 551 LINE"
);
}
);
width = 1771;
}
);
leftKerningGroup = hyphen;
rightKerningGroup = hyphen;
unicode = 2014;
},
{
glyphname = underscore;
layers = (
{
layerId = UUID0;
paths = (
{
closed = 1;
nodes = (
"928 -383 LINE",
"985 -383 OFFCURVE",
"1010 -362 OFFCURVE",
"1010 -303 CURVE SMOOTH",
"1010 -242 LINE",
"205 -242 LINE SMOOTH",
"147 -242 OFFCURVE",
"123 -260 OFFCURVE",
"123 -319 CURVE SMOOTH",
"123 -383 LINE"
);
}
);
width = 1141;
}
);
unicode = 005F;
},
{
glyphname = parenleft;
layers = (
{
layerId = UUID0;
paths = (
{
closed = 1;
nodes = (
"330 1128 OFFCURVE",
"559 1466 OFFCURVE",
"559 1466 CURVE",
"520 1501 LINE SMOOTH",
"512 1507 OFFCURVE",
"504 1509 OFFCURVE",
"493 1509 CURVE SMOOTH",
"469 1509 OFFCURVE",
"436 1493 OFFCURVE",
"405 1454 CURVE SMOOTH",
"399 1454 OFFCURVE",
"131 1157 OFFCURVE",
"131 639 CURVE SMOOTH",
"131 137 OFFCURVE",
"405 -152 OFFCURVE",
"405 -152 CURVE SMOOTH",
"436 -190 OFFCURVE",
"469 -209 OFFCURVE",
"493 -209 CURVE SMOOTH",
"504 -209 OFFCURVE",
"512 -205 OFFCURVE",
"520 -199 CURVE SMOOTH",
"559 -164 LINE",
"559 -164 OFFCURVE",
"330 174 OFFCURVE",
"325 651 CURVE"
);
}
);
width = 662;
}
);
unicode = 0028;
},
{
glyphname = parenright;
layers = (
{
layerId = UUID0;
paths = (
{
closed = 1;
nodes = (
"333 174 OFFCURVE",
"104 -164 OFFCURVE",
"104 -164 CURVE",
"143 -199 LINE SMOOTH",
"149 -205 OFFCURVE",
"159 -209 OFFCURVE",
"169 -209 CURVE SMOOTH",
"194 -209 OFFCURVE",
"225 -190 OFFCURVE",
"257 -152 CURVE",
"264 -152 OFFCURVE",
"532 145 OFFCURVE",
"532 662 CURVE SMOOTH",
"532 1165 OFFCURVE",
"257 1454 OFFCURVE",
"257 1454 CURVE",
"225 1493 OFFCURVE",
"194 1509 OFFCURVE",
"169 1509 CURVE SMOOTH",
"159 1509 OFFCURVE",
"149 1507 OFFCURVE",
"143 1501 CURVE SMOOTH",
"104 1466 LINE",
"104 1466 OFFCURVE",
"333 1128 OFFCURVE",
"337 651 CURVE"
);
}
);
width = 663;
}
);
unicode = 0029;
},
{
glyphname = braceleft;
layers = (
{
layerId = UUID0;
paths = (
{
closed = 1;
nodes = (
"351 1323 LINE SMOOTH",
"349 1434 OFFCURVE",
"386 1442 OFFCURVE",
"459 1442 CURVE SMOOTH",
"572 1442 LINE",
"572 1456 LINE SMOOTH",
"572 1516 OFFCURVE",
"547 1536 OFFCURVE",
"490 1536 CURVE SMOOTH",
"420 1536 LINE SMOOTH",
"308 1536 OFFCURVE",
"201 1495 OFFCURVE",
"203 1325 CURVE SMOOTH",
"207 864 LINE",
"207 705 OFFCURVE",
"103 715 OFFCURVE",
"103 647 CURVE SMOOTH",
"103 612 LINE",
"134 598 OFFCURVE",
"201 565 OFFCURVE",
"203 430 CURVE SMOOTH",
"207 -31 LINE SMOOTH",
"209 -201 OFFCURVE",
"304 -242 OFFCURVE",
"420 -242 CURVE SMOOTH",
"490 -242 LINE SMOOTH",
"547 -242 OFFCURVE",
"572 -221 OFFCURVE",
"572 -162 CURVE SMOOTH",
"572 -147 LINE",
"459 -147 LINE SMOOTH",
"383 -147 OFFCURVE",
"355 -139 OFFCURVE",
"355 -29 CURVE SMOOTH",
"351 428 LINE SMOOTH",
"349 600 OFFCURVE",
"236 645 OFFCURVE",
"228 647 CURVE",
"242 651 OFFCURVE",
"355 698 OFFCURVE",
"355 866 CURVE"
);
}
);
width = 646;
}
);
unicode = 007B;
},
{
glyphname = braceright;
layers = (
{
layerId = UUID0;
paths = (
{
closed = 1;
nodes = (
"295 1323 LINE SMOOTH",
"297 1434 OFFCURVE",
"260 1442 OFFCURVE",
"187 1442 CURVE SMOOTH",
"74 1442 LINE",
"74 1456 LINE SMOOTH",
"74 1516 OFFCURVE",
"98 1536 OFFCURVE",
"156 1536 CURVE SMOOTH",
"225 1536 LINE SMOOTH",
"338 1536 OFFCURVE",
"445 1495 OFFCURVE",
"443 1325 CURVE SMOOTH",
"438 864 LINE",
"438 705 OFFCURVE",
"543 715 OFFCURVE",
"543 647 CURVE SMOOTH",
"543 612 LINE",
"512 598 OFFCURVE",
"445 565 OFFCURVE",
"443 430 CURVE SMOOTH",
"438 -31 LINE SMOOTH",
"436 -201 OFFCURVE",
"342 -242 OFFCURVE",
"225 -242 CURVE SMOOTH",
"156 -242 LINE SMOOTH",
"98 -242 OFFCURVE",
"74 -221 OFFCURVE",
"74 -162 CURVE SMOOTH",
"74 -147 LINE",
"187 -147 LINE SMOOTH",
"262 -147 OFFCURVE",
"291 -139 OFFCURVE",
"291 -29 CURVE SMOOTH",
"295 428 LINE SMOOTH",
"297 600 OFFCURVE",
"410 645 OFFCURVE",
"418 647 CURVE",
"404 651 OFFCURVE",
"291 698 OFFCURVE",
"291 866 CURVE"
);
}
);
width = 647;
}
);
unicode = 007D;
},
{
glyphname = bracketleft;
layers = (
{
layerId = UUID0;
paths = (
{
closed = 1;
nodes = (
"346 -143 LINE",
"346 1442 LINE",
"568 1442 LINE",
"568 1456 LINE SMOOTH",
"568 1516 OFFCURVE",
"543 1536 OFFCURVE",
"486 1536 CURVE SMOOTH",
"199 1536 LINE",
"199 -238 LINE",
"486 -238 LINE SMOOTH",
"543 -238 OFFCURVE",
"568 -217 OFFCURVE",
"568 -158 CURVE SMOOTH",
"568 -143 LINE"
);
}
);
width = 642;
}
);
unicode = 005B;
},
{
glyphname = bracketright;
layers = (
{
layerId = UUID0;
paths = (
{
closed = 1;
nodes = (
"75 -143 LINE",
"75 -158 LINE SMOOTH",
"75 -217 OFFCURVE",
"99 -238 OFFCURVE",
"157 -238 CURVE SMOOTH",
"444 -238 LINE",
"444 1536 LINE",
"157 1536 LINE SMOOTH",
"99 1536 OFFCURVE",
"75 1516 OFFCURVE",
"75 1456 CURVE SMOOTH",
"75 1442 LINE",
"296 1442 LINE",
"296 -143 LINE"
);
}
);
width = 643;
}
);
unicode = 005D;
},
{
glyphname = quotesinglbase;
layers = (
{
layerId = UUID0;
paths = (
{
closed = 1;
nodes = (
"433 178 OFFCURVE",
"384 240 OFFCURVE",
"296 240 CURVE SMOOTH",
"210 240 OFFCURVE",
"150 178 OFFCURVE",
"150 102 CURVE SMOOTH",
"150 23 OFFCURVE",
"210 -39 OFFCURVE",
"296 -39 CURVE SMOOTH",
"300 -39 OFFCURVE",
"306 -39 OFFCURVE",
"308 -37 CURVE",
"308 -125 OFFCURVE",
"246 -207 OFFCURVE",
"183 -246 CURVE",
"183 -301 LINE SMOOTH",
"183 -326 OFFCURVE",
"195 -332 OFFCURVE",
"208 -332 CURVE SMOOTH",
"216 -332 OFFCURVE",
"222 -330 OFFCURVE",
"226 -328 CURVE SMOOTH",
"390 -268 OFFCURVE",
"453 -96 OFFCURVE",
"453 37 CURVE SMOOTH",
"453 59 OFFCURVE",
"451 82 OFFCURVE",
"447 102 CURVE SMOOTH"
);
}
);
width = 599;
}
);
leftKerningGroup = comma;
rightKerningGroup = comma;
unicode = 201A;
},
{
glyphname = quotedblbase;
layers = (
{
layerId = UUID0;
paths = (
{
closed = 1;
nodes = (
"433 178 OFFCURVE",
"384 240 OFFCURVE",
"296 240 CURVE SMOOTH",
"210 240 OFFCURVE",
"150 178 OFFCURVE",
"150 102 CURVE SMOOTH",
"150 23 OFFCURVE",
"210 -39 OFFCURVE",
"296 -39 CURVE SMOOTH",
"300 -39 OFFCURVE",
"306 -39 OFFCURVE",
"308 -37 CURVE",
"308 -125 OFFCURVE",
"246 -207 OFFCURVE",
"183 -246 CURVE",
"183 -301 LINE SMOOTH",
"183 -326 OFFCURVE",
"195 -332 OFFCURVE",
"208 -332 CURVE SMOOTH",
"216 -332 OFFCURVE",
"222 -330 OFFCURVE",
"226 -328 CURVE SMOOTH",
"390 -268 OFFCURVE",
"453 -96 OFFCURVE",
"453 37 CURVE SMOOTH",
"453 59 OFFCURVE",
"451 82 OFFCURVE",
"447 102 CURVE SMOOTH"
);
},
{
closed = 1;
nodes = (
"853 178 OFFCURVE",
"804 240 OFFCURVE",
"715 240 CURVE SMOOTH",
"629 240 OFFCURVE",
"570 178 OFFCURVE",
"570 102 CURVE SMOOTH",
"570 23 OFFCURVE",
"629 -39 OFFCURVE",
"715 -39 CURVE SMOOTH",
"720 -39 OFFCURVE",
"726 -39 OFFCURVE",
"728 -37 CURVE",
"728 -125 OFFCURVE",
"666 -207 OFFCURVE",
"603 -246 CURVE",
"603 -301 LINE SMOOTH",
"603 -326 OFFCURVE",
"615 -332 OFFCURVE",
"627 -332 CURVE SMOOTH",
"636 -332 OFFCURVE",
"642 -330 OFFCURVE",
"646 -328 CURVE SMOOTH",
"810 -268 OFFCURVE",
"873 -96 OFFCURVE",
"873 37 CURVE SMOOTH",
"873 59 OFFCURVE",
"871 82 OFFCURVE",
"867 102 CURVE SMOOTH"
);
}
);
width = 1018;
}
);
leftKerningGroup = comma;
rightKerningGroup = comma;
unicode = 201E;
},
{
glyphname = quotedblleft;
layers = (
{
layerId = UUID0;
paths = (
{
closed = 1;
nodes = (
"160 1026 OFFCURVE",
"209 965 OFFCURVE",
"297 965 CURVE SMOOTH",
"383 965 OFFCURVE",
"442 1026 OFFCURVE",
"442 1102 CURVE SMOOTH",
"442 1182 OFFCURVE",
"383 1243 OFFCURVE",
"297 1243 CURVE SMOOTH",
"293 1243 OFFCURVE",
"287 1243 OFFCURVE",
"285 1241 CURVE",
"285 1329 OFFCURVE",
"346 1411 OFFCURVE",
"410 1450 CURVE",
"410 1505 LINE SMOOTH",
"410 1530 OFFCURVE",
"397 1536 OFFCURVE",
"385 1536 CURVE SMOOTH",
"377 1536 OFFCURVE",
"371 1534 OFFCURVE",
"367 1532 CURVE SMOOTH",
"203 1473 OFFCURVE",
"139 1300 OFFCURVE",
"139 1167 CURVE SMOOTH",
"139 1145 OFFCURVE",
"141 1122 OFFCURVE",
"145 1102 CURVE SMOOTH"
);
},
{
closed = 1;
nodes = (
"578 1026 OFFCURVE",
"627 965 OFFCURVE",
"715 965 CURVE SMOOTH",
"801 965 OFFCURVE",
"860 1026 OFFCURVE",
"860 1102 CURVE SMOOTH",
"860 1182 OFFCURVE",
"801 1243 OFFCURVE",
"715 1243 CURVE SMOOTH",
"711 1243 OFFCURVE",
"705 1243 OFFCURVE",
"703 1241 CURVE",
"703 1329 OFFCURVE",
"764 1411 OFFCURVE",
"827 1450 CURVE",
"827 1505 LINE SMOOTH",
"827 1530 OFFCURVE",
"815 1536 OFFCURVE",
"803 1536 CURVE SMOOTH",
"795 1536 OFFCURVE",
"789 1534 OFFCURVE",
"784 1532 CURVE SMOOTH",
"621 1473 OFFCURVE",
"557 1300 OFFCURVE",
"557 1167 CURVE SMOOTH",
"557 1145 OFFCURVE",
"559 1122 OFFCURVE",
"563 1102 CURVE SMOOTH"
);
}
);
width = 990;
}
);
leftKerningGroup = quoteleft;
rightKerningGroup = quoteleft;
unicode = 201C;
},
{
glyphname = quotedblright;
layers = (
{
layerId = UUID0;
paths = (
{
closed = 1;
nodes = (
"844 1475 OFFCURVE",
"795 1536 OFFCURVE",
"707 1536 CURVE SMOOTH",
"621 1536 OFFCURVE",
"561 1475 OFFCURVE",
"561 1399 CURVE SMOOTH",
"561 1319 OFFCURVE",
"621 1257 OFFCURVE",
"707 1257 CURVE SMOOTH",
"711 1257 OFFCURVE",
"717 1257 OFFCURVE",
"719 1260 CURVE",
"719 1171 OFFCURVE",
"657 1090 OFFCURVE",
"594 1051 CURVE",
"594 995 LINE SMOOTH",
"594 971 OFFCURVE",
"606 965 OFFCURVE",
"618 965 CURVE SMOOTH",
"627 965 OFFCURVE",
"633 967 OFFCURVE",
"637 969 CURVE SMOOTH",
"801 1028 OFFCURVE",
"864 1200 OFFCURVE",
"864 1333 CURVE SMOOTH",
"864 1356 OFFCURVE",
"862 1378 OFFCURVE",
"858 1399 CURVE SMOOTH"
);
},
{
closed = 1;
nodes = (
"426 1475 OFFCURVE",
"377 1536 OFFCURVE",
"289 1536 CURVE SMOOTH",
"203 1536 OFFCURVE",
"143 1475 OFFCURVE",
"143 1399 CURVE SMOOTH",
"143 1319 OFFCURVE",
"203 1257 OFFCURVE",
"289 1257 CURVE SMOOTH",
"293 1257 OFFCURVE",
"299 1257 OFFCURVE",
"301 1260 CURVE",
"301 1171 OFFCURVE",
"240 1090 OFFCURVE",
"176 1051 CURVE",
"176 995 LINE SMOOTH",
"176 971 OFFCURVE",
"188 965 OFFCURVE",
"201 965 CURVE SMOOTH",
"209 965 OFFCURVE",
"215 967 OFFCURVE",
"219 969 CURVE SMOOTH",
"383 1028 OFFCURVE",
"446 1200 OFFCURVE",
"446 1333 CURVE SMOOTH",
"446 1356 OFFCURVE",
"444 1378 OFFCURVE",
"440 1399 CURVE SMOOTH"
);
}
);
width = 984;
}
);
leftKerningGroup = quoteright;
rightKerningGroup = quoteright;
unicode = 201D;
},
{
glyphname = quoteleft;
layers = (
{
layerId = UUID0;
paths = (
{
closed = 1;
nodes = (
"160 1026 OFFCURVE",
"209 965 OFFCURVE",
"297 965 CURVE SMOOTH",
"383 965 OFFCURVE",
"442 1026 OFFCURVE",
"442 1102 CURVE SMOOTH",
"442 1182 OFFCURVE",
"383 1243 OFFCURVE",
"297 1243 CURVE SMOOTH",
"293 1243 OFFCURVE",
"287 1243 OFFCURVE",
"285 1241 CURVE",
"285 1329 OFFCURVE",
"346 1411 OFFCURVE",
"410 1450 CURVE",
"410 1505 LINE SMOOTH",
"410 1530 OFFCURVE",
"397 1536 OFFCURVE",
"385 1536 CURVE SMOOTH",
"377 1536 OFFCURVE",
"371 1534 OFFCURVE",
"367 1532 CURVE SMOOTH",
"203 1473 OFFCURVE",
"139 1300 OFFCURVE",
"139 1167 CURVE SMOOTH",
"139 1145 OFFCURVE",
"141 1122 OFFCURVE",
"145 1102 CURVE"
);
}
);
width = 574;
}
);
leftKerningGroup = quoteleft;
rightKerningGroup = quoteleft;
unicode = 2018;
},
{
glyphname = quoteright;
layers = (
{
layerId = UUID0;
paths = (
{
closed = 1;
nodes = (
"426 1475 OFFCURVE",
"377 1536 OFFCURVE",
"289 1536 CURVE SMOOTH",
"203 1536 OFFCURVE",
"143 1475 OFFCURVE",
"143 1399 CURVE SMOOTH",
"143 1319 OFFCURVE",
"203 1257 OFFCURVE",
"289 1257 CURVE SMOOTH",
"293 1257 OFFCURVE",
"299 1257 OFFCURVE",
"301 1260 CURVE",
"301 1171 OFFCURVE",
"240 1090 OFFCURVE",
"176 1051 CURVE",
"176 995 LINE SMOOTH",
"176 971 OFFCURVE",
"188 965 OFFCURVE",
"201 965 CURVE SMOOTH",
"209 965 OFFCURVE",
"215 967 OFFCURVE",
"219 969 CURVE SMOOTH",
"383 1028 OFFCURVE",
"446 1200 OFFCURVE",
"446 1333 CURVE SMOOTH",
"446 1356 OFFCURVE",
"444 1378 OFFCURVE",
"440 1399 CURVE SMOOTH"
);
}
);
width = 566;
}
);
leftKerningGroup = quoteright;
rightKerningGroup = quoteright;
unicode = 2019;
},
{
glyphname = guillemetleft;
layers = (
{
layerId = UUID0;
paths = (
{
closed = 1;
nodes = (
"698 233 LINE SMOOTH",
"709 219 OFFCURVE",
"721 213 OFFCURVE",
"731 213 CURVE SMOOTH",
"752 213 OFFCURVE",
"768 236 OFFCURVE",
"834 297 CURVE",
"627 555 LINE",
"834 817 LINE",
"764 877 OFFCURVE",
"743 891 OFFCURVE",
"727 891 CURVE SMOOTH",
"715 891 OFFCURVE",
"705 885 OFFCURVE",
"692 870 CURVE SMOOTH",
"489 618 LINE SMOOTH",
"455 575 OFFCURVE",
"453 553 OFFCURVE",
"453 526 CURVE"
);
},
{
closed = 1;
nodes = (
"408 176 LINE SMOOTH",
"420 162 OFFCURVE",
"430 156 OFFCURVE",
"440 156 CURVE SMOOTH",
"461 156 OFFCURVE",
"477 178 OFFCURVE",
"543 240 CURVE",
"289 555 LINE",
"545 877 LINE",
"475 936 OFFCURVE",
"455 950 OFFCURVE",
"438 950 CURVE SMOOTH",
"426 950 OFFCURVE",
"416 944 OFFCURVE",
"403 930 CURVE SMOOTH",
"152 618 LINE SMOOTH",
"117 575 OFFCURVE",
"115 553 OFFCURVE",
"115 526 CURVE"
);
}
);
width = 981;
}
);
leftKerningGroup = guilsinglleft;
rightKerningGroup = guilsinglleft;
unicode = 00AB;
},
{
glyphname = guillemetright;
layers = (
{
layerId = UUID0;
paths = (
{
closed = 1;
nodes = (
"281 233 LINE SMOOTH",
"271 219 OFFCURVE",
"259 213 OFFCURVE",
"249 213 CURVE SMOOTH",
"228 213 OFFCURVE",
"212 236 OFFCURVE",
"146 297 CURVE",
"353 555 LINE",
"146 817 LINE",
"216 877 OFFCURVE",
"236 891 OFFCURVE",
"253 891 CURVE SMOOTH",
"265 891 OFFCURVE",
"275 885 OFFCURVE",
"288 870 CURVE SMOOTH",
"490 618 LINE SMOOTH",
"525 575 OFFCURVE",
"527 553 OFFCURVE",
"527 526 CURVE"
);
},
{
closed = 1;
nodes = (
"572 176 LINE SMOOTH",
"560 162 OFFCURVE",
"550 156 OFFCURVE",
"539 156 CURVE SMOOTH",
"519 156 OFFCURVE",
"503 178 OFFCURVE",
"437 240 CURVE",
"691 555 LINE",
"435 877 LINE",
"505 936 OFFCURVE",
"525 950 OFFCURVE",
"541 950 CURVE SMOOTH",
"554 950 OFFCURVE",
"564 944 OFFCURVE",
"576 930 CURVE SMOOTH",
"828 618 LINE SMOOTH",
"863 575 OFFCURVE",
"865 553 OFFCURVE",
"865 526 CURVE"
);
}
);
width = 980;
}
);
leftKerningGroup = guilsinglright;
rightKerningGroup = guilsinglright;
unicode = 00BB;
},
{
glyphname = guilsinglleft;
layers = (
{
layerId = UUID0;
paths = (
{
closed = 1;
nodes = (
"319 559 LINE",
"476 860 LINE SMOOTH",
"486 879 OFFCURVE",
"493 897 OFFCURVE",
"493 911 CURVE SMOOTH",
"493 952 OFFCURVE",
"460 973 OFFCURVE",
"460 973 CURVE",
"112 612 LINE",
"112 496 LINE",
"460 135 LINE",
"460 135 OFFCURVE",
"493 156 OFFCURVE",
"493 197 CURVE SMOOTH",
"493 211 OFFCURVE",
"486 227 OFFCURVE",
"476 248 CURVE SMOOTH",
"319 549 LINE"
);
}
);
width = 656;
}
);
leftKerningGroup = guillemotleft;
rightKerningGroup = guillemotleft;
unicode = 2039;
},
{
glyphname = guilsinglright;
layers = (
{
layerId = UUID0;
paths = (
{
closed = 1;
nodes = (
"337 549 LINE",
"180 248 LINE SMOOTH",
"167 227 OFFCURVE",
"163 211 OFFCURVE",
"163 197 CURVE SMOOTH",
"163 156 OFFCURVE",
"196 135 OFFCURVE",
"196 135 CURVE",
"544 496 LINE",
"544 612 LINE",
"196 973 LINE",
"196 973 OFFCURVE",
"163 952 OFFCURVE",
"163 911 CURVE SMOOTH",
"163 897 OFFCURVE",
"169 881 OFFCURVE",
"180 860 CURVE SMOOTH",
"337 559 LINE"
);
}
);
width = 656;
}
);
rightKerningGroup = guillemotright;
unicode = 203A;
},
{
glyphname = quotedbl;
layers = (
{
layerId = UUID0;
paths = (
{
closed = 1;
nodes = (
"361 1331 LINE",
"361 1343 LINE SMOOTH",
"361 1393 OFFCURVE",
"336 1413 OFFCURVE",
"281 1413 CURVE SMOOTH",
"154 1413 LINE",
"183 979 LINE SMOOTH",
"187 922 OFFCURVE",
"201 897 OFFCURVE",
"260 897 CURVE SMOOTH",
"330 897 LINE"
);
},
{
closed = 1;
nodes = (
"746 1331 LINE",
"746 1343 LINE SMOOTH",
"746 1393 OFFCURVE",
"721 1413 OFFCURVE",
"666 1413 CURVE SMOOTH",
"539 1413 LINE",
"568 979 LINE SMOOTH",
"572 922 OFFCURVE",
"586 897 OFFCURVE",
"645 897 CURVE SMOOTH",
"715 897 LINE"
);
}
);
width = 906;
}
);
leftKerningGroup = quotedbl;
rightKerningGroup = quotedbl;
unicode = 0022;
},
{
glyphname = quotesingle;
layers = (
{
layerId = UUID0;
paths = (
{
closed = 1;
nodes = (
"361 1331 LINE",
"361 1343 LINE SMOOTH",
"361 1393 OFFCURVE",
"336 1413 OFFCURVE",
"281 1413 CURVE SMOOTH",
"154 1413 LINE",
"183 979 LINE SMOOTH",
"187 922 OFFCURVE",
"201 897 OFFCURVE",
"260 897 CURVE SMOOTH",
"330 897 LINE"
);
}
);
width = 521;
}
);
leftKerningGroup = quotedbl;
rightKerningGroup = quotedbl;
unicode = 0027;
},
{
glyphname = at;
layers = (
{
layerId = UUID0;
paths = (
{
closed = 1;
nodes = (
"494 1450 OFFCURVE",
"96 1085 OFFCURVE",
"96 590 CURVE SMOOTH",
"96 35 OFFCURVE",
"514 -274 OFFCURVE",
"971 -274 CURVE SMOOTH",
"1184 -274 OFFCURVE",
"1407 -207 OFFCURVE",
"1606 -68 CURVE",
"1558 6 LINE",
"1384 -111 OFFCURVE",
"1190 -168 OFFCURVE",
"1003 -168 CURVE SMOOTH",
"625 -168 OFFCURVE",
"264 82 OFFCURVE",
"264 590 CURVE SMOOTH",
"264 1065 OFFCURVE",
"645 1335 OFFCURVE",
"1008 1335 CURVE SMOOTH",
"1364 1335 OFFCURVE",
"1647 1124 OFFCURVE",
"1647 723 CURVE SMOOTH",
"1647 424 OFFCURVE",
"1483 274 OFFCURVE",
"1380 274 CURVE SMOOTH",
"1282 274 OFFCURVE",
"1257 348 OFFCURVE",
"1257 426 CURVE SMOOTH",
"1257 465 OFFCURVE",
"1264 506 OFFCURVE",
"1270 539 CURVE SMOOTH",
"1356 967 LINE SMOOTH",
"1358 975 OFFCURVE",
"1358 981 OFFCURVE",
"1358 989 CURVE SMOOTH",
"1358 1081 OFFCURVE",
"1225 1098 OFFCURVE",
"1225 1098 CURVE",
"1208 1024 LINE",
"1180 1051 OFFCURVE",
"1120 1075 OFFCURVE",
"1053 1075 CURVE SMOOTH",
"680 1075 OFFCURVE",
"534 721 OFFCURVE",
"534 504 CURVE SMOOTH",
"534 268 OFFCURVE",
"682 156 OFFCURVE",
"844 156 CURVE SMOOTH",
"977 156 OFFCURVE",
"1065 236 OFFCURVE",
"1118 342 CURVE",
"1128 342 LINE",
"1167 225 OFFCURVE",
"1245 156 OFFCURVE",
"1368 156 CURVE SMOOTH",
"1542 156 OFFCURVE",
"1780 365 OFFCURVE",
"1780 717 CURVE SMOOTH",
"1780 1178 OFFCURVE",
"1446 1450 OFFCURVE",
"1012 1450 CURVE SMOOTH"
);
},
{
closed = 1;
nodes = (
"727 657 OFFCURVE",
"831 991 OFFCURVE",
"1061 991 CURVE SMOOTH",
"1110 991 OFFCURVE",
"1165 963 OFFCURVE",
"1182 924 CURVE",
"1098 518 LINE",
"1075 393 OFFCURVE",
"1016 264 OFFCURVE",
"879 264 CURVE SMOOTH",
"799 264 OFFCURVE",
"727 326 OFFCURVE",
"727 485 CURVE SMOOTH"
);
}
);
width = 1874;
}
);
unicode = 0040;
},
{
glyphname = ampersand;
layers = (
{
layerId = UUID0;
paths = (
{
closed = 1;
nodes = (
"1199 745 LINE",
"1218 754 OFFCURVE",
"1234 758 OFFCURVE",
"1248 758 CURVE SMOOTH",
"1295 758 OFFCURVE",
"1322 715 OFFCURVE",
"1322 651 CURVE SMOOTH",
"1322 543 OFFCURVE",
"1248 373 OFFCURVE",
"1111 227 CURVE",
"1173 156 OFFCURVE",
"1244 76 OFFCURVE",
"1285 41 CURVE",
"1244 -12 OFFCURVE",
"1201 -39 OFFCURVE",
"1156 -39 CURVE SMOOTH",
"1111 -39 OFFCURVE",
"1066 -14 OFFCURVE",
"1025 35 CURVE SMOOTH",
"968 102 LINE",
"857 16 OFFCURVE",
"732 -39 OFFCURVE",
"589 -39 CURVE SMOOTH",
"327 -39 OFFCURVE",
"104 92 OFFCURVE",
"104 360 CURVE SMOOTH",
"104 553 OFFCURVE",
"255 655 OFFCURVE",
"429 748 CURVE",
"337 858 LINE SMOOTH",
"269 940 OFFCURVE",
"241 1024 OFFCURVE",
"241 1098 CURVE SMOOTH",
"241 1296 OFFCURVE",
"439 1450 OFFCURVE",
"652 1450 CURVE SMOOTH",
"876 1450 OFFCURVE",
"1013 1319 OFFCURVE",
"1013 1122 CURVE SMOOTH",
"1013 938 OFFCURVE",
"869 848 OFFCURVE",
"679 743 CURVE",
"790 614 OFFCURVE",
"917 457 OFFCURVE",
"1029 322 CURVE",
"1072 393 OFFCURVE",
"1093 481 OFFCURVE",
"1093 563 CURVE SMOOTH",
"1093 608 OFFCURVE",
"1087 651 OFFCURVE",
"1074 690 CURVE"
);
},
{
closed = 1;
nodes = (
"716 90 OFFCURVE",
"814 127 OFFCURVE",
"898 186 CURVE",
"513 647 LINE",
"384 563 OFFCURVE",
"294 477 OFFCURVE",
"294 371 CURVE SMOOTH",
"294 188 OFFCURVE",
"452 90 OFFCURVE",
"599 90 CURVE SMOOTH"
);
},
{
closed = 1;
nodes = (
"613 842 LINE",
"747 913 OFFCURVE",
"859 997 OFFCURVE",
"859 1130 CURVE SMOOTH",
"859 1241 OFFCURVE",
"761 1333 OFFCURVE",
"640 1333 CURVE SMOOTH",
"525 1333 OFFCURVE",
"409 1251 OFFCURVE",
"409 1126 CURVE SMOOTH",
"409 1053 OFFCURVE",
"468 981 OFFCURVE",
"599 834 CURVE"
);
}
);
width = 1407;
}
);
unicode = 0026;
},
{
glyphname = paragraph;
layers = (
{
layerId = UUID0;
paths = (
{
closed = 1;
nodes = (
"72 840 OFFCURVE",
"291 772 OFFCURVE",
"543 772 CURVE",
"543 -125 LINE",
"355 -125 LINE",
"355 -201 LINE",
"400 -225 OFFCURVE",
"468 -248 OFFCURVE",
"558 -248 CURVE SMOOTH",
"637 -248 OFFCURVE",
"697 -231 OFFCURVE",
"697 -152 CURVE SMOOTH",
"697 1413 LINE",
"889 1413 LINE",
"889 -152 LINE SMOOTH",
"889 -231 OFFCURVE",
"949 -248 OFFCURVE",
"1029 -248 CURVE SMOOTH",
"1119 -248 OFFCURVE",
"1184 -225 OFFCURVE",
"1231 -201 CURVE",
"1231 -125 LINE",
"1043 -125 LINE",
"1043 1413 LINE",
"1231 1413 LINE",
"1231 1489 LINE",
"1184 1513 OFFCURVE",
"1119 1536 OFFCURVE",
"1029 1536 CURVE SMOOTH",
"543 1536 LINE SMOOTH",
"291 1536 OFFCURVE",
"72 1466 OFFCURVE",
"72 1153 CURVE SMOOTH"
);
}
);
width = 1331;
}
);
unicode = 00B6;
},
{
glyphname = section;
layers = (
{
layerId = UUID0;
paths = (
{
closed = 1;
nodes = (
"860 1081 OFFCURVE",
"323 1071 OFFCURVE",
"323 1290 CURVE SMOOTH",
"323 1382 OFFCURVE",
"393 1423 OFFCURVE",
"469 1423 CURVE SMOOTH",
"579 1423 OFFCURVE",
"667 1362 OFFCURVE",
"749 1317 CURVE",
"803 1411 LINE SMOOTH",
"811 1423 OFFCURVE",
"813 1436 OFFCURVE",
"813 1446 CURVE SMOOTH",
"813 1534 OFFCURVE",
"620 1536 OFFCURVE",
"540 1536 CURVE SMOOTH",
"370 1536 OFFCURVE",
"166 1460 OFFCURVE",
"166 1253 CURVE SMOOTH",
"166 1167 OFFCURVE",
"194 1073 OFFCURVE",
"323 987 CURVE",
"227 944 OFFCURVE",
"155 862 OFFCURVE",
"155 737 CURVE SMOOTH",
"155 625 OFFCURVE",
"186 524 OFFCURVE",
"428 383 CURVE SMOOTH",
"545 313 OFFCURVE",
"692 268 OFFCURVE",
"692 172 CURVE SMOOTH",
"692 80 OFFCURVE",
"600 47 OFFCURVE",
"528 47 CURVE SMOOTH",
"381 47 OFFCURVE",
"213 217 OFFCURVE",
"213 217 CURVE",
"143 111 LINE SMOOTH",
"137 100 OFFCURVE",
"133 92 OFFCURVE",
"133 84 CURVE SMOOTH",
"133 61 OFFCURVE",
"155 43 OFFCURVE",
"176 29 CURVE SMOOTH",
"282 -43 OFFCURVE",
"403 -72 OFFCURVE",
"522 -72 CURVE SMOOTH",
"698 -72 OFFCURVE",
"850 31 OFFCURVE",
"850 221 CURVE SMOOTH",
"850 332 OFFCURVE",
"784 414 OFFCURVE",
"688 469 CURVE",
"792 518 OFFCURVE",
"860 614 OFFCURVE",
"860 752 CURVE SMOOTH"
);
},
{
closed = 1;
nodes = (
"702 623 OFFCURVE",
"637 567 OFFCURVE",
"553 537 CURVE",
"440 598 OFFCURVE",
"313 639 OFFCURVE",
"313 766 CURVE SMOOTH",
"313 846 OFFCURVE",
"368 897 OFFCURVE",
"444 924 CURVE",
"567 870 OFFCURVE",
"702 805 OFFCURVE",
"702 705 CURVE SMOOTH"
);
}
);
width = 998;
}
);
unicode = 00A7;
},
{
glyphname = copyright;
layers = (
{
layerId = UUID0;
paths = (
{
closed = 1;
nodes = (
"1180 1036 OFFCURVE",
"1182 1042 OFFCURVE",
"1182 1049 CURVE SMOOTH",
"1182 1094 OFFCURVE",
"1039 1118 OFFCURVE",
"959 1118 CURVE SMOOTH",
"691 1118 OFFCURVE",
"476 958 OFFCURVE",
"476 686 CURVE SMOOTH",
"476 426 OFFCURVE",
"685 264 OFFCURVE",
"928 264 CURVE SMOOTH",
"1033 264 OFFCURVE",
"1147 289 OFFCURVE",
"1233 346 CURVE",
"1209 399 LINE",
"1145 375 OFFCURVE",
"1063 365 OFFCURVE",
"994 365 CURVE SMOOTH",
"803 365 OFFCURVE",
"656 494 OFFCURVE",
"656 745 CURVE SMOOTH",
"656 877 OFFCURVE",
"717 1024 OFFCURVE",
"859 1024 CURVE SMOOTH",
"951 1024 OFFCURVE",
"1047 963 OFFCURVE",
"1121 926 CURVE"
);
},
{
closed = 1;
nodes = (
"214 700 LINE",
"214 1149 OFFCURVE",
"500 1397 OFFCURVE",
"910 1397 CURVE SMOOTH",
"1317 1397 OFFCURVE",
"1604 1149 OFFCURVE",
"1604 700 CURVE SMOOTH",
"1604 254 OFFCURVE",
"1317 6 OFFCURVE",
"910 6 CURVE SMOOTH",
"500 6 OFFCURVE",
"214 254 OFFCURVE",
"214 702 CURVE"
);
},
{
closed = 1;
nodes = (
"1707 700 LINE",
"1707 1188 OFFCURVE",
"1362 1499 OFFCURVE",
"908 1499 CURVE SMOOTH",
"455 1499 OFFCURVE",
"111 1188 OFFCURVE",
"111 700 CURVE SMOOTH",
"111 215 OFFCURVE",
"455 -96 OFFCURVE",
"908 -96 CURVE SMOOTH",
"1362 -96 OFFCURVE",
"1707 215 OFFCURVE",
"1707 702 CURVE"
);
}
);
width = 1818;
}
);
unicode = 00A9;
},
{
glyphname = registered;
layers = (
{
layerId = UUID0;
paths = (
{
closed = 1;
nodes = (
"1121 301 LINE",
"1139 270 OFFCURVE",
"1164 260 OFFCURVE",
"1186 260 CURVE SMOOTH",
"1248 260 OFFCURVE",
"1328 344 OFFCURVE",
"1367 397 CURVE",
"1338 436 LINE",
"1244 367 LINE",
"1070 621 LINE",
"1176 657 OFFCURVE",
"1235 743 OFFCURVE",
"1235 862 CURVE SMOOTH",
"1235 1026 OFFCURVE",
"1111 1114 OFFCURVE",
"918 1114 CURVE SMOOTH",
"695 1114 LINE SMOOTH",
"617 1114 OFFCURVE",
"543 1098 OFFCURVE",
"519 1085 CURVE",
"519 1038 LINE",
"633 1038 LINE",
"633 322 LINE SMOOTH",
"633 289 OFFCURVE",
"644 274 OFFCURVE",
"678 274 CURVE SMOOTH",
"777 274 LINE",
"777 600 LINE",
"934 600 LINE"
);
},
{
closed = 1;
nodes = (
"777 1034 LINE",
"934 1034 LINE SMOOTH",
"1043 1034 OFFCURVE",
"1090 936 OFFCURVE",
"1090 858 CURVE SMOOTH",
"1090 778 OFFCURVE",
"1043 682 OFFCURVE",
"918 682 CURVE SMOOTH",
"777 682 LINE"
);
},
{
closed = 1;
nodes = (
"214 700 LINE",
"214 1149 OFFCURVE",
"500 1397 OFFCURVE",
"910 1397 CURVE SMOOTH",
"1317 1397 OFFCURVE",
"1604 1149 OFFCURVE",
"1604 700 CURVE SMOOTH",
"1604 254 OFFCURVE",
"1317 6 OFFCURVE",
"910 6 CURVE SMOOTH",
"500 6 OFFCURVE",
"214 254 OFFCURVE",
"214 702 CURVE"
);
},
{
closed = 1;
nodes = (
"1707 700 LINE",
"1707 1188 OFFCURVE",
"1362 1499 OFFCURVE",
"908 1499 CURVE SMOOTH",
"455 1499 OFFCURVE",
"111 1188 OFFCURVE",
"111 700 CURVE SMOOTH",
"111 215 OFFCURVE",
"455 -96 OFFCURVE",
"908 -96 CURVE SMOOTH",
"1362 -96 OFFCURVE",
"1707 215 OFFCURVE",
"1707 702 CURVE"
);
}
);
width = 1818;
}
);
unicode = 00AE;
},
{
glyphname = degree;
layers = (
{
layerId = UUID0;
paths = (
{
closed = 1;
nodes = (
"126 913 OFFCURVE",
"269 770 OFFCURVE",
"447 770 CURVE SMOOTH",
"626 770 OFFCURVE",
"769 913 OFFCURVE",
"769 1092 CURVE SMOOTH",
"769 1270 OFFCURVE",
"626 1413 OFFCURVE",
"447 1413 CURVE SMOOTH",
"269 1413 OFFCURVE",
"126 1270 OFFCURVE",
"126 1092 CURVE SMOOTH"
);
},
{
closed = 1;
nodes = (
"232 1210 OFFCURVE",
"329 1307 OFFCURVE",
"447 1307 CURVE SMOOTH",
"566 1307 OFFCURVE",
"662 1210 OFFCURVE",
"662 1092 CURVE SMOOTH",
"662 973 OFFCURVE",
"566 877 OFFCURVE",
"447 877 CURVE SMOOTH",
"329 877 OFFCURVE",
"232 973 OFFCURVE",
"232 1092 CURVE SMOOTH"
);
}
);
width = 895;
}
);
unicode = 00B0;
},
{
glyphname = bar;
layers = (
{
layerId = UUID0;
paths = (
{
closed = 1;
nodes = (
"350 1454 LINE",
"350 1511 OFFCURVE",
"330 1536 OFFCURVE",
"270 1536 CURVE SMOOTH",
"203 1536 LINE",
"203 63 LINE SMOOTH",
"203 6 OFFCURVE",
"221 -18 OFFCURVE",
"281 -18 CURVE SMOOTH",
"350 -18 LINE"
);
}
);
width = 552;
}
);
unicode = 007C;
},
{
glyphname = brokenbar;
layers = (
{
layerId = UUID0;
paths = (
{
closed = 1;
nodes = (
"327 1473 LINE",
"327 1530 OFFCURVE",
"306 1554 OFFCURVE",
"247 1554 CURVE SMOOTH",
"204 1554 LINE",
"204 819 LINE SMOOTH",
"204 762 OFFCURVE",
"222 737 OFFCURVE",
"282 737 CURVE SMOOTH",
"327 737 LINE"
);
},
{
closed = 1;
nodes = (
"327 246 LINE",
"327 303 OFFCURVE",
"306 328 OFFCURVE",
"247 328 CURVE SMOOTH",
"204 328 LINE",
"204 -408 LINE SMOOTH",
"204 -465 OFFCURVE",
"222 -489 OFFCURVE",
"282 -489 CURVE SMOOTH",
"327 -489 LINE"
);
}
);
width = 530;
}
);
unicode = 00A6;
},
{
glyphname = cent;
layers = (
{
layerId = UUID0;
paths = (
{
closed = 1;
nodes = (
"541 342 LINE",
"396 406 OFFCURVE",
"328 551 OFFCURVE",
"328 723 CURVE SMOOTH",
"328 883 OFFCURVE",
"383 1073 OFFCURVE",
"541 1133 CURVE"
);
},
{
closed = 1;
nodes = (
"658 1368 LINE",
"658 1425 OFFCURVE",
"637 1450 OFFCURVE",
"578 1450 CURVE SMOOTH",
"541 1450 LINE",
"541 1235 LINE",
"285 1165 OFFCURVE",
"93 963 OFFCURVE",
"93 662 CURVE SMOOTH",
"93 381 OFFCURVE",
"295 211 OFFCURVE",
"541 182 CURVE",
"541 82 LINE SMOOTH",
"541 25 OFFCURVE",
"560 0 OFFCURVE",
"619 0 CURVE SMOOTH",
"658 0 LINE",
"658 178 LINE",
"781 184 OFFCURVE",
"914 215 OFFCURVE",
"1020 283 CURVE",
"994 350 LINE",
"897 322 OFFCURVE",
"809 307 OFFCURVE",
"727 307 CURVE SMOOTH",
"703 307 OFFCURVE",
"680 309 OFFCURVE",
"658 311 CURVE",
"658 1141 LINE",
"760 1126 OFFCURVE",
"865 1065 OFFCURVE",
"938 1020 CURVE",
"1022 1153 LINE SMOOTH",
"1026 1161 OFFCURVE",
"1029 1169 OFFCURVE",
"1029 1176 CURVE SMOOTH",
"1029 1249 OFFCURVE",
"795 1264 OFFCURVE",
"754 1264 CURVE SMOOTH",
"721 1264 OFFCURVE",
"689 1262 OFFCURVE",
"658 1257 CURVE"
);
}
);
width = 1155;
}
);
unicode = 00A2;
},
{
glyphname = currency;
layers = (
{
layerId = UUID0;
paths = (
{
closed = 1;
nodes = (
"916 514 LINE",
"963 573 OFFCURVE",
"987 651 OFFCURVE",
"987 733 CURVE SMOOTH",
"987 815 OFFCURVE",
"963 889 OFFCURVE",
"916 952 CURVE",
"1010 1047 LINE SMOOTH",
"1022 1059 OFFCURVE",
"1030 1073 OFFCURVE",
"1030 1087 CURVE SMOOTH",
"1030 1100 OFFCURVE",
"1024 1114 OFFCURVE",
"1012 1126 CURVE SMOOTH",
"965 1176 LINE",
"827 1038 LINE",
"764 1081 OFFCURVE",
"690 1110 OFFCURVE",
"610 1110 CURVE SMOOTH",
"526 1110 OFFCURVE",
"453 1081 OFFCURVE",
"389 1038 CURVE",
"295 1133 LINE SMOOTH",
"283 1145 OFFCURVE",
"268 1153 OFFCURVE",
"254 1153 CURVE SMOOTH",
"242 1153 OFFCURVE",
"227 1147 OFFCURVE",
"215 1135 CURVE SMOOTH",
"166 1087 LINE",
"303 950 LINE",
"256 887 OFFCURVE",
"236 815 OFFCURVE",
"236 733 CURVE SMOOTH",
"236 651 OFFCURVE",
"260 573 OFFCURVE",
"303 514 CURVE",
"209 420 LINE SMOOTH",
"197 408 OFFCURVE",
"189 393 OFFCURVE",
"189 379 CURVE SMOOTH",
"189 367 OFFCURVE",
"195 352 OFFCURVE",
"207 340 CURVE SMOOTH",
"254 291 LINE",
"391 428 LINE",
"455 381 OFFCURVE",
"528 358 OFFCURVE",
"610 358 CURVE SMOOTH",
"692 358 OFFCURVE",
"766 385 OFFCURVE",
"830 428 CURVE",
"922 332 LINE SMOOTH",
"934 319 OFFCURVE",
"948 311 OFFCURVE",
"963 311 CURVE SMOOTH",
"975 311 OFFCURVE",
"989 317 OFFCURVE",
"1002 330 CURVE SMOOTH",
"1051 377 LINE"
);
},
{
closed = 1;
nodes = (
"350 881 OFFCURVE",
"467 997 OFFCURVE",
"610 997 CURVE SMOOTH",
"758 997 OFFCURVE",
"873 881 OFFCURVE",
"873 733 CURVE SMOOTH",
"873 590 OFFCURVE",
"758 471 OFFCURVE",
"610 471 CURVE SMOOTH",
"467 471 OFFCURVE",
"350 590 OFFCURVE",
"350 733 CURVE SMOOTH"
);
}
);
width = 1220;
}
);
unicode = 00A4;
},
{
glyphname = dollar;
layers = (
{
layerId = UUID0;
paths = (
{
closed = 1;
nodes = (
"698 1509 LINE",
"698 1567 OFFCURVE",
"677 1591 OFFCURVE",
"618 1591 CURVE SMOOTH",
"550 1591 LINE",
"550 1438 LINE",
"337 1405 OFFCURVE",
"134 1303 OFFCURVE",
"134 1067 CURVE SMOOTH",
"134 815 OFFCURVE",
"376 713 OFFCURVE",
"550 625 CURVE",
"550 106 LINE",
"401 147 OFFCURVE",
"292 264 OFFCURVE",
"202 348 CURVE",
"100 227 LINE SMOOTH",
"89 215 OFFCURVE",
"85 203 OFFCURVE",
"85 190 CURVE SMOOTH",
"85 156 OFFCURVE",
"120 123 OFFCURVE",
"149 104 CURVE SMOOTH",
"272 23 OFFCURVE",
"411 -23 OFFCURVE",
"550 -35 CURVE",
"550 -193 LINE SMOOTH",
"550 -250 OFFCURVE",
"568 -274 OFFCURVE",
"628 -274 CURVE SMOOTH",
"698 -274 LINE",
"698 -37 LINE",
"937 -25 OFFCURVE",
"1138 104 OFFCURVE",
"1138 330 CURVE SMOOTH",
"1138 547 OFFCURVE",
"919 680 OFFCURVE",
"698 778 CURVE",
"698 1307 LINE",
"824 1282 OFFCURVE",
"911 1221 OFFCURVE",
"986 1161 CURVE",
"1066 1298 LINE SMOOTH",
"1074 1313 OFFCURVE",
"1078 1325 OFFCURVE",
"1078 1337 CURVE SMOOTH",
"1078 1425 OFFCURVE",
"822 1450 OFFCURVE",
"710 1450 CURVE SMOOTH",
"698 1450 LINE"
);
},
{
closed = 1;
nodes = (
"333 1237 OFFCURVE",
"444 1307 OFFCURVE",
"550 1315 CURVE",
"550 842 LINE",
"437 891 OFFCURVE",
"333 954 OFFCURVE",
"333 1106 CURVE SMOOTH"
);
},
{
closed = 1;
nodes = (
"915 180 OFFCURVE",
"829 102 OFFCURVE",
"698 90 CURVE",
"698 557 LINE",
"820 494 OFFCURVE",
"915 418 OFFCURVE",
"915 301 CURVE SMOOTH"
);
}
);
width = 1229;
}
);
unicode = 0024;
},
{
glyphname = euro;
layers = (
{
layerId = UUID0;
paths = (
{
closed = 1;
nodes = (
"121 594 LINE",
"72 594 OFFCURVE",
"45 604 OFFCURVE",
"35 551 CURVE SMOOTH",
"20 471 LINE",
"262 471 LINE",
"336 150 OFFCURVE",
"573 -39 OFFCURVE",
"913 -39 CURVE SMOOTH",
"1079 -39 OFFCURVE",
"1249 4 OFFCURVE",
"1380 121 CURVE",
"1339 199 LINE",
"1339 199 OFFCURVE",
"1155 115 OFFCURVE",
"987 115 CURVE SMOOTH",
"750 115 OFFCURVE",
"598 264 OFFCURVE",
"532 471 CURVE",
"905 471 LINE SMOOTH",
"956 471 OFFCURVE",
"1001 461 OFFCURVE",
"1012 514 CURVE SMOOTH",
"1026 594 LINE",
"506 594 LINE",
"500 627 OFFCURVE",
"498 662 OFFCURVE",
"498 698 CURVE SMOOTH",
"498 748 LINE",
"946 748 LINE SMOOTH",
"997 748 OFFCURVE",
"1042 737 OFFCURVE",
"1053 791 CURVE SMOOTH",
"1067 870 LINE",
"508 870 LINE",
"539 1096 OFFCURVE",
"641 1300 OFFCURVE",
"860 1300 CURVE SMOOTH",
"1024 1300 OFFCURVE",
"1145 1200 OFFCURVE",
"1233 1110 CURVE",
"1311 1210 LINE SMOOTH",
"1331 1237 OFFCURVE",
"1341 1260 OFFCURVE",
"1341 1282 CURVE SMOOTH",
"1341 1391 OFFCURVE",
"1112 1450 OFFCURVE",
"901 1450 CURVE SMOOTH",
"571 1450 OFFCURVE",
"313 1237 OFFCURVE",
"252 870 CURVE",
"162 870 LINE SMOOTH",
"113 870 OFFCURVE",
"86 881 OFFCURVE",
"76 827 CURVE SMOOTH",
"61 748 LINE",
"238 748 LINE",
"238 698 LINE SMOOTH",
"238 662 OFFCURVE",
"240 627 OFFCURVE",
"242 594 CURVE"
);
}
);
width = 1421;
}
);
unicode = 20AC;
},
{
glyphname = sterling;
layers = (
{
layerId = UUID0;
paths = (
{
closed = 1;
nodes = (
"854 690 LINE",
"895 690 OFFCURVE",
"911 705 OFFCURVE",
"911 748 CURVE SMOOTH",
"911 791 LINE",
"530 791 LINE",
"510 891 OFFCURVE",
"483 991 OFFCURVE",
"483 1094 CURVE SMOOTH",
"483 1247 OFFCURVE",
"578 1317 OFFCURVE",
"668 1317 CURVE SMOOTH",
"809 1317 OFFCURVE",
"930 1233 OFFCURVE",
"999 1139 CURVE",
"1083 1280 LINE SMOOTH",
"1163 1417 OFFCURVE",
"780 1450 OFFCURVE",
"715 1450 CURVE SMOOTH",
"500 1450 OFFCURVE",
"258 1403 OFFCURVE",
"258 1094 CURVE SMOOTH",
"258 999 OFFCURVE",
"287 895 OFFCURVE",
"313 791 CURVE",
"180 791 LINE SMOOTH",
"139 791 OFFCURVE",
"123 778 OFFCURVE",
"123 735 CURVE SMOOTH",
"123 690 LINE",
"338 690 LINE",
"381 477 OFFCURVE",
"414 260 OFFCURVE",
"102 86 CURVE",
"102 29 OFFCURVE",
"119 6 OFFCURVE",
"180 0 CURVE SMOOTH",
"303 -12 OFFCURVE",
"897 -18 OFFCURVE",
"1030 0 CURVE SMOOTH",
"1112 12 OFFCURVE",
"1135 68 OFFCURVE",
"1126 131 CURVE SMOOTH",
"1120 176 OFFCURVE",
"1104 225 OFFCURVE",
"1104 225 CURVE",
"932 170 OFFCURVE",
"702 119 OFFCURVE",
"524 119 CURVE SMOOTH",
"356 119 LINE",
"596 328 OFFCURVE",
"578 512 OFFCURVE",
"551 690 CURVE"
);
}
);
width = 1232;
}
);
unicode = 00A3;
},
{
glyphname = yen;
layers = (
{
layerId = UUID0;
paths = (
{
closed = 1;
nodes = (
"1158 379 LINE",
"1201 379 OFFCURVE",
"1219 393 OFFCURVE",
"1219 440 CURVE SMOOTH",
"1219 467 LINE",
"961 467 LINE",
"961 563 LINE",
"1158 563 LINE SMOOTH",
"1201 563 OFFCURVE",
"1219 578 OFFCURVE",
"1219 623 CURVE SMOOTH",
"1219 651 LINE",
"986 651 LINE",
"1182 928 OFFCURVE",
"1346 1149 OFFCURVE",
"1346 1321 CURVE SMOOTH",
"1346 1389 OFFCURVE",
"1322 1432 OFFCURVE",
"1270 1432 CURVE SMOOTH",
"1248 1432 OFFCURVE",
"1199 1421 OFFCURVE",
"1066 1354 CURVE",
"1088 1286 OFFCURVE",
"1102 1231 OFFCURVE",
"1102 1178 CURVE SMOOTH",
"1102 1063 OFFCURVE",
"1045 954 OFFCURVE",
"904 754 CURVE",
"900 754 LINE",
"476 1364 LINE SMOOTH",
"445 1409 OFFCURVE",
"418 1425 OFFCURVE",
"386 1425 CURVE SMOOTH",
"295 1425 OFFCURVE",
"125 1300 OFFCURVE",
"62 1241 CURVE",
"95 1169 LINE",
"271 1247 LINE",
"695 651 LINE",
"533 651 LINE SMOOTH",
"488 651 OFFCURVE",
"470 637 OFFCURVE",
"470 592 CURVE SMOOTH",
"470 563 LINE",
"719 563 LINE",
"719 467 LINE",
"533 467 LINE SMOOTH",
"488 467 OFFCURVE",
"470 453 OFFCURVE",
"470 408 CURVE SMOOTH",
"470 379 LINE",
"721 379 LINE",
"721 82 LINE SMOOTH",
"721 6 OFFCURVE",
"762 -18 OFFCURVE",
"846 -18 CURVE SMOOTH",
"891 -18 OFFCURVE",
"953 -6 OFFCURVE",
"992 16 CURVE",
"984 55 OFFCURVE",
"961 145 OFFCURVE",
"961 315 CURVE SMOOTH",
"961 379 LINE"
);
}
);
width = 1448;
}
);
unicode = 00A5;
},
{
glyphname = plus;
layers = (
{
layerId = UUID0;
paths = (
{
closed = 1;
nodes = (
"630 1022 LINE",
"630 1079 OFFCURVE",
"609 1104 OFFCURVE",
"550 1104 CURVE SMOOTH",
"488 1104 LINE",
"488 705 LINE",
"171 705 LINE SMOOTH",
"113 705 OFFCURVE",
"89 686 OFFCURVE",
"89 627 CURVE SMOOTH",
"89 563 LINE",
"488 563 LINE",
"488 244 LINE SMOOTH",
"488 186 OFFCURVE",
"507 162 OFFCURVE",
"566 162 CURVE SMOOTH",
"630 162 LINE",
"630 563 LINE",
"949 563 LINE SMOOTH",
"1006 563 OFFCURVE",
"1031 584 OFFCURVE",
"1031 643 CURVE SMOOTH",
"1031 705 LINE",
"630 705 LINE"
);
}
);
width = 1121;
}
);
unicode = 002B;
},
{
glyphname = minus;
layers = (
{
layerId = UUID0;
paths = (
{
closed = 1;
nodes = (
"979 489 LINE",
"1037 489 OFFCURVE",
"1061 510 OFFCURVE",
"1061 569 CURVE SMOOTH",
"1061 631 LINE",
"256 631 LINE SMOOTH",
"199 631 OFFCURVE",
"174 612 OFFCURVE",
"174 553 CURVE SMOOTH",
"174 489 LINE"
);
}
);
width = 1234;
}
);
unicode = 2212;
},
{
glyphname = multiply;
layers = (
{
layerId = UUID0;
paths = (
{
closed = 1;
nodes = (
"269 1102 LINE",
"250 1120 OFFCURVE",
"236 1130 OFFCURVE",
"220 1130 CURVE SMOOTH",
"203 1130 OFFCURVE",
"187 1120 OFFCURVE",
"169 1102 CURVE SMOOTH",
"132 1065 LINE",
"461 735 LINE",
"181 455 LINE SMOOTH",
"162 436 OFFCURVE",
"150 420 OFFCURVE",
"150 403 CURVE SMOOTH",
"150 389 OFFCURVE",
"160 375 OFFCURVE",
"179 356 CURVE SMOOTH",
"218 317 LINE",
"547 647 LINE",
"830 367 LINE SMOOTH",
"848 348 OFFCURVE",
"865 338 OFFCURVE",
"881 338 CURVE SMOOTH",
"896 338 OFFCURVE",
"910 346 OFFCURVE",
"928 365 CURVE SMOOTH",
"967 403 LINE",
"636 735 LINE",
"916 1016 LINE SMOOTH",
"935 1034 OFFCURVE",
"945 1051 OFFCURVE",
"945 1067 CURVE SMOOTH",
"945 1083 OFFCURVE",
"937 1098 OFFCURVE",
"918 1116 CURVE SMOOTH",
"879 1153 LINE",
"547 821 LINE"
);
}
);
width = 1103;
}
);
unicode = 00D7;
},
{
glyphname = divide;
layers = (
{
layerId = UUID0;
paths = (
{
closed = 1;
nodes = (
"967 563 LINE",
"1024 563 OFFCURVE",
"1049 584 OFFCURVE",
"1049 643 CURVE SMOOTH",
"1049 705 LINE",
"203 705 LINE SMOOTH",
"146 705 OFFCURVE",
"121 686 OFFCURVE",
"121 627 CURVE SMOOTH",
"121 563 LINE"
);
},
{
closed = 1;
nodes = (
"486 485 OFFCURVE",
"426 424 OFFCURVE",
"426 348 CURVE SMOOTH",
"426 268 OFFCURVE",
"486 207 OFFCURVE",
"572 207 CURVE SMOOTH",
"660 207 OFFCURVE",
"721 268 OFFCURVE",
"721 348 CURVE SMOOTH",
"721 424 OFFCURVE",
"660 485 OFFCURVE",
"572 485 CURVE SMOOTH"
);
},
{
closed = 1;
nodes = (
"486 1069 OFFCURVE",
"426 1008 OFFCURVE",
"426 932 CURVE SMOOTH",
"426 852 OFFCURVE",
"486 791 OFFCURVE",
"572 791 CURVE SMOOTH",
"660 791 OFFCURVE",
"721 852 OFFCURVE",
"721 932 CURVE SMOOTH",
"721 1008 OFFCURVE",
"660 1069 OFFCURVE",
"572 1069 CURVE SMOOTH"
);
}
);
width = 1172;
}
);
unicode = 00F7;
},
{
glyphname = equal;
layers = (
{
layerId = UUID0;
paths = (
{
closed = 1;
nodes = (
"1035 748 LINE",
"1092 748 OFFCURVE",
"1117 768 OFFCURVE",
"1117 827 CURVE SMOOTH",
"1117 889 LINE",
"257 889 LINE SMOOTH",
"199 889 OFFCURVE",
"175 870 OFFCURVE",
"175 811 CURVE SMOOTH",
"175 748 LINE"
);
},
{
closed = 1;
nodes = (
"1035 379 LINE",
"1092 379 OFFCURVE",
"1117 399 OFFCURVE",
"1117 459 CURVE SMOOTH",
"1117 520 LINE",
"257 520 LINE SMOOTH",
"199 520 OFFCURVE",
"175 502 OFFCURVE",
"175 442 CURVE SMOOTH",
"175 379 LINE"
);
}
);
width = 1290;
}
);
unicode = 003D;
},
{
glyphname = greater;
layers = (
{
layerId = UUID0;
paths = (
{
closed = 1;
nodes = (
"262 1075 LINE",
"244 1083 OFFCURVE",
"227 1087 OFFCURVE",
"215 1087 CURVE SMOOTH",
"188 1087 OFFCURVE",
"172 1071 OFFCURVE",
"156 1038 CURVE SMOOTH",
"123 971 LINE",
"1001 575 LINE",
"1001 571 LINE",
"127 174 LINE",
"156 109 LINE SMOOTH",
"170 74 OFFCURVE",
"190 57 OFFCURVE",
"215 57 CURVE SMOOTH",
"227 57 OFFCURVE",
"244 63 OFFCURVE",
"262 72 CURVE SMOOTH",
"1235 518 LINE",
"1235 580 LINE SMOOTH",
"1235 631 OFFCURVE",
"1198 643 OFFCURVE",
"1190 649 CURVE"
);
}
);
width = 1310;
}
);
unicode = 003E;
},
{
glyphname = less;
layers = (
{
layerId = UUID0;
paths = (
{
closed = 1;
nodes = (
"118 651 LINE",
"110 645 OFFCURVE",
"73 633 OFFCURVE",
"73 582 CURVE SMOOTH",
"73 520 LINE",
"1046 74 LINE SMOOTH",
"1064 66 OFFCURVE",
"1078 59 OFFCURVE",
"1093 59 CURVE SMOOTH",
"1117 59 OFFCURVE",
"1136 76 OFFCURVE",
"1152 111 CURVE SMOOTH",
"1181 176 LINE",
"306 573 LINE",
"306 578 LINE",
"1185 973 LINE",
"1152 1040 LINE SMOOTH",
"1136 1073 OFFCURVE",
"1117 1090 OFFCURVE",
"1093 1090 CURVE SMOOTH",
"1078 1090 OFFCURVE",
"1064 1085 OFFCURVE",
"1046 1077 CURVE SMOOTH"
);
}
);
width = 1312;
}
);
unicode = 003C;
},
{
glyphname = plusminus;
layers = (
{
layerId = UUID0;
paths = (
{
closed = 1;
nodes = (
"958 721 LINE",
"1016 721 OFFCURVE",
"1040 741 OFFCURVE",
"1040 801 CURVE SMOOTH",
"1040 862 LINE",
"667 862 LINE",
"667 1153 LINE SMOOTH",
"667 1210 OFFCURVE",
"647 1235 OFFCURVE",
"588 1235 CURVE SMOOTH",
"526 1235 LINE",
"526 862 LINE",
"235 862 LINE SMOOTH",
"178 862 OFFCURVE",
"153 844 OFFCURVE",
"153 784 CURVE SMOOTH",
"153 721 LINE",
"526 721 LINE",
"526 430 LINE SMOOTH",
"526 373 OFFCURVE",
"545 348 OFFCURVE",
"604 348 CURVE SMOOTH",
"667 348 LINE",
"667 721 LINE"
);
},
{
closed = 1;
nodes = (
"958 61 LINE",
"1016 61 OFFCURVE",
"1040 82 OFFCURVE",
"1040 141 CURVE SMOOTH",
"1040 203 LINE",
"235 203 LINE SMOOTH",
"178 203 OFFCURVE",
"153 184 OFFCURVE",
"153 125 CURVE SMOOTH",
"153 61 LINE"
);
}
);
width = 1196;
}
);
unicode = 00B1;
},
{
glyphname = asciitilde;
layers = (
{
layerId = UUID0;
paths = (
{
closed = 1;
nodes = (
"987 375 OFFCURVE",
"1102 422 OFFCURVE",
"1102 489 CURVE SMOOTH",
"1102 512 OFFCURVE",
"1092 537 OFFCURVE",
"1049 588 CURVE",
"1049 586 OFFCURVE",
"973 518 OFFCURVE",
"858 518 CURVE SMOOTH",
"705 518 OFFCURVE",
"572 641 OFFCURVE",
"422 641 CURVE SMOOTH",
"285 641 OFFCURVE",
"199 539 OFFCURVE",
"199 539 CURVE SMOOTH",
"176 514 OFFCURVE",
"164 498 OFFCURVE",
"164 481 CURVE SMOOTH",
"164 463 OFFCURVE",
"176 446 OFFCURVE",
"238 389 CURVE",
"266 426 OFFCURVE",
"320 504 OFFCURVE",
"420 504 CURVE SMOOTH",
"572 504 OFFCURVE",
"711 375 OFFCURVE",
"871 375 CURVE SMOOTH"
);
}
);
width = 1273;
}
);
unicode = 007E;
},
{
glyphname = logicalnot;
layers = (
{
layerId = UUID0;
paths = (
{
closed = 1;
nodes = (
"895 326 LINE",
"895 268 OFFCURVE",
"916 244 OFFCURVE",
"975 244 CURVE SMOOTH",
"1037 244 LINE",
"1037 803 LINE",
"232 803 LINE SMOOTH",
"175 803 OFFCURVE",
"150 784 OFFCURVE",
"150 725 CURVE SMOOTH",
"150 662 LINE",
"895 662 LINE"
);
}
);
width = 1222;
}
);
unicode = 00AC;
},
{
glyphname = asciicircum;
layers = (
{
layerId = UUID0;
paths = (
{
closed = 1;
nodes = (
"758 979 LINE",
"752 987 OFFCURVE",
"737 1024 OFFCURVE",
"686 1024 CURVE SMOOTH",
"625 1024 LINE",
"178 293 LINE SMOOTH",
"168 276 OFFCURVE",
"164 258 OFFCURVE",
"164 246 CURVE SMOOTH",
"164 221 OFFCURVE",
"180 201 OFFCURVE",
"215 186 CURVE SMOOTH",
"281 158 LINE",
"672 791 LINE",
"676 791 LINE",
"1077 154 LINE",
"1145 186 LINE SMOOTH",
"1178 203 OFFCURVE",
"1194 219 OFFCURVE",
"1194 246 CURVE SMOOTH",
"1194 258 OFFCURVE",
"1192 276 OFFCURVE",
"1182 293 CURVE SMOOTH"
);
}
);
width = 1391;
}
);
unicode = 005E;
},
{
glyphname = micro;
layers = (
{
layerId = UUID0;
paths = (
{
closed = 1;
nodes = (
"543 -311 LINE",
"338 -311 OFFCURVE",
"244 -301 OFFCURVE",
"244 47 CURVE",
"281 0 OFFCURVE",
"348 -31 OFFCURVE",
"481 -31 CURVE SMOOTH",
"633 -31 OFFCURVE",
"813 90 OFFCURVE",
"813 86 CURVE SMOOTH",
"813 74 LINE SMOOTH",
"813 -8 OFFCURVE",
"874 -23 OFFCURVE",
"956 -23 CURVE SMOOTH",
"1053 -23 OFFCURVE",
"1174 -4 OFFCURVE",
"1219 20 CURVE",
"1219 96 LINE",
"1044 96 LINE",
"1044 991 LINE SMOOTH",
"1044 1044 OFFCURVE",
"1014 1044 OFFCURVE",
"958 1044 CURVE SMOOTH",
"918 1044 OFFCURVE",
"860 1040 OFFCURVE",
"811 1036 CURVE",
"811 176 LINE",
"727 135 OFFCURVE",
"629 115 OFFCURVE",
"537 115 CURVE SMOOTH",
"381 115 OFFCURVE",
"346 193 OFFCURVE",
"346 369 CURVE SMOOTH",
"346 991 LINE SMOOTH",
"346 1044 OFFCURVE",
"315 1044 OFFCURVE",
"260 1044 CURVE SMOOTH",
"217 1044 OFFCURVE",
"164 1040 OFFCURVE",
"113 1036 CURVE",
"113 -283 LINE SMOOTH",
"115 -440 OFFCURVE",
"190 -492 OFFCURVE",
"281 -492 CURVE SMOOTH",
"375 -492 OFFCURVE",
"485 -436 OFFCURVE",
"545 -395 CURVE"
);
}
);
width = 1311;
}
);
unicode = 00B5;
},
{
glyphname = percent;
layers = (
{
layerId = UUID0;
paths = (
{
closed = 1;
nodes = (
"1300 1296 LINE",
"1308 1309 OFFCURVE",
"1312 1319 OFFCURVE",
"1312 1329 CURVE SMOOTH",
"1312 1352 OFFCURVE",
"1290 1366 OFFCURVE",
"1251 1384 CURVE SMOOTH",
"1188 1415 LINE",
"352 98 LINE SMOOTH",
"346 88 OFFCURVE",
"342 78 OFFCURVE",
"342 70 CURVE SMOOTH",
"342 45 OFFCURVE",
"370 31 OFFCURVE",
"413 10 CURVE SMOOTH",
"463 -12 LINE"
);
},
{
closed = 1;
nodes = (
"299 807 OFFCURVE",
"239 893 OFFCURVE",
"239 1081 CURVE SMOOTH",
"239 1282 OFFCURVE",
"305 1358 OFFCURVE",
"403 1358 CURVE SMOOTH",
"501 1358 OFFCURVE",
"565 1282 OFFCURVE",
"565 1081 CURVE SMOOTH",
"565 893 OFFCURVE",
"508 807 OFFCURVE",
"403 807 CURVE SMOOTH"
);
},
{
closed = 1;
nodes = (
"538 733 OFFCURVE",
"727 838 OFFCURVE",
"727 1081 CURVE SMOOTH",
"727 1327 OFFCURVE",
"557 1432 OFFCURVE",
"403 1432 CURVE SMOOTH",
"250 1432 OFFCURVE",
"80 1327 OFFCURVE",
"80 1081 CURVE SMOOTH",
"80 838 OFFCURVE",
"268 733 OFFCURVE",
"403 733 CURVE SMOOTH"
);
},
{
closed = 1;
nodes = (
"1161 55 OFFCURVE",
"1104 141 OFFCURVE",
"1104 330 CURVE SMOOTH",
"1104 530 OFFCURVE",
"1167 606 OFFCURVE",
"1265 606 CURVE SMOOTH",
"1364 606 OFFCURVE",
"1429 530 OFFCURVE",
"1429 330 CURVE SMOOTH",
"1429 141 OFFCURVE",
"1370 55 OFFCURVE",
"1265 55 CURVE SMOOTH"
);
},
{
closed = 1;
nodes = (
"1401 -18 OFFCURVE",
"1591 86 OFFCURVE",
"1591 330 CURVE SMOOTH",
"1591 575 OFFCURVE",
"1419 680 OFFCURVE",
"1265 680 CURVE SMOOTH",
"1112 680 OFFCURVE",
"940 575 OFFCURVE",
"940 330 CURVE SMOOTH",
"940 86 OFFCURVE",
"1130 -18 OFFCURVE",
"1265 -18 CURVE SMOOTH"
);
}
);
width = 1671;
}
);
unicode = 0025;
},
{
glyphname = dieresis;
layers = (
{
layerId = UUID0;
paths = (
{
closed = 1;
nodes = (
"250 1516 OFFCURVE",
"205 1468 OFFCURVE",
"205 1411 CURVE SMOOTH",
"205 1350 OFFCURVE",
"250 1303 OFFCURVE",
"315 1303 CURVE SMOOTH",
"383 1303 OFFCURVE",
"430 1350 OFFCURVE",
"430 1411 CURVE SMOOTH",
"430 1468 OFFCURVE",
"383 1516 OFFCURVE",
"315 1516 CURVE SMOOTH"
);
},
{
closed = 1;
nodes = (
"641 1516 OFFCURVE",
"596 1468 OFFCURVE",
"596 1411 CURVE SMOOTH",
"596 1350 OFFCURVE",
"641 1303 OFFCURVE",
"707 1303 CURVE SMOOTH",
"774 1303 OFFCURVE",
"821 1350 OFFCURVE",
"821 1411 CURVE SMOOTH",
"821 1468 OFFCURVE",
"774 1516 OFFCURVE",
"707 1516 CURVE SMOOTH"
);
}
);
width = 1026;
}
);
unicode = 00A8;
},
{
glyphname = dotaccent;
layers = (
{
layerId = UUID0;
paths = (
{
closed = 1;
nodes = (
"367 1630 OFFCURVE",
"307 1569 OFFCURVE",
"307 1493 CURVE SMOOTH",
"307 1413 OFFCURVE",
"367 1352 OFFCURVE",
"453 1352 CURVE SMOOTH",
"541 1352 OFFCURVE",
"602 1413 OFFCURVE",
"602 1493 CURVE SMOOTH",
"602 1569 OFFCURVE",
"541 1630 OFFCURVE",
"453 1630 CURVE SMOOTH"
);
}
);
width = 909;
}
);
unicode = 02D9;
},
{
glyphname = grave;
layers = (
{
layerId = UUID0;
paths = (
{
closed = 1;
nodes = (
"416 1573 LINE",
"268 1573 LINE SMOOTH",
"227 1573 OFFCURVE",
"205 1559 OFFCURVE",
"205 1534 CURVE SMOOTH",
"205 1518 OFFCURVE",
"215 1495 OFFCURVE",
"240 1473 CURVE SMOOTH",
"289 1425 OFFCURVE",
"465 1243 OFFCURVE",
"465 1243 CURVE",
"537 1243 LINE SMOOTH",
"565 1243 OFFCURVE",
"575 1253 OFFCURVE",
"575 1270 CURVE SMOOTH",
"575 1286 OFFCURVE",
"565 1309 OFFCURVE",
"555 1327 CURVE SMOOTH"
);
}
);
width = 985;
}
);
unicode = 0060;
},
{
glyphname = acute;
layers = (
{
layerId = UUID0;
paths = (
{
closed = 1;
nodes = (
"111 1327 LINE",
"100 1309 OFFCURVE",
"90 1286 OFFCURVE",
"90 1270 CURVE SMOOTH",
"90 1255 OFFCURVE",
"100 1243 OFFCURVE",
"129 1243 CURVE SMOOTH",
"201 1243 LINE",
"201 1243 OFFCURVE",
"377 1425 OFFCURVE",
"426 1473 CURVE SMOOTH",
"449 1493 OFFCURVE",
"461 1511 OFFCURVE",
"461 1528 CURVE SMOOTH",
"461 1565 OFFCURVE",
"424 1573 OFFCURVE",
"397 1573 CURVE SMOOTH",
"250 1573 LINE"
);
}
);
width = 555;
}
);
unicode = 00B4;
},
{
glyphname = hungarumlaut;
layers = (
{
layerId = UUID0;
paths = (
{
closed = 1;
nodes = (
"293 1327 LINE",
"283 1309 OFFCURVE",
"272 1286 OFFCURVE",
"272 1270 CURVE SMOOTH",
"272 1255 OFFCURVE",
"283 1243 OFFCURVE",
"311 1243 CURVE SMOOTH",
"383 1243 LINE",
"383 1243 OFFCURVE",
"559 1425 OFFCURVE",
"608 1473 CURVE SMOOTH",
"633 1495 OFFCURVE",
"643 1516 OFFCURVE",
"643 1532 CURVE SMOOTH",
"643 1556 OFFCURVE",
"621 1573 OFFCURVE",
"580 1573 CURVE SMOOTH",
"432 1573 LINE"
);
},
{
closed = 1;
nodes = (
"682 1327 LINE",
"672 1309 OFFCURVE",
"662 1286 OFFCURVE",
"662 1270 CURVE SMOOTH",
"662 1255 OFFCURVE",
"672 1243 OFFCURVE",
"700 1243 CURVE SMOOTH",
"772 1243 LINE",
"772 1243 OFFCURVE",
"948 1425 OFFCURVE",
"997 1473 CURVE SMOOTH",
"1022 1495 OFFCURVE",
"1032 1516 OFFCURVE",
"1032 1532 CURVE SMOOTH",
"1032 1556 OFFCURVE",
"1010 1573 OFFCURVE",
"969 1573 CURVE SMOOTH",
"821 1573 LINE"
);
}
);
width = 1087;
}
);
unicode = 02DD;
},
{
glyphname = circumflex;
layers = (
{
layerId = UUID0;
paths = (
{
closed = 1;
nodes = (
"389 1427 LINE",
"614 1243 LINE",
"664 1243 LINE SMOOTH",
"700 1243 OFFCURVE",
"713 1257 OFFCURVE",
"713 1274 CURVE SMOOTH",
"713 1284 OFFCURVE",
"709 1296 OFFCURVE",
"700 1307 CURVE SMOOTH",
"483 1573 LINE",
"291 1573 LINE",
"74 1307 LINE SMOOTH",
"66 1296 OFFCURVE",
"61 1284 OFFCURVE",
"61 1274 CURVE SMOOTH",
"61 1257 OFFCURVE",
"74 1243 OFFCURVE",
"111 1243 CURVE SMOOTH",
"160 1243 LINE"
);
}
);
width = 774;
}
);
unicode = 02C6;
},
{
glyphname = caron;
layers = (
{
layerId = UUID0;
paths = (
{
closed = 1;
nodes = (
"954 1577 LINE",
"954 1577 OFFCURVE",
"915 1602 OFFCURVE",
"874 1602 CURVE SMOOTH",
"858 1602 OFFCURVE",
"842 1597 OFFCURVE",
"827 1585 CURVE SMOOTH",
"580 1374 LINE",
"332 1585 LINE SMOOTH",
"317 1597 OFFCURVE",
"301 1602 OFFCURVE",
"283 1602 CURVE SMOOTH",
"244 1602 OFFCURVE",
"205 1577 OFFCURVE",
"205 1577 CURVE",
"498 1251 LINE SMOOTH",
"524 1221 OFFCURVE",
"553 1206 OFFCURVE",
"580 1206 CURVE SMOOTH",
"608 1206 OFFCURVE",
"635 1223 OFFCURVE",
"662 1251 CURVE SMOOTH"
);
}
);
width = 1159;
}
);
unicode = 02C7;
},
{
glyphname = breve;
layers = (
{
layerId = UUID0;
paths = (
{
closed = 1;
nodes = (
"723 1241 OFFCURVE",
"840 1409 OFFCURVE",
"840 1526 CURVE SMOOTH",
"840 1573 OFFCURVE",
"817 1589 OFFCURVE",
"762 1591 CURVE",
"754 1552 OFFCURVE",
"735 1386 OFFCURVE",
"522 1386 CURVE SMOOTH",
"309 1386 OFFCURVE",
"291 1552 OFFCURVE",
"283 1591 CURVE",
"227 1589 OFFCURVE",
"205 1573 OFFCURVE",
"205 1526 CURVE SMOOTH",
"205 1409 OFFCURVE",
"322 1241 OFFCURVE",
"522 1241 CURVE SMOOTH"
);
}
);
width = 1044;
}
);
unicode = 02D8;
},
{
glyphname = ring;
layers = (
{
layerId = UUID0;
paths = (
{
closed = 1;
nodes = (
"535 1587 OFFCURVE",
"432 1667 OFFCURVE",
"299 1667 CURVE SMOOTH",
"166 1667 OFFCURVE",
"63 1587 OFFCURVE",
"63 1444 CURVE SMOOTH",
"63 1298 OFFCURVE",
"166 1221 OFFCURVE",
"299 1221 CURVE SMOOTH",
"432 1221 OFFCURVE",
"535 1298 OFFCURVE",
"535 1444 CURVE SMOOTH"
);
},
{
closed = 1;
nodes = (
"424 1356 OFFCURVE",
"369 1321 OFFCURVE",
"299 1321 CURVE SMOOTH",
"229 1321 OFFCURVE",
"174 1356 OFFCURVE",
"174 1444 CURVE SMOOTH",
"174 1532 OFFCURVE",
"229 1567 OFFCURVE",
"299 1567 CURVE SMOOTH",
"369 1567 OFFCURVE",
"424 1532 OFFCURVE",
"424 1444 CURVE SMOOTH"
);
}
);
width = 596;
}
);
unicode = 02DA;
},
{
glyphname = tilde;
layers = (
{
layerId = UUID0;
paths = (
{
closed = 1;
nodes = (
"688 1380 OFFCURVE",
"600 1503 OFFCURVE",
"455 1503 CURVE SMOOTH",
"379 1503 OFFCURVE",
"309 1452 OFFCURVE",
"205 1331 CURVE",
"205 1331 OFFCURVE",
"246 1282 OFFCURVE",
"291 1282 CURVE SMOOTH",
"350 1282 OFFCURVE",
"362 1366 OFFCURVE",
"424 1366 CURVE SMOOTH",
"532 1366 OFFCURVE",
"606 1241 OFFCURVE",
"752 1241 CURVE SMOOTH",
"819 1241 OFFCURVE",
"889 1294 OFFCURVE",
"993 1415 CURVE",
"993 1415 OFFCURVE",
"952 1464 OFFCURVE",
"907 1464 CURVE SMOOTH",
"848 1464 OFFCURVE",
"834 1380 OFFCURVE",
"774 1380 CURVE SMOOTH"
);
}
);
width = 1198;
}
);
unicode = 02DC;
},
{
glyphname = macron;
layers = (
{
layerId = UUID0;
paths = (
{
closed = 1;
nodes = (
"887 1161 LINE",
"944 1161 OFFCURVE",
"969 1182 OFFCURVE",
"969 1241 CURVE SMOOTH",
"969 1303 LINE",
"164 1303 LINE SMOOTH",
"106 1303 OFFCURVE",
"82 1284 OFFCURVE",
"82 1225 CURVE SMOOTH",
"82 1161 LINE"
);
}
);
width = 1051;
}
);
unicode = 00AF;
},
{
glyphname = cedilla;
layers = (
{
layerId = UUID0;
paths = (
{
closed = 1;
nodes = (
"735 -150 OFFCURVE",
"670 -80 OFFCURVE",
"537 -70 CURVE",
"557 18 LINE",
"461 18 LINE",
"418 -141 LINE",
"506 -147 OFFCURVE",
"571 -186 OFFCURVE",
"571 -266 CURVE SMOOTH",
"571 -338 OFFCURVE",
"526 -381 OFFCURVE",
"446 -381 CURVE SMOOTH",
"408 -381 OFFCURVE",
"356 -375 OFFCURVE",
"307 -365 CURVE",
"307 -473 OFFCURVE",
"373 -492 OFFCURVE",
"471 -492 CURVE SMOOTH",
"600 -492 OFFCURVE",
"735 -436 OFFCURVE",
"735 -258 CURVE SMOOTH"
);
}
);
width = 1063;
}
);
unicode = 00B8;
},
{
glyphname = ogonek;
layers = (
{
layerId = UUID0;
paths = (
{
closed = 1;
nodes = (
"537 -135 OFFCURVE",
"588 -70 OFFCURVE",
"659 2 CURVE",
"641 43 LINE",
"569 -6 OFFCURVE",
"373 -104 OFFCURVE",
"373 -270 CURVE SMOOTH",
"373 -326 OFFCURVE",
"412 -389 OFFCURVE",
"510 -389 CURVE SMOOTH",
"631 -389 OFFCURVE",
"707 -336 OFFCURVE",
"756 -299 CURVE",
"750 -260 OFFCURVE",
"733 -250 OFFCURVE",
"717 -250 CURVE SMOOTH",
"680 -250 OFFCURVE",
"643 -281 OFFCURVE",
"608 -281 CURVE SMOOTH",
"567 -281 OFFCURVE",
"537 -254 OFFCURVE",
"537 -193 CURVE SMOOTH"
);
}
);
width = 1104;
}
);
unicode = 02DB;
},
{
glyphname = uniEFFD;
layers = (
{
layerId = UUID0;
paths = (
{
closed = 1;
nodes = (
"133 0 LINE",
"981 0 LINE",
"981 1024 LINE",
"133 1024 LINE"
);
},
{
closed = 1;
nodes = (
"260 897 LINE",
"854 897 LINE",
"854 127 LINE",
"260 127 LINE"
);
}
);
width = 1114;
}
);
unicode = EFFD;
},
{
glyphname = foundryicon;
layers = (
{
layerId = UUID0;
paths = (
{
closed = 1;
nodes = (
"1062 5 OFFCURVE",
"1078 27 OFFCURVE",
"1083 48 CURVE",
"1100 21 OFFCURVE",
"1125 5 OFFCURVE",
"1160 5 CURVE SMOOTH",
"1229 5 OFFCURVE",
"1246 83 OFFCURVE",
"1246 137 CURVE SMOOTH",
"1246 143 OFFCURVE",
"1246 147 OFFCURVE",
"1246 152 CURVE",
"1243 152 OFFCURVE",
"1241 153 OFFCURVE",
"1236 151 CURVE",
"1221 91 OFFCURVE",
"1199 54 OFFCURVE",
"1171 33 CURVE",
"1151 62 OFFCURVE",
"1141 101 OFFCURVE",
"1141 149 CURVE",
"1193 174 OFFCURVE",
"1221 271 OFFCURVE",
"1221 351 CURVE SMOOTH",
"1221 436 OFFCURVE",
"1199 471 OFFCURVE",
"1117 485 CURVE",
"1079 417 OFFCURVE",
"1059 313 OFFCURVE",
"1059 214 CURVE SMOOTH",
"1059 168 OFFCURVE",
"1063 123 OFFCURVE",
"1072 82 CURVE SMOOTH",
"1074 72 LINE",
"1068 61 OFFCURVE",
"1053 29 OFFCURVE",
"1039 33 CURVE",
"1029 66 OFFCURVE",
"1026 109 OFFCURVE",
"1026 153 CURVE SMOOTH",
"1026 202 OFFCURVE",
"1030 251 OFFCURVE",
"1036 290 CURVE",
"1025 300 OFFCURVE",
"990 315 OFFCURVE",
"975 311 CURVE",
"968 307 OFFCURVE",
"961 268 OFFCURVE",
"958 261 CURVE",
"944 267 OFFCURVE",
"925 271 OFFCURVE",
"909 271 CURVE",
"877 236 OFFCURVE",
"866 189 OFFCURVE",
"863 139 CURVE",
"863 101 LINE",
"854 79 OFFCURVE",
"839 46 OFFCURVE",
"812 35 CURVE",
"798 43 OFFCURVE",
"794 63 OFFCURVE",
"789 83 CURVE",
"827 94 OFFCURVE",
"848 147 OFFCURVE",
"848 195 CURVE SMOOTH",
"848 237 OFFCURVE",
"833 263 OFFCURVE",
"807 275 CURVE SMOOTH",
"806 276 OFFCURVE",
"806 276 OFFCURVE",
"806 276 CURVE",
"801 286 OFFCURVE",
"794 299 OFFCURVE",
"788 312 CURVE",
"854 322 OFFCURVE",
"875 408 OFFCURVE",
"896 450 CURVE",
"906 462 LINE",
"906 462 OFFCURVE",
"907 462 OFFCURVE",
"906 462 CURVE",
"895 462 LINE",
"897 476 LINE",
"897 476 OFFCURVE",
"899 477 OFFCURVE",
"896 477 CURVE",
"884 472 LINE",
"879 476 OFFCURVE",
"873 477 OFFCURVE",
"866 477 CURVE SMOOTH",
"848 477 OFFCURVE",
"831 465 OFFCURVE",
"825 444 CURVE",
"814 434 OFFCURVE",
"748 423 OFFCURVE",
"681 411 CURVE",
"667 411 OFFCURVE",
"585 418 OFFCURVE",
"584 420 CURVE",
"580 420 OFFCURVE",
"579 416 OFFCURVE",
"582 413 CURVE",
"600 396 OFFCURVE",
"646 398 OFFCURVE",
"659 386 CURVE",
"687 353 OFFCURVE",
"721 320 OFFCURVE",
"758 312 CURVE",
"761 303 OFFCURVE",
"765 292 OFFCURVE",
"770 284 CURVE",
"766 285 OFFCURVE",
"761 285 OFFCURVE",
"757 285 CURVE SMOOTH",
"753 285 OFFCURVE",
"750 285 OFFCURVE",
"745 284 CURVE",
"728 256 OFFCURVE",
"717 195 OFFCURVE",
"716 144 CURVE",
"715 139 OFFCURVE",
"715 135 OFFCURVE",
"715 130 CURVE SMOOTH",
"715 67 OFFCURVE",
"742 12 OFFCURVE",
"810 12 CURVE",
"840 16 OFFCURVE",
"861 37 OFFCURVE",
"873 56 CURVE",
"879 31 OFFCURVE",
"899 12 OFFCURVE",
"936 12 CURVE",
"954 15 OFFCURVE",
"978 29 OFFCURVE",
"982 49 CURVE",
"991 29 OFFCURVE",
"1012 5 OFFCURVE",
"1039 5 CURVE SMOOTH"
);
},
{
closed = 1;
nodes = (
"451 -193 OFFCURVE",
"498 -32 OFFCURVE",
"498 147 CURVE SMOOTH",
"498 191 OFFCURVE",
"496 235 OFFCURVE",
"491 278 CURVE",
"472 297 OFFCURVE",
"433 314 OFFCURVE",
"409 311 CURVE",
"414 274 OFFCURVE",
"426 211 OFFCURVE",
"426 146 CURVE SMOOTH",
"426 119 OFFCURVE",
"424 91 OFFCURVE",
"418 65 CURVE",
"416 60 OFFCURVE",
"414 49 OFFCURVE",
"403 46 CURVE",
"389 90 OFFCURVE",
"385 139 OFFCURVE",
"385 189 CURVE SMOOTH",
"385 212 OFFCURVE",
"386 235 OFFCURVE",
"387 258 CURVE",
"369 275 OFFCURVE",
"335 281 OFFCURVE",
"321 284 CURVE",
"312 268 OFFCURVE",
"308 245 OFFCURVE",
"308 209 CURVE SMOOTH",
"308 172 OFFCURVE",
"311 134 OFFCURVE",
"320 102 CURVE",
"310 79 OFFCURVE",
"287 39 OFFCURVE",
"251 27 CURVE",
"210 56 OFFCURVE",
"195 131 OFFCURVE",
"195 209 CURVE SMOOTH",
"195 300 OFFCURVE",
"216 393 OFFCURVE",
"241 417 CURVE",
"251 404 OFFCURVE",
"263 361 OFFCURVE",
"263 325 CURVE SMOOTH",
"263 319 OFFCURVE",
"262 312 OFFCURVE",
"262 306 CURVE",
"260 302 OFFCURVE",
"260 295 OFFCURVE",
"269 304 CURVE",
"294 326 OFFCURVE",
"312 354 OFFCURVE",
"312 388 CURVE SMOOTH",
"312 476 OFFCURVE",
"249 491 OFFCURVE",
"207 500 CURVE",
"130 433 OFFCURVE",
"103 317 OFFCURVE",
"104 203 CURVE SMOOTH",
"106 104 OFFCURVE",
"147 1 OFFCURVE",
"253 1 CURVE SMOOTH",
"301 1 OFFCURVE",
"324 35 OFFCURVE",
"333 63 CURVE",
"349 33 OFFCURVE",
"371 12 OFFCURVE",
"405 12 CURVE SMOOTH",
"414 12 OFFCURVE",
"422 20 OFFCURVE",
"426 25 CURVE",
"415 -67 OFFCURVE",
"414 -129 OFFCURVE",
"355 -167 CURVE",
"353 -158 OFFCURVE",
"352 -146 OFFCURVE",
"352 -135 CURVE SMOOTH",
"352 -115 OFFCURVE",
"354 -95 OFFCURVE",
"356 -78 CURVE",
"338 -60 OFFCURVE",
"310 -52 OFFCURVE",
"287 -52 CURVE",
"282 -71 OFFCURVE",
"277 -92 OFFCURVE",
"277 -115 CURVE SMOOTH",
"277 -165 OFFCURVE",
"290 -193 OFFCURVE",
"338 -193 CURVE SMOOTH"
);
},
{
closed = 1;
nodes = (
"576 8 OFFCURVE",
"591 28 OFFCURVE",
"599 54 CURVE",
"606 74 OFFCURVE",
"606 113 OFFCURVE",
"606 136 CURVE",
"612 162 OFFCURVE",
"632 181 OFFCURVE",
"639 201 CURVE",
"643 170 OFFCURVE",
"658 154 OFFCURVE",
"683 154 CURVE SMOOTH",
"690 154 OFFCURVE",
"697 156 OFFCURVE",
"706 158 CURVE",
"704 171 OFFCURVE",
"702 187 OFFCURVE",
"702 203 CURVE SMOOTH",
"702 227 OFFCURVE",
"705 251 OFFCURVE",
"708 271 CURVE",
"699 290 OFFCURVE",
"672 297 OFFCURVE",
"643 300 CURVE",
"637 290 OFFCURVE",
"632 268 OFFCURVE",
"632 256 CURVE",
"625 237 OFFCURVE",
"615 216 OFFCURVE",
"599 186 CURVE",
"596 223 OFFCURVE",
"587 250 OFFCURVE",
"576 268 CURVE",
"569 277 OFFCURVE",
"559 283 OFFCURVE",
"546 285 CURVE SMOOTH",
"535 288 OFFCURVE",
"520 290 OFFCURVE",
"501 291 CURVE",
"532 217 OFFCURVE",
"535 92 OFFCURVE",
"541 9 CURVE",
"544 8 OFFCURVE",
"547 8 OFFCURVE",
"550 8 CURVE SMOOTH"
);
},
{
closed = 1;
nodes = (
"787 152 OFFCURVE",
"794 198 OFFCURVE",
"806 236 CURVE",
"811 227 OFFCURVE",
"818 206 OFFCURVE",
"818 186 CURVE SMOOTH",
"818 151 OFFCURVE",
"809 110 OFFCURVE",
"787 107 CURVE"
);
},
{
closed = 1;
nodes = (
"790 281 OFFCURVE",
"784 282 OFFCURVE",
"776 283 CURVE",
"768 311 LINE",
"779 311 LINE",
"784 299 OFFCURVE",
"790 288 OFFCURVE",
"796 279 CURVE"
);
},
{
closed = 1;
nodes = (
"929 55 OFFCURVE",
"927 75 OFFCURVE",
"927 96 CURVE SMOOTH",
"927 150 OFFCURVE",
"941 210 OFFCURVE",
"957 229 CURVE",
"956 221 OFFCURVE",
"956 209 OFFCURVE",
"956 194 CURVE SMOOTH",
"956 164 OFFCURVE",
"958 123 OFFCURVE",
"966 87 CURVE",
"965 68 OFFCURVE",
"946 48 OFFCURVE",
"935 39 CURVE"
);
},
{
closed = 1;
nodes = (
"1144 256 OFFCURVE",
"1158 339 OFFCURVE",
"1171 396 CURVE",
"1174 382 OFFCURVE",
"1175 365 OFFCURVE",
"1175 345 CURVE SMOOTH",
"1175 289 OFFCURVE",
"1164 217 OFFCURVE",
"1140 183 CURVE"
);
}
